<svg width="27" height="27" viewBox="0 0 27 27" fill="none" xmlns="http://www.w3.org/2000/svg">
<path fill-rule="evenodd" clip-rule="evenodd" d="M20.1886 13.5C20.1886 13.7237 20.1 13.9384 19.9422 14.0966C19.7845 14.2548 19.5705 14.3437 19.3474 14.3437H9.60136L13.2134 17.9651C13.2917 18.0435 13.3537 18.1367 13.396 18.2392C13.4384 18.3417 13.4601 18.4515 13.4601 18.5625C13.4601 18.6734 13.4384 18.7833 13.396 18.8858C13.3537 18.9883 13.2917 19.0814 13.2134 19.1598C13.1352 19.2383 13.0424 19.3005 12.9402 19.343C12.838 19.3854 12.7285 19.4073 12.6179 19.4073C12.5073 19.4073 12.3978 19.3854 12.2956 19.343C12.1934 19.3005 12.1005 19.2383 12.0223 19.1598L6.97516 14.0973C6.89682 14.019 6.83467 13.9259 6.79226 13.8233C6.74986 13.7208 6.72803 13.611 6.72803 13.5C6.72803 13.389 6.74986 13.2791 6.79226 13.1766C6.83467 13.0741 6.89682 12.981 6.97516 12.9026L12.0223 7.84009C12.1803 7.68166 12.3945 7.59265 12.6179 7.59265C12.8413 7.59265 13.0555 7.68166 13.2134 7.84009C13.3714 7.99853 13.4601 8.21341 13.4601 8.43747C13.4601 8.66153 13.3714 8.87641 13.2134 9.03484L9.60136 12.6562H19.3474C19.5705 12.6562 19.7845 12.7451 19.9422 12.9033C20.1 13.0616 20.1886 13.2762 20.1886 13.5Z" fill="url(#paint0_linear_1046_9114)"/>
<defs>
<linearGradient id="paint0_linear_1046_9114" x1="20.1886" y1="13.5" x2="8.17475" y2="17.669" gradientUnits="userSpaceOnUse">
<stop offset="0.239583" stop-color="#4181D2"/>
<stop offset="0.682292" stop-color="#6EC1ED"/>
<stop offset="0.979167" stop-color="#5DD1B1"/>
</linearGradient>
</defs>
</svg>
