<svg width="81" height="81" viewBox="0 0 81 81" fill="none" xmlns="http://www.w3.org/2000/svg">
<g clip-path="url(#clip0_93_6018)">
<path d="M79.9917 77.0294H76.3926V28.6733C76.3926 27.753 75.6465 27.0069 74.7262 27.0069H61.5624C60.6421 27.0069 59.896 27.753 59.896 28.6733V77.0294H57.9632V47.1027C57.9632 46.1824 57.2171 45.4363 56.2968 45.4363H43.133C42.2127 45.4363 41.4666 46.1824 41.4666 47.1027V77.0294H39.5339V33.9388C39.5339 33.0186 38.7878 32.2725 37.8675 32.2725H24.7037C23.7834 32.2725 23.0373 33.0186 23.0373 33.9388V77.0294H21.1045V52.3682C21.1045 51.4479 20.3584 50.7018 19.4381 50.7018H6.27432C5.35405 50.7018 4.60794 51.4479 4.60794 52.3682V77.0294H1.00879H0.658789V77.3794V80.0122V80.3622H1.00879H79.9917H80.3417V80.0122V77.3794V77.0294H79.9917ZM17.7718 77.0294H7.9407V54.0346H17.7718V77.0294ZM36.2011 77.0294H26.37V35.6052H36.2011V77.0294ZM54.6305 77.0294H44.7994V48.769H54.6305V77.0294ZM73.0598 77.0294H63.2287V30.3397H73.0598V77.0294Z" fill="white" stroke="white" stroke-width="0.7"/>
<path d="M10.3111 28.7611L10.3102 28.7619C10.3102 28.7619 10.3101 28.762 10.3101 28.762M10.3111 28.7611L10.0645 34.0994C8.52167 32.5576 8.52101 30.0571 10.0627 28.5145L10.3101 28.762M10.3111 28.7611L10.3119 28.7602C10.3119 28.7602 10.3119 28.7602 10.3119 28.7602C11.718 27.3549 13.997 27.3554 15.4023 28.7614C16.8067 30.1666 16.8072 32.4434 15.404 33.849C13.9769 35.2062 11.7361 35.2062 10.3089 33.8489M10.3111 28.7611L10.3089 33.8489M10.3101 28.762C8.90619 30.167 8.90585 32.4436 10.3089 33.8489M10.3101 28.762L10.3089 33.8489M31.2719 19.8086H31.2726C31.6804 19.8088 32.0873 19.7731 32.4889 19.702C33.7102 19.4879 34.8491 18.9483 35.7867 18.1428L43.1632 23.8135C41.9629 27.3232 43.7462 31.182 47.2378 32.5233C50.8116 33.8962 54.8217 32.1121 56.1945 28.5383C56.9652 26.5322 56.7602 24.2878 55.6516 22.4592L64.57 13.5407C67.7437 15.4608 71.8953 14.5484 73.9611 11.427C76.0802 8.22549 75.2026 3.91224 72.0011 1.7933C68.7995 -0.325811 64.4863 0.55181 62.3673 3.75335C60.8807 5.99942 60.8295 8.89361 62.2138 11.1843L53.2948 20.1033C50.637 18.499 47.2267 18.8594 44.9626 20.993L37.7292 15.4334C39.1012 11.9941 37.5208 8.05599 34.108 6.53664C30.6105 4.97956 26.5131 6.55259 24.956 10.0501L25.2758 10.1924L24.956 10.0501C24.032 12.1257 24.1859 14.5162 25.3538 16.4509L16.4362 25.3699C13.2705 23.4575 9.13168 24.3698 7.07342 27.4833L7.36504 27.6761L7.07342 27.4833C4.96231 30.677 5.83971 34.9774 9.03341 37.0886C10.1675 37.8383 11.497 38.2381 12.8566 38.238C16.6849 38.2378 19.7883 35.1342 19.7881 31.3057C19.7881 30.0425 19.4428 28.8051 18.7924 27.7265L27.7131 18.8045C28.7836 19.4574 30.0143 19.8057 31.2719 19.8086ZM28.3379 10.8125L28.3379 10.8125L28.3408 10.8082C28.8861 10.0266 29.7209 9.49492 30.66 9.33161C30.8693 9.29575 31.0812 9.27772 31.2937 9.27755C32.0298 9.27835 32.7478 9.50576 33.3502 9.92879L33.3506 9.92903C34.9788 11.0694 35.3743 13.3136 34.234 14.9417C33.0937 16.5699 30.8495 16.9654 29.2213 15.8252C27.5931 14.6848 27.1976 12.4406 28.3379 10.8125ZM49.7152 22.4414H49.7153C51.703 22.4411 53.3146 24.0523 53.3149 26.0401C53.315 26.9938 52.9365 27.9086 52.2627 28.5834C50.8356 29.9407 48.5948 29.9407 47.1677 28.5834C45.7645 27.178 45.7649 24.9013 47.1689 23.4964C47.8441 22.8208 48.7601 22.4412 49.7152 22.4414ZM68.1446 4.01202C70.1323 4.01202 71.7437 5.62339 71.7437 7.61117C71.7437 9.59895 70.1323 11.2103 68.1446 11.2103C66.1568 11.2103 64.5454 9.59895 64.5454 7.61117C64.5454 5.62339 66.1568 4.01202 68.1446 4.01202Z" fill="#135790" stroke="#135790" stroke-width="0.7"/>
</g>
<defs>
<clipPath id="clip0_93_6018">
<rect width="81" height="81" fill="white"/>
</clipPath>
</defs>
</svg>
