<svg width="18" height="17" viewBox="0 0 18 17" fill="none" xmlns="http://www.w3.org/2000/svg">
<path d="M3.2142 16.4461L3.21417 16.4461C2.9756 16.4934 2.73625 16.5367 2.49624 16.576L2.4957 16.5761C2.16987 16.6282 1.93965 16.2931 2.0609 16.0074C2.14794 15.8022 2.22774 15.5939 2.30017 15.3831L2.30233 15.3759L2.30406 15.3701L2.30418 15.3701C2.54174 14.6804 2.73586 13.8922 2.81368 13.1552C1.59155 11.9067 0.85 10.2797 0.85 8.5C0.85 4.53297 4.5186 1.35 9 1.35C13.4814 1.35 17.15 4.53297 17.15 8.5C17.15 12.467 13.4815 15.6499 9.0002 15.65C9.00013 15.65 9.00007 15.65 9 15.65V15.5C8.20765 15.5011 7.41859 15.3982 6.653 15.194L3.2142 16.4461ZM3.2142 16.4461C4.99959 16.0918 6.1178 15.6268 6.66953 15.3535L3.2142 16.4461ZM3.78427 12.2881L3.78422 12.2881C2.74817 11.2491 2.15 9.92413 2.15 8.5C2.15 5.40822 5.06833 2.65 9 2.65C12.9317 2.65 15.85 5.40822 15.85 8.5C15.85 11.5928 12.9317 14.35 9 14.35L8.99976 14.35C8.30768 14.3511 7.61845 14.2614 6.94972 14.0831C6.67636 14.01 6.38565 14.0403 6.13323 14.1682C5.78001 14.3471 5.01771 14.6839 3.78162 14.9894C3.94059 14.4066 4.05184 13.8116 4.1142 13.2105L4.11432 13.2093C4.13043 13.0409 4.1092 12.8711 4.05215 12.7119C3.9951 12.5526 3.90363 12.408 3.78427 12.2881ZM5.04038 5.54038C4.91848 5.66228 4.85 5.82761 4.85 6C4.85 6.17239 4.91848 6.33772 5.04038 6.45962C5.16228 6.58152 5.32761 6.65 5.5 6.65H12.5C12.6724 6.65 12.8377 6.58152 12.9596 6.45962C13.0815 6.33772 13.15 6.17239 13.15 6C13.15 5.82761 13.0815 5.66228 12.9596 5.54038C12.8377 5.41848 12.6724 5.35 12.5 5.35H5.5C5.32761 5.35 5.16228 5.41848 5.04038 5.54038ZM5.04038 8.04038C4.91848 8.16228 4.85 8.32761 4.85 8.5C4.85 8.67239 4.91848 8.83772 5.04038 8.95962C5.16228 9.08152 5.32761 9.15 5.5 9.15H12.5C12.6724 9.15 12.8377 9.08152 12.9596 8.95962C13.0815 8.83772 13.15 8.67239 13.15 8.5C13.15 8.32761 13.0815 8.16228 12.9596 8.04038C12.8377 7.91848 12.6724 7.85 12.5 7.85H5.5C5.32761 7.85 5.16228 7.91848 5.04038 8.04038ZM5.04038 10.5404C4.91848 10.6623 4.85 10.8276 4.85 11C4.85 11.1724 4.91848 11.3377 5.04038 11.4596C5.16228 11.5815 5.32761 11.65 5.5 11.65H9.5C9.67239 11.65 9.83772 11.5815 9.95962 11.4596C10.0815 11.3377 10.15 11.1724 10.15 11C10.15 10.8276 10.0815 10.6623 9.95962 10.5404C9.83772 10.4185 9.67239 10.35 9.5 10.35H5.5C5.32761 10.35 5.16228 10.4185 5.04038 10.5404Z" fill="#11578F" stroke="#11578F" stroke-width="0.3"/>
</svg>
