<svg width="138" height="139" viewBox="0 0 138 139" fill="none" xmlns="http://www.w3.org/2000/svg">
<path d="M54.2179 57.068C52.3193 55.1351 49.7681 53.95 46.9656 53.95C44.1632 53.95 41.6119 55.1351 39.7134 57.068" stroke="white" stroke-width="8" stroke-miterlimit="10" stroke-linecap="round" stroke-linejoin="round"/>
<path d="M46.9654 73.6973C61.127 73.6973 72.6072 62.1804 72.6072 47.9736C72.6072 33.7667 61.127 22.2498 46.9654 22.2498C32.8037 22.2498 21.3235 33.7667 21.3235 47.9736C21.3235 62.1804 32.8037 73.6973 46.9654 73.6973Z" stroke="white" stroke-width="8" stroke-miterlimit="10" stroke-linecap="round" stroke-linejoin="round"/>
<path d="M89.4231 47.6666H123.752C128.197 47.6666 131.798 51.333 131.798 55.8567V107.83C131.798 112.353 128.197 116.02 123.752 116.02H105.763L89.4567 132.618L73.1499 116.02H55.1636C50.7194 116.02 47.1175 112.353 47.1175 107.83V89.4849" stroke="white" stroke-width="8" stroke-miterlimit="10" stroke-linecap="round" stroke-linejoin="round"/>
<path d="M89.8538 63.5455H116.762" stroke="white" stroke-width="8" stroke-miterlimit="10" stroke-linecap="round" stroke-linejoin="round"/>
<path d="M89.8538 78.6302H116.762" stroke="white" stroke-width="8" stroke-miterlimit="10" stroke-linecap="round" stroke-linejoin="round"/>
<path d="M88.681 16.079V79.799C88.681 85.1546 84.3816 89.4962 79.078 89.4962H24.7043L6.37421 108.006V16.079C6.37421 10.7234 10.6736 6.38184 15.9772 6.38184H79.078C84.3816 6.38184 88.681 10.7234 88.681 16.079Z" stroke="white" stroke-width="8" stroke-miterlimit="10" stroke-linecap="round" stroke-linejoin="round"/>
</svg>
