<svg width="83" height="83" viewBox="0 0 83 83" fill="none" xmlns="http://www.w3.org/2000/svg">
<path d="M32.8733 33.9917C31.7023 32.8033 30.1288 32.0747 28.4003 32.0747C26.6718 32.0747 25.0982 32.8033 23.9272 33.9917" stroke="#135790" stroke-width="5" stroke-miterlimit="10" stroke-linecap="round" stroke-linejoin="round"/>
<path d="M28.4003 44.2156C37.1348 44.2156 44.2156 37.1348 44.2156 28.4003C44.2156 19.6657 37.1348 12.585 28.4003 12.585C19.6657 12.585 12.585 19.6657 12.585 28.4003C12.585 37.1348 19.6657 44.2156 28.4003 44.2156Z" stroke="white" stroke-width="5" stroke-miterlimit="10" stroke-linecap="round" stroke-linejoin="round"/>
<path d="M53.991 28.0249H75.0614C77.7891 28.0249 79.9999 30.268 79.9999 33.0357V64.8338C79.9999 67.6015 77.7891 69.8447 75.0614 69.8447H64.0203L54.0116 79.9999L44.0029 69.8447H32.9634C30.2357 69.8447 28.0249 67.6015 28.0249 64.8338V53.6101" stroke="#135790" stroke-width="5" stroke-miterlimit="10" stroke-linecap="round" stroke-linejoin="round"/>
<path d="M54.0127 37.6499H70.3752" stroke="#135790" stroke-width="5" stroke-miterlimit="10" stroke-linecap="round" stroke-linejoin="round"/>
<path d="M54.0127 47.2749H70.3752" stroke="#135790" stroke-width="5" stroke-miterlimit="10" stroke-linecap="round" stroke-linejoin="round"/>
<path d="M54.0125 8.96984V48.1975C54.0125 51.4945 51.3478 54.1673 48.0607 54.1673H14.3607L3 65.5625V8.96984C3 5.67277 5.66468 3 8.95178 3H48.0607C51.3478 3 54.0125 5.67277 54.0125 8.96984Z" stroke="white" stroke-width="5" stroke-miterlimit="10" stroke-linecap="round" stroke-linejoin="round"/>
</svg>
