<svg width="104" height="104" viewBox="0 0 104 104" fill="none" xmlns="http://www.w3.org/2000/svg">
<g clip-path="url(#clip0_731_5937)">
<path d="M52 97.5C39.9327 97.5 28.3595 92.7063 19.8266 84.1734C11.2937 75.6404 6.5 64.0674 6.5 52C6.5 39.9327 11.2937 28.3595 19.8266 19.8266C28.3595 11.2937 39.9327 6.5 52 6.5C64.0674 6.5 75.6404 11.2937 84.1734 19.8266C92.7063 28.3595 97.5 39.9327 97.5 52C97.5 64.0674 92.7063 75.6404 84.1734 84.1734C75.6404 92.7063 64.0674 97.5 52 97.5ZM52 104C65.7913 104 79.0177 98.5214 88.7696 88.7696C98.5214 79.0177 104 65.7913 104 52C104 38.2087 98.5214 24.9823 88.7696 15.2304C79.0177 5.47856 65.7913 0 52 0C38.2087 0 24.9823 5.47856 15.2304 15.2304C5.47856 24.9823 0 38.2087 0 52C0 65.7913 5.47856 79.0177 15.2304 88.7696C24.9823 98.5214 38.2087 104 52 104Z" fill="#5DD1B1"/>
<path d="M71.305 32.305C71.2587 32.3499 71.2153 32.3976 71.175 32.448L48.6005 61.2105L34.996 47.5995C34.0719 46.7384 32.8496 46.2696 31.5866 46.2919C30.3236 46.3141 29.1186 46.8258 28.2255 47.719C27.3323 48.6121 26.8206 49.8171 26.7984 51.0801C26.7761 52.3431 27.2449 53.5654 28.106 54.4895L45.305 71.695C45.7683 72.1575 46.3201 72.5219 46.9273 72.7665C47.5345 73.0112 48.1848 73.131 48.8393 73.1189C49.4939 73.1067 50.1393 72.9629 50.737 72.6959C51.3348 72.429 51.8726 72.0443 52.3185 71.565L78.2665 39.13C79.15 38.2027 79.6331 36.9648 79.6113 35.6841C79.5895 34.4035 79.0645 33.1828 78.1498 32.2861C77.2352 31.3894 76.0044 30.8887 74.7236 30.8922C73.4427 30.8958 72.2147 31.4033 71.305 32.305Z" fill="#5DD1B1"/>
</g>
<defs>
<clipPath id="clip0_731_5937">
<rect width="104" height="104" fill="white"/>
</clipPath>
</defs>
</svg>
