<svg width="24" height="24" viewBox="0 0 24 24" fill="none" xmlns="http://www.w3.org/2000/svg">
<path d="M4.22187 19.778C3.18919 18.7591 2.36826 17.5459 1.80636 16.2084C1.24446 14.8709 0.952676 13.4355 0.947816 11.9847C0.942955 10.534 1.22511 9.09663 1.77804 7.75539C2.33097 6.41415 3.14375 5.19553 4.16958 4.1697C5.19541 3.14387 6.41403 2.33109 7.75527 1.77816C9.0965 1.22524 10.5339 0.943078 11.9846 0.947938C13.4353 0.952798 14.8708 1.24458 16.2083 1.80648C17.5458 2.36839 18.7589 3.18931 19.7779 4.22199C21.3996 5.84464 22.4738 7.93347 22.8503 10.1965C23.2269 12.4595 22.8869 14.7837 21.8779 16.844L22.6349 20.25C22.7499 20.7677 22.6546 21.3099 22.3699 21.7573C22.0852 22.2047 21.6345 22.5208 21.1169 22.636C20.831 22.6995 20.5347 22.6995 20.2489 22.636L16.8429 21.879C14.7825 22.888 12.4584 23.228 10.1954 22.8515C7.93235 22.475 5.84352 21.4007 4.22087 19.779L4.22187 19.778ZM2.99987 12C2.9994 13.5546 3.4016 15.0827 4.1673 16.4357C4.93299 17.7886 6.03607 18.9201 7.36906 19.72C8.70206 20.5198 10.2195 20.9608 11.7736 20.9999C13.3277 21.039 14.8654 20.6748 16.2369 19.943C16.3822 19.8657 16.5443 19.8252 16.7089 19.825C16.7815 19.825 16.8539 19.8327 16.9249 19.848L20.6829 20.683L19.8479 16.925C19.796 16.6918 19.8294 16.4477 19.9419 16.237C20.5852 15.0303 20.945 13.6928 20.9941 12.3262C21.0431 10.9596 20.7801 9.59972 20.225 8.34996C19.6699 7.10019 18.8374 5.99335 17.7905 5.1135C16.7436 4.23365 15.5101 3.60392 14.1834 3.27214C12.8568 2.94036 11.472 2.91526 10.1342 3.19874C8.79639 3.48222 7.54079 4.06683 6.46274 4.90816C5.38468 5.7495 4.51252 6.82544 3.9125 8.05426C3.31247 9.28309 3.00036 10.6325 2.99987 12ZM12.9999 12C12.9999 11.6044 13.1172 11.2177 13.3369 10.8889C13.5567 10.56 13.8691 10.3036 14.2345 10.1522C14.6 10.0009 15.0021 9.96125 15.39 10.0384C15.778 10.1156 16.1344 10.3061 16.4141 10.5858C16.6938 10.8655 16.8843 11.2218 16.9614 11.6098C17.0386 11.9978 16.999 12.3999 16.8476 12.7654C16.6963 13.1308 16.4399 13.4432 16.111 13.6629C15.7821 13.8827 15.3954 14 14.9999 14C14.4694 14 13.9607 13.7893 13.5857 13.4142C13.2106 13.0391 12.9999 12.5304 12.9999 12ZM6.99987 12C6.99987 11.6044 7.11717 11.2177 7.33693 10.8889C7.55669 10.56 7.86905 10.3036 8.2345 10.1522C8.59995 10.0009 9.00209 9.96125 9.39005 10.0384C9.77801 10.1156 10.1344 10.3061 10.4141 10.5858C10.6938 10.8655 10.8843 11.2218 10.9614 11.6098C11.0386 11.9978 10.999 12.3999 10.8476 12.7654C10.6963 13.1308 10.4399 13.4432 10.111 13.6629C9.78211 13.8827 9.39543 14 8.99987 14C8.46944 14 7.96073 13.7893 7.58566 13.4142C7.21058 13.0391 6.99987 12.5304 6.99987 12Z" fill="#92929D"/>
</svg>
