<svg width="18" height="16" viewBox="0 0 18 16" fill="none" xmlns="http://www.w3.org/2000/svg">
<path d="M3.2142 15.4461L3.21417 15.4461C2.9756 15.4934 2.73625 15.5367 2.49624 15.576L2.4957 15.5761C2.16987 15.6282 1.93965 15.2931 2.0609 15.0074C2.14794 14.8022 2.22774 14.5939 2.30017 14.3831L2.30233 14.3759L2.30406 14.3701L2.30418 14.3701C2.54174 13.6804 2.73586 12.8922 2.81368 12.1552C1.59155 10.9067 0.85 9.2797 0.85 7.5C0.85 3.53297 4.5186 0.35 9 0.35C13.4814 0.35 17.15 3.53297 17.15 7.5C17.15 11.467 13.4815 14.6499 9.0002 14.65C9.00013 14.65 9.00007 14.65 9 14.65V14.5C8.20765 14.5011 7.41859 14.3982 6.653 14.194L3.2142 15.4461ZM3.2142 15.4461C4.99959 15.0918 6.1178 14.6268 6.66953 14.3535L3.2142 15.4461ZM3.78427 11.2881L3.78422 11.2881C2.74817 10.2491 2.15 8.92413 2.15 7.5C2.15 4.40822 5.06833 1.65 9 1.65C12.9317 1.65 15.85 4.40822 15.85 7.5C15.85 10.5928 12.9317 13.35 9 13.35L8.99976 13.35C8.30768 13.3511 7.61845 13.2614 6.94972 13.0831C6.67636 13.01 6.38565 13.0403 6.13323 13.1682C5.78001 13.3471 5.01771 13.6839 3.78162 13.9894C3.94059 13.4066 4.05184 12.8116 4.1142 12.2105L4.11432 12.2093C4.13043 12.0409 4.1092 11.8711 4.05215 11.7119C3.9951 11.5526 3.90363 11.408 3.78427 11.2881ZM5.04038 4.54038C4.91848 4.66228 4.85 4.82761 4.85 5C4.85 5.17239 4.91848 5.33772 5.04038 5.45962C5.16228 5.58152 5.32761 5.65 5.5 5.65H12.5C12.6724 5.65 12.8377 5.58152 12.9596 5.45962C13.0815 5.33772 13.15 5.17239 13.15 5C13.15 4.82761 13.0815 4.66228 12.9596 4.54038C12.8377 4.41848 12.6724 4.35 12.5 4.35H5.5C5.32761 4.35 5.16228 4.41848 5.04038 4.54038ZM5.04038 7.04038C4.91848 7.16228 4.85 7.32761 4.85 7.5C4.85 7.67239 4.91848 7.83772 5.04038 7.95962C5.16228 8.08152 5.32761 8.15 5.5 8.15H12.5C12.6724 8.15 12.8377 8.08152 12.9596 7.95962C13.0815 7.83772 13.15 7.67239 13.15 7.5C13.15 7.32761 13.0815 7.16228 12.9596 7.04038C12.8377 6.91848 12.6724 6.85 12.5 6.85H5.5C5.32761 6.85 5.16228 6.91848 5.04038 7.04038ZM5.04038 9.54038C4.91848 9.66228 4.85 9.82761 4.85 10C4.85 10.1724 4.91848 10.3377 5.04038 10.4596C5.16228 10.5815 5.32761 10.65 5.5 10.65H9.5C9.67239 10.65 9.83772 10.5815 9.95962 10.4596C10.0815 10.3377 10.15 10.1724 10.15 10C10.15 9.82761 10.0815 9.66228 9.95962 9.54038C9.83772 9.41848 9.67239 9.35 9.5 9.35H5.5C5.32761 9.35 5.16228 9.41848 5.04038 9.54038Z" fill="#11578F" stroke="#11578F" stroke-width="0.3"/>
</svg>
