<svg width="24" height="18" viewBox="0 0 24 18" fill="none" xmlns="http://www.w3.org/2000/svg">
<g clip-path="url(#clip0_89_5914)">
<path d="M21.844 0.518066H2.10488C0.946635 0.518066 0 1.4651 0 2.63314V15.3236C0 16.4921 0.947243 17.4387 2.10488 17.4387H21.844C23.0022 17.4387 23.9489 16.4917 23.9489 15.3236V2.63314C23.9489 1.46482 23.0018 0.518066 21.844 0.518066ZM21.5208 1.92812C20.8402 2.6142 12.8466 10.6728 12.5181 11.0039C12.2439 11.2803 11.7051 11.2805 11.4307 11.0039L2.4281 1.92812H21.5208ZM1.40325 15.0644V2.89236L7.44028 8.97838L1.40325 15.0644ZM2.4281 16.0286L8.43093 9.97707L10.4369 11.9993C11.2589 12.828 12.6903 12.8277 13.512 11.9993L15.518 9.97712L21.5208 16.0286H2.4281ZM22.5456 15.0644L16.5086 8.97838L22.5456 2.89236V15.0644Z" fill="#49A7D9"/>
</g>
<defs>
<clipPath id="clip0_89_5914">
<rect width="24" height="17" fill="white" transform="translate(0 0.5)"/>
</clipPath>
</defs>
</svg>
