<svg width="81" height="50" viewBox="0 0 81 50" fill="none" xmlns="http://www.w3.org/2000/svg">
<g clip-path="url(#clip0_1041_9092)">
<rect width="81" height="50" fill="white" fill-opacity="0.01"/>
<path d="M40.5 50C62.8675 50 81 45.9706 81 41C81 36.0294 62.8675 32 40.5 32C18.1325 32 0 36.0294 0 41C0 45.9706 18.1325 50 40.5 50Z" fill="#F5F5F5"/>
<path d="M69.6328 17.0349L56.7875 2.58087C56.1709 1.59565 55.2707 1 54.3225 1H26.7049C25.7566 1 24.8564 1.59565 24.2399 2.57961L11.3945 17.0361V28.6463H69.6328V17.0349Z" stroke="#92929D" stroke-width="2"/>
<path d="M52.6842 21.0202C52.6842 19.0032 53.9426 17.3382 55.5037 17.3369H69.6328V40.1288C69.6328 42.7967 67.9616 44.9832 65.8979 44.9832H15.1294C13.0657 44.9832 11.3945 42.7954 11.3945 40.1288V17.3369H25.5236C27.0847 17.3369 28.3431 18.9995 28.3431 21.0164V21.044C28.3431 23.061 29.6155 24.6896 31.1753 24.6896H49.852C51.4118 24.6896 52.6842 23.0459 52.6842 21.029V21.0202Z" fill="#FAFAFA" stroke="#92929D" stroke-width="2"/>
</g>
<defs>
<clipPath id="clip0_1041_9092">
<rect width="81" height="50" fill="white"/>
</clipPath>
</defs>
</svg>
