<svg width="51" height="51" viewBox="0 0 51 51" fill="none" xmlns="http://www.w3.org/2000/svg">
<path d="M12.75 0C11.0592 0 9.43774 0.67165 8.24219 1.86719C7.04665 3.06274 6.375 4.68425 6.375 6.375V44.625C6.375 46.3158 7.04665 47.9373 8.24219 49.1328C9.43774 50.3283 11.0592 51 12.75 51H38.25C39.9408 51 41.5623 50.3283 42.7578 49.1328C43.9533 47.9373 44.625 46.3158 44.625 44.625V6.375C44.625 4.68425 43.9533 3.06274 42.7578 1.86719C41.5623 0.67165 39.9408 0 38.25 0H12.75ZM12.75 3.1875H38.25C39.0954 3.1875 39.9061 3.52332 40.5039 4.1211C41.1017 4.71887 41.4375 5.52962 41.4375 6.375V44.625C41.4375 45.4704 41.1017 46.2811 40.5039 46.8789C39.9061 47.4767 39.0954 47.8125 38.25 47.8125H12.75C11.9046 47.8125 11.0939 47.4767 10.4961 46.8789C9.89832 46.2811 9.5625 45.4704 9.5625 44.625V6.375C9.5625 5.52962 9.89832 4.71887 10.4961 4.1211C11.0939 3.52332 11.9046 3.1875 12.75 3.1875Z" fill="#135790"/>
<path d="M14.6721 38.5273C14.0508 38.2788 13.5503 37.7989 13.2759 37.1886C12.6544 35.9518 12.8616 34.7151 13.5309 33.6759C14.1621 32.6974 15.2076 31.8654 16.3901 31.1674C17.8881 30.3178 19.4714 29.6287 21.114 29.1114C22.3896 26.8183 23.5202 24.4475 24.4991 22.0129C23.9138 20.683 23.4549 19.3009 23.1285 17.8851C22.8544 16.6101 22.7492 15.3478 22.9819 14.2641C23.2209 13.1357 23.8553 12.1221 25.0538 11.6407C25.6658 11.3953 26.3287 11.2583 26.9726 11.3953C27.2965 11.4643 27.601 11.6044 27.864 11.8057C28.127 12.0069 28.3418 12.2642 28.4931 12.5588C28.7736 13.0815 28.8756 13.6935 28.8979 14.2736C28.9202 14.8697 28.8596 15.5327 28.7481 16.2307C28.4803 17.8564 27.8874 19.8454 27.0906 21.9491C27.97 23.8298 29.0154 25.6283 30.2143 27.3232C31.6331 27.2112 33.06 27.2647 34.4664 27.4826C35.6267 27.6898 36.8061 28.1042 37.5264 28.9648C37.9089 29.4238 38.1416 29.9848 38.1639 30.6159C38.1862 31.2279 38.0141 31.8336 37.7241 32.4105C37.4728 32.9451 37.0832 33.4029 36.5957 33.7365C36.1138 34.0509 35.5448 34.2048 34.9701 34.1764C33.915 34.1318 32.8854 33.5516 31.9961 32.8472C30.9148 31.953 29.9404 30.9369 29.0923 29.8191C26.9368 30.0635 24.8068 30.4966 22.7269 31.1132C21.7733 32.8025 20.685 34.4121 19.4724 35.9263C18.5481 37.0419 17.5344 38.0141 16.5208 38.4349C15.9384 38.6983 15.2778 38.7314 14.6721 38.5273ZM19.0676 32.4679C18.5385 32.7101 18.0476 32.9651 17.6046 33.2265C16.5591 33.8449 15.8801 34.4473 15.5422 34.9701C15.2426 35.4322 15.2362 35.7669 15.4148 36.1208C15.4466 36.1909 15.4785 36.2355 15.4976 36.261C15.5356 36.2508 15.5729 36.238 15.6092 36.2228C16.0459 36.0443 16.7408 35.4737 17.6333 34.3995C18.1408 33.778 18.6195 33.1335 19.0676 32.4679ZM24.2951 28.2285C25.3595 27.9799 26.4335 27.7746 27.5145 27.6133C26.9339 26.7253 26.3915 25.8128 25.8889 24.8784C25.389 26.0087 24.8576 27.1248 24.2951 28.2253V28.2285ZM32.0917 29.6629C32.5699 30.1793 33.0353 30.6191 33.4783 30.9697C34.2433 31.5754 34.7756 31.7762 35.0657 31.7858C35.1433 31.7959 35.2221 31.779 35.2888 31.7379C35.4214 31.6332 35.5246 31.496 35.5884 31.3395C35.7018 31.1453 35.7663 30.9266 35.7765 30.702C35.7747 30.6271 35.7451 30.5556 35.6936 30.5012C35.5279 30.3036 35.0561 30.0167 34.0425 29.835C33.3977 29.7272 32.7454 29.6707 32.0917 29.6661V29.6629ZM25.7486 18.4875C26.0169 17.6222 26.2298 16.7406 26.3861 15.8483C26.4849 15.249 26.5232 14.7549 26.5072 14.3661C26.5081 14.1515 26.4737 13.9383 26.4053 13.7349C26.2458 13.7547 26.0901 13.7976 25.9431 13.8624C25.6658 13.974 25.4394 14.2003 25.3183 14.7645C25.1908 15.3765 25.2227 16.2594 25.4649 17.3846C25.5414 17.7384 25.6371 18.1082 25.7518 18.4875H25.7486Z" fill="#135790"/>
</svg>
