<svg width="49" height="48" viewBox="0 0 49 48" fill="none" xmlns="http://www.w3.org/2000/svg">
<g clip-path="url(#clip0_110_102332)">
<rect width="48" height="48" transform="translate(0.5)" fill="white" fill-opacity="0.01"/>
<g clip-path="url(#clip1_110_102332)">
<path d="M15.4397 11.9992C15.2148 11.9995 14.993 12.0504 14.7904 12.148C14.5879 12.2456 14.4099 12.3875 14.2697 12.5632L5.11965 23.9992H18.4997C18.8975 23.9992 19.279 24.1572 19.5603 24.4385C19.8416 24.7198 19.9997 25.1014 19.9997 25.4992C19.9997 26.6927 20.4738 27.8373 21.3177 28.6812C22.1616 29.5251 23.3062 29.9992 24.4997 29.9992C25.6931 29.9992 26.8377 29.5251 27.6816 28.6812C28.5255 27.8373 28.9997 26.6927 28.9997 25.4992C28.9997 25.1014 29.1577 24.7198 29.439 24.4385C29.7203 24.1572 30.1018 23.9992 30.4997 23.9992H43.8797L34.7297 12.5632C34.5894 12.3875 34.4114 12.2456 34.2089 12.148C34.0063 12.0504 33.7845 11.9995 33.5597 11.9992H15.4397ZM45.3017 26.9992H31.8497C31.5054 28.6946 30.5856 30.2189 29.246 31.3138C27.9065 32.4086 26.2297 33.0067 24.4997 33.0067C22.7696 33.0067 21.0928 32.4086 19.7533 31.3138C18.4137 30.2189 17.4939 28.6946 17.1497 26.9992H3.69765L4.65765 34.6852C4.70304 35.0484 4.87969 35.3825 5.15432 35.6246C5.42894 35.8666 5.7826 35.9998 6.14865 35.9992H42.8507C43.2162 35.9991 43.5691 35.8655 43.8431 35.6236C44.1171 35.3816 44.2933 35.0479 44.3387 34.6852L45.2987 26.9992H45.3017ZM11.9267 10.6882C12.3484 10.1609 12.8835 9.73533 13.4921 9.44295C14.1008 9.15057 14.7674 8.99891 15.4427 8.99921H33.5567C34.2319 8.99891 34.8985 9.15057 35.5072 9.44295C36.1158 9.73533 36.6509 10.1609 37.0727 10.6882L48.1727 24.5632C48.2974 24.7198 48.3895 24.8997 48.4436 25.0924C48.4977 25.2851 48.5127 25.4866 48.4877 25.6852L47.3177 35.0572C47.1816 36.1459 46.6525 37.1473 45.8299 37.8733C45.0073 38.5992 43.9478 38.9996 42.8507 38.9992H6.14865C5.05152 38.9996 3.99202 38.5992 3.1694 37.8733C2.34677 37.1473 1.8177 36.1459 1.68165 35.0572L0.511651 25.6852C0.487063 25.4864 0.502533 25.2847 0.557149 25.092C0.611765 24.8993 0.704421 24.7195 0.829651 24.5632L11.9297 10.6882H11.9267Z" fill="#135790"/>
</g>
</g>
<defs>
<clipPath id="clip0_110_102332">
<rect width="48" height="48" fill="white" transform="translate(0.5)"/>
</clipPath>
<clipPath id="clip1_110_102332">
<rect width="48" height="48" fill="white" transform="translate(0.5)"/>
</clipPath>
</defs>
</svg>
