<svg width="17" height="18" viewBox="0 0 17 18" fill="none" xmlns="http://www.w3.org/2000/svg">
<g clip-path="url(#clip0_89_5912)">
<rect width="17" height="17" transform="translate(0 0.5)" fill="white" fill-opacity="0.01"/>
<path d="M12.75 0.5H4.25C1.91271 0.5 0 2.41266 0 4.7499V13.2501C0 15.5867 1.91271 17.5 4.25 17.5H12.75C15.0873 17.5 17 15.5867 17 13.2501V4.7499C17 2.41266 15.0873 0.5 12.75 0.5ZM15.5833 13.2501C15.5833 14.8119 14.3127 16.0833 12.75 16.0833H4.25C2.68792 16.0833 1.41674 14.8119 1.41674 13.2501V4.7499C1.41674 3.18764 2.68792 1.9167 4.25 1.9167H12.75C14.3127 1.9167 15.5833 3.18764 15.5833 4.7499V13.2501Z" fill="#49A7D9"/>
<path d="M13.1045 5.45881C13.6913 5.45881 14.167 4.98312 14.167 4.39634C14.167 3.80955 13.6913 3.33386 13.1045 3.33386C12.5177 3.33386 12.042 3.80955 12.042 4.39634C12.042 4.98312 12.5177 5.45881 13.1045 5.45881Z" fill="#49A7D9"/>
<path d="M8.5 4.74988C6.15229 4.74988 4.25 6.65233 4.25 8.99977C4.25 11.3463 6.15229 13.2501 8.5 13.2501C10.847 13.2501 12.75 11.3463 12.75 8.99977C12.75 6.65233 10.847 4.74988 8.5 4.74988ZM8.5 11.8334C6.93534 11.8334 5.66674 10.5648 5.66674 8.99977C5.66674 7.43474 6.93534 6.16658 8.5 6.16658C10.0647 6.16658 11.3333 7.43474 11.3333 8.99977C11.3333 10.5648 10.0647 11.8334 8.5 11.8334Z" fill="#49A7D9"/>
</g>
<defs>
<clipPath id="clip0_89_5912">
<rect width="17" height="17" fill="white" transform="translate(0 0.5)"/>
</clipPath>
</defs>
</svg>
