<svg width="15" height="15" viewBox="0 0 15 15" fill="none" xmlns="http://www.w3.org/2000/svg">
<g clip-path="url(#clip0_583_5052)">
<path d="M2.84431e-07 7.5C-0.000321226 6.67422 0.271934 5.87144 0.774515 5.21622C1.2771 4.561 1.9819 4.08999 2.77954 3.87629C3.57718 3.66258 4.42306 3.71814 5.18589 4.03433C5.94873 4.35052 6.58587 4.90967 6.99844 5.625H13.125C13.1866 5.62489 13.2476 5.63692 13.3046 5.6604C13.3615 5.68389 13.4133 5.71837 13.4569 5.76187L14.8631 7.16812C14.9068 7.21166 14.9414 7.26339 14.965 7.32034C14.9887 7.37729 15.0008 7.43834 15.0008 7.5C15.0008 7.56165 14.9887 7.6227 14.965 7.67965C14.9414 7.7366 14.9068 7.78833 14.8631 7.83187L13.4569 9.23812C13.4133 9.28177 13.3616 9.31641 13.3047 9.34004C13.2477 9.36367 13.1867 9.37583 13.125 9.37583C13.0633 9.37583 13.0023 9.36367 12.9453 9.34004C12.8884 9.31641 12.8367 9.28177 12.7931 9.23812L12.1875 8.63156L11.5819 9.23812C11.5383 9.28177 11.4866 9.31641 11.4297 9.34004C11.3727 9.36367 11.3117 9.37583 11.25 9.37583C11.1883 9.37583 11.1273 9.36367 11.0703 9.34004C11.0134 9.31641 10.9617 9.28177 10.9181 9.23812L10.3125 8.63156L9.70687 9.23812C9.66333 9.28177 9.6116 9.31641 9.55466 9.34004C9.49771 9.36367 9.43666 9.37583 9.375 9.37583C9.31334 9.37583 9.25229 9.36367 9.19534 9.34004C9.1384 9.31641 9.08667 9.28177 9.04313 9.23812L8.4375 8.63156L7.83187 9.23812C7.78826 9.28162 7.7365 9.3161 7.67956 9.33959C7.62261 9.36307 7.5616 9.37511 7.5 9.375H6.99844C6.58587 10.0903 5.94873 10.6495 5.18589 10.9657C4.42306 11.2819 3.57718 11.3374 2.77954 11.1237C1.9819 10.91 1.2771 10.439 0.774515 9.78378C0.271934 9.12856 -0.000321226 8.32577 2.84431e-07 7.5ZM3.75 4.6875C3.24669 4.68769 2.75266 4.82293 2.31944 5.07913C1.88622 5.33532 1.52968 5.70308 1.28703 6.14402C1.04437 6.58497 0.924487 7.08296 0.939883 7.58603C0.955279 8.0891 1.10539 8.57882 1.37455 9.0041C1.64372 9.42939 2.02208 9.77465 2.47015 10.0039C2.91823 10.2331 3.41961 10.3379 3.92198 10.3073C4.42436 10.2767 4.90932 10.1119 5.32628 9.82999C5.74324 9.5481 6.07692 9.15948 6.2925 8.70468C6.33056 8.62477 6.39047 8.55727 6.46529 8.50999C6.54012 8.4627 6.6268 8.43757 6.71531 8.4375H7.30594L8.10563 7.63687C8.14917 7.59322 8.2009 7.55859 8.25784 7.53495C8.31479 7.51132 8.37584 7.49916 8.4375 7.49916C8.49916 7.49916 8.56021 7.51132 8.61716 7.53495C8.6741 7.55859 8.72583 7.59322 8.76937 7.63687L9.375 8.24343L9.98063 7.63687C10.0242 7.59322 10.0759 7.55859 10.1328 7.53495C10.1898 7.51132 10.2508 7.49916 10.3125 7.49916C10.3742 7.49916 10.4352 7.51132 10.4922 7.53495C10.5491 7.55859 10.6008 7.59322 10.6444 7.63687L11.25 8.24343L11.8556 7.63687C11.8992 7.59322 11.9509 7.55859 12.0078 7.53495C12.0648 7.51132 12.1258 7.49916 12.1875 7.49916C12.2492 7.49916 12.3102 7.51132 12.3672 7.53495C12.4241 7.55859 12.4758 7.59322 12.5194 7.63687L13.125 8.24343L13.8684 7.5L12.9309 6.5625H6.71531C6.6268 6.56242 6.54012 6.53729 6.46529 6.49001C6.39047 6.44272 6.33056 6.37522 6.2925 6.29531C6.0644 5.8141 5.70436 5.40754 5.25427 5.12291C4.80418 4.83829 4.28254 4.68729 3.75 4.6875Z" fill="#135790"/>
<path d="M3.75 7.5C3.75 7.74864 3.65123 7.98709 3.47541 8.16291C3.2996 8.33872 3.06114 8.4375 2.8125 8.4375C2.56386 8.4375 2.3254 8.33872 2.14959 8.16291C1.97377 7.98709 1.875 7.74864 1.875 7.5C1.875 7.25136 1.97377 7.0129 2.14959 6.83708C2.3254 6.66127 2.56386 6.5625 2.8125 6.5625C3.06114 6.5625 3.2996 6.66127 3.47541 6.83708C3.65123 7.0129 3.75 7.25136 3.75 7.5Z" fill="#135790"/>
</g>
<defs>
<clipPath id="clip0_583_5052">
<rect width="15" height="15" fill="white"/>
</clipPath>
</defs>
</svg>
