<svg width="45" height="46" viewBox="0 0 45 46" fill="none" xmlns="http://www.w3.org/2000/svg">
<path d="M43.9973 11.294L43.7757 16.4347L43.4523 29.8253C43.4421 30.2127 43.409 30.595 43.3529 30.9696C43.1798 32.1242 42.7901 33.2252 42.2018 34.2243C41.7663 34.9634 41.2264 35.6439 40.5872 36.2505C40.5592 36.2785 40.5286 36.304 40.5006 36.332C40.0193 36.778 39.4972 37.168 38.9471 37.5019C38.3716 37.8459 37.7603 38.1314 37.1262 38.348C36.6016 38.5264 36.0591 38.659 35.5065 38.7456C34.9284 38.8348 34.3375 38.873 33.7391 38.8552H33.6779L32.0633 38.8909L16.2201 39.2171L15.5987 39.2324C15.2804 39.24 15.0104 39.0005 14.9773 38.6844L14.8449 37.4585L14.6972 35.0602C14.4654 31.2908 15.8178 27.6029 18.5046 24.6796C18.7898 24.3661 19.2991 24.3228 19.6404 24.5776C19.9791 24.835 20.0224 25.2963 19.7372 25.6073C17.3152 28.2426 16.0979 31.566 16.3067 34.9608L16.4213 36.8392C16.4417 37.1654 16.7168 37.4203 17.0453 37.4127L18.3798 37.3872L19.8339 37.3566L21.7236 37.3184L23.3382 37.2852L25.1642 37.247L26.7763 37.2139L28.6023 37.1756L30.2169 37.1425L32.0455 37.1068L33.6576 37.0737H33.7442L33.7671 37.0711C34.3503 37.0864 34.9233 37.0405 35.4785 36.9361C36.026 36.8341 36.5583 36.6735 37.0651 36.4595C37.6941 36.1944 38.2875 35.8452 38.83 35.4145C39.0133 35.2718 39.1916 35.1189 39.3622 34.9557C39.7315 34.604 40.06 34.2217 40.3453 33.8165C40.9921 32.8939 41.4174 31.8413 41.5881 30.7275C41.6364 30.4166 41.6645 30.1031 41.6721 29.7845L41.7867 24.9931L41.8351 22.9745L41.9039 20.1684L41.9293 19.1057L41.9752 17.1432L42.0159 15.484L42.0618 13.4884C42.0618 13.4884 41.8784 13.4808 41.7485 13.4629C41.6186 13.4451 41.4709 13.3839 41.3487 13.3329C40.5337 13.0016 39.6933 12.7085 38.8452 12.4588C38.4225 12.3364 38.1958 11.9235 38.3384 11.5387C38.4785 11.1538 38.9344 10.9423 39.3571 11.0672C40.2587 11.3323 41.1551 11.6432 42.021 11.9975C42.0465 12.0076 42.0719 12.0204 42.0974 12.0357C42.0974 12.0357 42.0974 11.9567 42.1025 11.8445L42.2146 11.2507C42.3139 7.10403 38.9267 3.63021 34.6661 3.50788L12.9451 2.78406C6.96789 2.78916 3.7361 7.09384 3.63423 11.3475L2.804 40.8788C2.77853 41.2407 2.77089 41.8142 2.81928 42.3265C2.84984 42.6425 3.25731 42.7546 3.44577 42.4998C3.74119 42.0971 4.13339 41.4803 4.61726 40.5348C4.68093 40.415 4.73951 40.2875 4.80063 40.1525C5.24885 39.1865 5.99249 37.5732 8.32529 37.6089L10.2048 37.535C10.5409 37.5248 10.8211 37.7899 10.8338 38.1263L10.8516 38.6844C10.8644 39.0234 10.597 39.3063 10.2583 39.3165L8.32529 39.3955H8.30747C7.18946 39.3751 6.87111 39.9231 6.4178 40.9018C6.34649 41.0598 6.27518 41.2102 6.20387 41.3529C4.57397 44.5209 3.55019 45 2.8371 45C2.80654 45 2.77853 45 2.74797 45C2.38379 44.9796 1.71145 44.7936 1.31671 43.7741C0.906686 42.7062 1.00346 41.0521 1.02638 40.7667L1.85152 11.3068C1.91519 8.69694 2.995 6.1228 4.81845 4.24699C6.25735 2.76367 8.83719 1 12.9552 1H12.9883L34.7195 1.72382C39.9582 1.87674 44.1221 6.16867 43.9973 11.294Z" fill="url(#paint0_linear_993_1784)"/>
<path d="M33.6576 37.0737L32.0455 37.1068L31.8545 34.0051C31.8265 33.5489 31.3935 33.2023 30.8918 33.2329C30.3901 33.2634 30.003 33.661 30.031 34.1172L30.2093 37.0049C30.2118 37.0507 30.2144 37.0966 30.2169 37.1425L28.6023 37.1756C28.6023 37.1527 28.6023 37.1272 28.6023 37.1043L28.424 34.2166C28.3476 32.9551 29.4147 31.8591 30.8052 31.7725C32.1932 31.6884 33.3876 32.6441 33.464 33.9057L33.6601 37.0737H33.6576Z" fill="url(#paint1_linear_993_1784)"/>
<path d="M37.0651 36.4595C36.5583 36.6735 36.026 36.8341 35.4785 36.9361L35.2849 33.7936C35.1525 31.6196 33.0947 29.9706 30.7008 30.1184C28.3069 30.2662 26.4656 32.1548 26.6006 34.3288L26.7763 37.2139L25.1642 37.247L24.9911 34.4256C24.8077 31.4488 27.329 28.8594 30.6117 28.658C33.8919 28.4567 36.7111 30.7148 36.8944 33.6942L37.0651 36.4595Z" fill="url(#paint2_linear_993_1784)"/>
<path d="M40.3453 33.8165C40.06 34.2217 39.7315 34.604 39.3622 34.9557C39.1916 35.1189 39.0133 35.2718 38.83 35.4145L38.7179 33.582C38.4785 29.6902 34.7959 26.7414 30.5098 27.0039C26.2237 27.2665 22.9308 30.6485 23.1676 34.5378L23.3382 37.2852L21.7236 37.3184L21.5606 34.6372C21.2728 29.9425 25.2457 25.8621 30.4207 25.5436C35.5931 25.225 40.0371 28.788 40.3249 33.4826L40.3453 33.8165Z" fill="url(#paint3_linear_993_1784)"/>
<path d="M18.1302 34.8487C18.1557 35.2514 18.5351 35.5572 18.9782 35.5292C19.4214 35.5012 19.7626 35.152 19.7372 34.7493C19.5869 32.2899 20.4248 29.8559 22.0954 27.8934C23.7508 25.9488 26.104 24.598 28.722 24.0908C29.1575 24.0067 29.4402 23.6168 29.3536 23.2217C29.267 22.8267 28.8417 22.5744 28.4062 22.6585C25.4113 23.237 22.7194 24.7815 20.8272 27.0039C18.9146 29.2493 17.957 32.035 18.1302 34.8462V34.8487Z" fill="url(#paint4_linear_993_1784)"/>
<path d="M19.8339 37.3566L18.3798 37.3872C18.4995 37.1501 18.7592 36.9768 19.0648 36.9564C19.3985 36.9386 19.6964 37.1043 19.8339 37.3566Z" fill="url(#paint5_linear_993_1784)"/>
<path d="M41.723 27.6284L41.6721 29.7845C41.6645 30.1031 41.6364 30.4166 41.5881 30.7275C40.9106 28.895 39.6602 27.2563 37.9615 26.0354C37.6152 25.7857 37.5591 25.3269 37.8367 25.0083C38.1169 24.6898 38.6237 24.6337 38.97 24.8835C40.0575 25.6659 40.9845 26.5936 41.723 27.6284Z" fill="url(#paint6_linear_993_1784)"/>
<path d="M35.178 24.5751C35.2926 24.6159 35.4123 24.6311 35.5269 24.626C35.8274 24.6082 36.1075 24.4349 36.2272 24.1647C36.3953 23.7901 36.1992 23.3645 35.7866 23.2141C34.5973 22.7834 33.3443 22.5234 32.0633 22.4342C31.6202 22.4036 31.2305 22.7069 31.1898 23.1096C31.149 23.5123 31.4801 23.864 31.9232 23.8946C33.0413 23.971 34.1363 24.2004 35.1754 24.5751H35.178Z" fill="url(#paint7_linear_993_1784)"/>
<path d="M41.8351 22.9745L41.7867 24.9931C38.9191 22.1589 34.7068 20.4921 30.1278 20.775C29.8553 20.7903 29.5803 20.8158 29.3129 20.8438C28.8697 20.8948 28.4724 20.6094 28.4215 20.2092C28.3731 19.8065 28.6915 19.4421 29.1346 19.3937C29.4325 19.358 29.7356 19.3325 30.0361 19.3146C34.5413 19.0368 38.7255 20.459 41.8351 22.9745Z" fill="url(#paint8_linear_993_1784)"/>
<path d="M21.4868 23.8156C21.6321 23.8156 21.8091 23.7555 21.9375 23.6576C22.9455 22.8886 24.6549 22.0086 26.1906 21.5141C26.6108 21.3791 26.8349 20.9585 26.6923 20.5788C26.5497 20.199 26.0887 20.0002 25.6685 20.1353C23.9622 20.6858 22.373 21.4861 20.9469 22.5158C20.6643 22.7197 20.5647 23.195 20.8093 23.5454C20.9147 23.6963 21.2346 23.8334 21.4893 23.8181L21.4868 23.8156Z" fill="url(#paint9_linear_993_1784)"/>
<path d="M41.9293 19.1057L41.9039 20.1684C41.7663 20.2831 41.5881 20.3519 41.4072 20.3621C41.2417 20.3723 41.0685 20.3341 40.9183 20.2449C39.3444 19.3146 37.6305 18.6189 35.8248 18.1779C35.397 18.0734 35.1474 17.6733 35.2671 17.2808C35.3868 16.8909 35.8325 16.6589 36.2603 16.7634C38.2289 17.2451 40.0957 18.0046 41.8096 19.0165C41.8529 19.0419 41.8937 19.0725 41.9293 19.1057Z" fill="url(#paint10_linear_993_1784)"/>
<path d="M17.7202 22.9949C20.9214 19.8422 25.261 17.9486 29.9368 17.6606C30.8052 17.607 31.6813 17.6096 32.5421 17.6708C32.9852 17.7013 33.3749 17.4006 33.4156 16.9954C33.4538 16.5927 33.1278 16.241 32.6847 16.2104C31.7475 16.1467 30.7925 16.1416 29.8502 16.2002C24.7593 16.5137 20.0326 18.5755 16.5461 22.0086C13.0698 25.4314 11.1853 29.8533 11.2413 34.4588C11.2464 34.864 11.6106 35.1826 12.0562 35.1724C12.069 35.1724 12.0817 35.1724 12.0919 35.1724C12.5197 35.1469 12.8559 34.8181 12.8508 34.4256C12.7999 30.1974 14.5317 26.1374 17.7227 22.9949H17.7202Z" fill="url(#paint11_linear_993_1784)"/>
<path d="M42.0159 15.484L41.9752 17.1432C38.3206 15.1858 34.1032 14.2759 29.7432 14.5436C28.0701 14.6481 26.4147 14.9259 24.8204 15.3719C24.3951 15.4917 23.9469 15.275 23.8196 14.8902C23.6922 14.5028 23.9367 14.095 24.362 13.9752C26.076 13.4935 27.8561 13.1953 29.6541 13.0857C32.8503 12.8869 35.9827 13.282 38.9675 14.2556C40.0218 14.5996 41.038 15.01 42.0159 15.484Z" fill="url(#paint12_linear_993_1784)"/>
<path d="M12.1479 23.288C12.3007 23.3823 12.479 23.4231 12.6522 23.4129C12.8916 23.3976 13.1208 23.288 13.2685 23.0943C15.3975 20.2959 18.2855 18.025 21.6243 16.529C22.0241 16.348 22.1948 15.9096 22.0012 15.5477C21.8077 15.1858 21.3263 15.038 20.9265 15.2164C17.3407 16.8246 14.2362 19.2637 11.9467 22.2685C11.6921 22.6024 11.7812 23.0586 12.1479 23.2854V23.288Z" fill="url(#paint13_linear_993_1784)"/>
<path d="M18.5453 14.4263C18.6624 14.4187 18.7862 14.3848 18.8891 14.332C22.1846 12.6397 25.7729 11.6636 29.5548 11.4317C31.526 11.3093 33.5022 11.4011 35.4275 11.6993C35.8656 11.7655 36.2858 11.4979 36.3647 11.1003C36.4437 10.7027 36.1534 10.323 35.7179 10.2567C33.6678 9.93814 31.5642 9.84384 29.4682 9.97382C25.4418 10.221 21.6217 11.2609 18.1124 13.0628C17.7227 13.2616 17.5826 13.7101 17.7966 14.0619C17.9519 14.3142 18.2473 14.4493 18.5478 14.4289L18.5453 14.4263Z" fill="url(#paint14_linear_993_1784)"/>
<path d="M18.3798 37.3872L17.0453 37.4127C16.7168 37.4203 16.4417 37.1654 16.4213 36.8392L16.3067 34.9608C16.0979 31.566 17.3152 28.2426 19.7372 25.6073C20.0224 25.2963 19.9791 24.835 19.6404 24.5776C19.2991 24.3228 18.7898 24.3661 18.5046 24.6796C15.8178 27.6029 14.4654 31.2908 14.6972 35.0602L14.8449 37.4585L14.9773 38.6844C15.0104 39.0005 15.2804 39.24 15.5987 39.2324L16.2201 39.2171L32.0633 38.8909L33.6779 38.8552H33.7391C34.3375 38.873 34.9284 38.8348 35.5065 38.7456C36.0591 38.6589 36.6016 38.5264 37.1262 38.348C37.7603 38.1314 38.3716 37.8459 38.9471 37.5019C39.4972 37.168 40.0193 36.778 40.5006 36.332C40.5286 36.304 40.5592 36.2785 40.5872 36.2505C41.2264 35.6439 41.7663 34.9634 42.2018 34.2243C42.7901 33.2252 43.1798 32.1242 43.3529 30.9696C43.409 30.595 43.4421 30.2127 43.4523 29.8253L43.7757 16.4347L43.9973 11.294C44.1221 6.16867 39.9582 1.87674 34.7195 1.72382L12.9883 1H12.9552C8.83719 1 6.25735 2.76367 4.81845 4.24699C2.995 6.1228 1.91519 8.69694 1.85152 11.3068L1.02638 40.7667C1.00346 41.0521 0.906686 42.7062 1.31671 43.7741C1.71145 44.7936 2.38379 44.9796 2.74797 45C2.77853 45 2.80654 45 2.8371 45C3.55019 45 4.57397 44.5209 6.20387 41.3529C6.27518 41.2102 6.34649 41.0598 6.4178 40.9018C6.87111 39.9231 7.18946 39.3751 8.30747 39.3955H8.32529L10.2583 39.3165C10.597 39.3063 10.8644 39.0234 10.8516 38.6844L10.8338 38.1263C10.8211 37.7899 10.5409 37.5248 10.2048 37.535L8.32529 37.6089C5.99249 37.5732 5.24885 39.1865 4.80063 40.1525C4.73951 40.2875 4.68093 40.415 4.61726 40.5348C4.13339 41.4803 3.74119 42.0971 3.44577 42.4998C3.25731 42.7546 2.84984 42.6425 2.81928 42.3265C2.77089 41.8142 2.77853 41.2407 2.804 40.8788L3.63423 11.3475C3.7361 7.09384 6.96789 2.78916 12.9451 2.78406L34.6661 3.50788C38.9267 3.63021 42.3139 7.10403 42.2146 11.2507L42.1025 11.8445C42.0974 11.9567 42.0974 12.0357 42.0974 12.0357C42.0719 12.0204 42.0465 12.0076 42.021 11.9975C41.1551 11.6432 40.2587 11.3323 39.3571 11.0672C38.9344 10.9423 38.4785 11.1538 38.3384 11.5387C38.1958 11.9235 38.4225 12.3364 38.8452 12.4588C39.6933 12.7085 40.5337 13.0016 41.3487 13.3329C41.4709 13.3839 41.6186 13.4451 41.7485 13.4629C41.8784 13.4808 42.0618 13.4884 42.0618 13.4884L42.0159 15.484M18.3798 37.3872L19.8339 37.3566M18.3798 37.3872C18.4995 37.1501 18.7592 36.9768 19.0648 36.9564C19.3985 36.9386 19.6964 37.1043 19.8339 37.3566M19.8339 37.3566L21.7236 37.3184M21.7236 37.3184L23.3382 37.2852M21.7236 37.3184L21.5606 34.6372C21.2728 29.9425 25.2457 25.8621 30.4207 25.5436C35.5931 25.225 40.0371 28.788 40.3249 33.4826L40.3453 33.8165M23.3382 37.2852L25.1642 37.247M23.3382 37.2852L23.1676 34.5378C22.9308 30.6485 26.2237 27.2665 30.5098 27.0039C34.7959 26.7414 38.4785 29.6902 38.7179 33.582L38.83 35.4145M25.1642 37.247L26.7763 37.2139M25.1642 37.247L24.9911 34.4256C24.8077 31.4488 27.329 28.8594 30.6117 28.658C33.8919 28.4567 36.7111 30.7148 36.8944 33.6942L37.0651 36.4595M26.7763 37.2139L28.6023 37.1756M26.7763 37.2139L26.6006 34.3288C26.4656 32.1548 28.3069 30.2662 30.7008 30.1184C33.0947 29.9706 35.1525 31.6196 35.2849 33.7936L35.4785 36.9361M28.6023 37.1756L30.2169 37.1425M28.6023 37.1756C28.6023 37.1527 28.6023 37.1272 28.6023 37.1043L28.424 34.2166C28.3476 32.9551 29.4147 31.8591 30.8052 31.7725C32.1932 31.6884 33.3876 32.6441 33.464 33.9057L33.6601 37.0737L33.6576 37.0737M30.2169 37.1425L32.0455 37.1068M30.2169 37.1425C30.2144 37.0966 30.2118 37.0507 30.2093 37.0049L30.031 34.1172C30.003 33.661 30.3901 33.2634 30.8918 33.2329C31.3935 33.2023 31.8265 33.5489 31.8545 34.0051L32.0455 37.1068M32.0455 37.1068L33.6576 37.0737M33.6576 37.0737H33.7442L33.7671 37.0711C34.3503 37.0864 34.9233 37.0405 35.4785 36.9361M35.4785 36.9361C36.026 36.8341 36.5583 36.6735 37.0651 36.4595M37.0651 36.4595C37.6941 36.1944 38.2875 35.8452 38.83 35.4145M38.83 35.4145C39.0133 35.2718 39.1916 35.1189 39.3622 34.9557C39.7315 34.604 40.06 34.2217 40.3453 33.8165M40.3453 33.8165C40.9921 32.8939 41.4174 31.8413 41.5881 30.7275M41.5881 30.7275C41.6364 30.4166 41.6645 30.1031 41.6721 29.7845M41.5881 30.7275C40.9106 28.895 39.6602 27.2563 37.9615 26.0354C37.6152 25.7857 37.5591 25.3269 37.8367 25.0083C38.1169 24.6898 38.6237 24.6337 38.97 24.8835C40.0575 25.6659 40.9845 26.5936 41.723 27.6284L41.6721 29.7845M41.6721 29.7845L41.7867 24.9931M41.7867 24.9931L41.8351 22.9745M41.7867 24.9931C38.9191 22.1589 34.7068 20.4921 30.1278 20.775C29.8553 20.7903 29.5803 20.8158 29.3129 20.8438C28.8697 20.8948 28.4724 20.6094 28.4215 20.2092C28.3731 19.8065 28.6914 19.4421 29.1346 19.3936C29.4325 19.358 29.7356 19.3325 30.0361 19.3146C34.5413 19.0368 38.7255 20.459 41.8351 22.9745M41.8351 22.9745L41.9039 20.1684M41.9039 20.1684L41.9293 19.1057M41.9039 20.1684C41.7663 20.2831 41.5881 20.3519 41.4072 20.3621C41.2417 20.3723 41.0685 20.3341 40.9183 20.2449C39.3444 19.3146 37.6305 18.6189 35.8248 18.1779C35.397 18.0734 35.1474 17.6733 35.2671 17.2808C35.3868 16.8909 35.8325 16.6589 36.2603 16.7634C38.2289 17.2451 40.0957 18.0046 41.8096 19.0165C41.8529 19.0419 41.8937 19.0725 41.9293 19.1057M41.9293 19.1057L41.9752 17.1432M41.9752 17.1432L42.0159 15.484M41.9752 17.1432C38.3206 15.1858 34.1032 14.2759 29.7432 14.5436C28.0701 14.6481 26.4147 14.9259 24.8204 15.3719C24.3951 15.4917 23.9469 15.275 23.8196 14.8902C23.6922 14.5028 23.9367 14.095 24.362 13.9752C26.076 13.4935 27.8561 13.1953 29.6541 13.0857C32.8503 12.8869 35.9827 13.282 38.9675 14.2556C40.0218 14.5996 41.038 15.01 42.0159 15.484M18.1302 34.8487C18.1557 35.2514 18.5351 35.5572 18.9782 35.5292C19.4214 35.5012 19.7626 35.152 19.7372 34.7493C19.5869 32.2899 20.4248 29.8559 22.0954 27.8934C23.7508 25.9488 26.104 24.598 28.722 24.0908C29.1575 24.0067 29.4402 23.6168 29.3536 23.2217C29.267 22.8267 28.8417 22.5744 28.4062 22.6585C25.4113 23.237 22.7194 24.7815 20.8272 27.0039C18.9146 29.2493 17.957 32.035 18.1302 34.8462V34.8487ZM35.178 24.5751C35.2926 24.6159 35.4123 24.6311 35.5269 24.626C35.8274 24.6082 36.1075 24.4349 36.2272 24.1647C36.3953 23.7901 36.1992 23.3645 35.7866 23.2141C34.5973 22.7834 33.3443 22.5234 32.0633 22.4342C31.6202 22.4036 31.2305 22.7069 31.1898 23.1096C31.149 23.5123 31.4801 23.864 31.9232 23.8946C33.0413 23.971 34.1363 24.2004 35.1754 24.5751H35.178ZM21.4868 23.8156C21.6321 23.8156 21.8091 23.7555 21.9375 23.6576C22.9455 22.8886 24.6549 22.0086 26.1906 21.5141C26.6108 21.3791 26.8349 20.9585 26.6923 20.5788C26.5497 20.199 26.0887 20.0002 25.6685 20.1353C23.9622 20.6858 22.373 21.4861 20.9469 22.5158C20.6643 22.7197 20.5647 23.195 20.8093 23.5454C20.9147 23.6963 21.2346 23.8334 21.4893 23.8181L21.4868 23.8156ZM17.7202 22.9949C20.9214 19.8422 25.261 17.9486 29.9368 17.6606C30.8052 17.607 31.6813 17.6096 32.5421 17.6708C32.9852 17.7013 33.3749 17.4006 33.4156 16.9954C33.4538 16.5927 33.1278 16.241 32.6847 16.2104C31.7475 16.1467 30.7925 16.1416 29.8502 16.2002C24.7593 16.5137 20.0326 18.5755 16.5461 22.0086C13.0698 25.4314 11.1853 29.8533 11.2413 34.4588C11.2464 34.864 11.6106 35.1826 12.0562 35.1724C12.069 35.1724 12.0817 35.1724 12.0919 35.1724C12.5198 35.1469 12.8559 34.8181 12.8508 34.4256C12.7999 30.1974 14.5317 26.1374 17.7227 22.9949H17.7202ZM12.1479 23.288C12.3007 23.3823 12.479 23.4231 12.6522 23.4129C12.8916 23.3976 13.1208 23.288 13.2685 23.0943C15.3975 20.2959 18.2855 18.025 21.6243 16.529C22.0241 16.348 22.1948 15.9096 22.0012 15.5477C21.8077 15.1858 21.3263 15.038 20.9265 15.2164C17.3407 16.8246 14.2362 19.2637 11.9467 22.2685C11.6921 22.6024 11.7812 23.0586 12.1479 23.2854V23.288ZM18.5453 14.4263C18.6624 14.4187 18.7862 14.3848 18.8891 14.332C22.1846 12.6397 25.7729 11.6636 29.5548 11.4317C31.526 11.3093 33.5022 11.4011 35.4275 11.6993C35.8656 11.7655 36.2858 11.4979 36.3647 11.1003C36.4437 10.7027 36.1534 10.323 35.7179 10.2567C33.6678 9.93814 31.5642 9.84384 29.4682 9.97382C25.4418 10.221 21.6217 11.2609 18.1124 13.0628C17.7227 13.2616 17.5826 13.7101 17.7966 14.0619C17.9519 14.3142 18.2473 14.4493 18.5478 14.4289L18.5453 14.4263Z" stroke="url(#paint15_linear_993_1784)" stroke-miterlimit="10"/>
<defs>
<linearGradient id="paint0_linear_993_1784" x1="44" y1="23" x2="4.4998" y2="34.7577" gradientUnits="userSpaceOnUse">
<stop offset="0.239583" stop-color="#4190D2"/>
<stop offset="0.682292" stop-color="#6EC1ED"/>
<stop offset="0.979167" stop-color="#5DD1B1"/>
</linearGradient>
<linearGradient id="paint1_linear_993_1784" x1="44" y1="23" x2="4.4998" y2="34.7577" gradientUnits="userSpaceOnUse">
<stop offset="0.239583" stop-color="#4190D2"/>
<stop offset="0.682292" stop-color="#6EC1ED"/>
<stop offset="0.979167" stop-color="#5DD1B1"/>
</linearGradient>
<linearGradient id="paint2_linear_993_1784" x1="44" y1="23" x2="4.4998" y2="34.7577" gradientUnits="userSpaceOnUse">
<stop offset="0.239583" stop-color="#4190D2"/>
<stop offset="0.682292" stop-color="#6EC1ED"/>
<stop offset="0.979167" stop-color="#5DD1B1"/>
</linearGradient>
<linearGradient id="paint3_linear_993_1784" x1="44" y1="23" x2="4.4998" y2="34.7577" gradientUnits="userSpaceOnUse">
<stop offset="0.239583" stop-color="#4190D2"/>
<stop offset="0.682292" stop-color="#6EC1ED"/>
<stop offset="0.979167" stop-color="#5DD1B1"/>
</linearGradient>
<linearGradient id="paint4_linear_993_1784" x1="44" y1="23" x2="4.4998" y2="34.7577" gradientUnits="userSpaceOnUse">
<stop offset="0.239583" stop-color="#4190D2"/>
<stop offset="0.682292" stop-color="#6EC1ED"/>
<stop offset="0.979167" stop-color="#5DD1B1"/>
</linearGradient>
<linearGradient id="paint5_linear_993_1784" x1="44" y1="23" x2="4.4998" y2="34.7577" gradientUnits="userSpaceOnUse">
<stop offset="0.239583" stop-color="#4190D2"/>
<stop offset="0.682292" stop-color="#6EC1ED"/>
<stop offset="0.979167" stop-color="#5DD1B1"/>
</linearGradient>
<linearGradient id="paint6_linear_993_1784" x1="44" y1="23" x2="4.4998" y2="34.7577" gradientUnits="userSpaceOnUse">
<stop offset="0.239583" stop-color="#4190D2"/>
<stop offset="0.682292" stop-color="#6EC1ED"/>
<stop offset="0.979167" stop-color="#5DD1B1"/>
</linearGradient>
<linearGradient id="paint7_linear_993_1784" x1="44" y1="23" x2="4.4998" y2="34.7577" gradientUnits="userSpaceOnUse">
<stop offset="0.239583" stop-color="#4190D2"/>
<stop offset="0.682292" stop-color="#6EC1ED"/>
<stop offset="0.979167" stop-color="#5DD1B1"/>
</linearGradient>
<linearGradient id="paint8_linear_993_1784" x1="44" y1="23" x2="4.4998" y2="34.7577" gradientUnits="userSpaceOnUse">
<stop offset="0.239583" stop-color="#4190D2"/>
<stop offset="0.682292" stop-color="#6EC1ED"/>
<stop offset="0.979167" stop-color="#5DD1B1"/>
</linearGradient>
<linearGradient id="paint9_linear_993_1784" x1="44" y1="23" x2="4.4998" y2="34.7577" gradientUnits="userSpaceOnUse">
<stop offset="0.239583" stop-color="#4190D2"/>
<stop offset="0.682292" stop-color="#6EC1ED"/>
<stop offset="0.979167" stop-color="#5DD1B1"/>
</linearGradient>
<linearGradient id="paint10_linear_993_1784" x1="44" y1="23" x2="4.4998" y2="34.7577" gradientUnits="userSpaceOnUse">
<stop offset="0.239583" stop-color="#4190D2"/>
<stop offset="0.682292" stop-color="#6EC1ED"/>
<stop offset="0.979167" stop-color="#5DD1B1"/>
</linearGradient>
<linearGradient id="paint11_linear_993_1784" x1="44" y1="23" x2="4.4998" y2="34.7577" gradientUnits="userSpaceOnUse">
<stop offset="0.239583" stop-color="#4190D2"/>
<stop offset="0.682292" stop-color="#6EC1ED"/>
<stop offset="0.979167" stop-color="#5DD1B1"/>
</linearGradient>
<linearGradient id="paint12_linear_993_1784" x1="44" y1="23" x2="4.4998" y2="34.7577" gradientUnits="userSpaceOnUse">
<stop offset="0.239583" stop-color="#4190D2"/>
<stop offset="0.682292" stop-color="#6EC1ED"/>
<stop offset="0.979167" stop-color="#5DD1B1"/>
</linearGradient>
<linearGradient id="paint13_linear_993_1784" x1="44" y1="23" x2="4.4998" y2="34.7577" gradientUnits="userSpaceOnUse">
<stop offset="0.239583" stop-color="#4190D2"/>
<stop offset="0.682292" stop-color="#6EC1ED"/>
<stop offset="0.979167" stop-color="#5DD1B1"/>
</linearGradient>
<linearGradient id="paint14_linear_993_1784" x1="44" y1="23" x2="4.4998" y2="34.7577" gradientUnits="userSpaceOnUse">
<stop offset="0.239583" stop-color="#4190D2"/>
<stop offset="0.682292" stop-color="#6EC1ED"/>
<stop offset="0.979167" stop-color="#5DD1B1"/>
</linearGradient>
<linearGradient id="paint15_linear_993_1784" x1="44" y1="23" x2="4.4998" y2="34.7577" gradientUnits="userSpaceOnUse">
<stop offset="0.239583" stop-color="#4190D2"/>
<stop offset="0.682292" stop-color="#6EC1ED"/>
<stop offset="0.979167" stop-color="#5DD1B1"/>
</linearGradient>
</defs>
</svg>
