<svg width="15" height="15" viewBox="0 0 15 15" fill="none" xmlns="http://www.w3.org/2000/svg">
<g clip-path="url(#clip0_583_5055)">
<path d="M7.96875 9.37502C7.71 9.37502 7.5 8.95502 7.5 8.43752C7.5 7.92002 7.71 7.50002 7.96875 7.50002C8.2275 7.50002 8.4375 7.92002 8.4375 8.43752C8.4375 8.95502 8.2275 9.37502 7.96875 9.37502Z" fill="#135790"/>
<path d="M10.1512 0.114396C10.202 0.158461 10.2426 0.212909 10.2704 0.27405C10.2982 0.335191 10.3126 0.401598 10.3125 0.468771V0.937521H10.7812C11.1542 0.937521 11.5119 1.08568 11.7756 1.3494C12.0393 1.61312 12.1875 1.97081 12.1875 2.34377V14.0625H13.5938C13.7181 14.0625 13.8373 14.1119 13.9252 14.1998C14.0131 14.2877 14.0625 14.4069 14.0625 14.5313C14.0625 14.6556 14.0131 14.7748 13.9252 14.8627C13.8373 14.9506 13.7181 15 13.5938 15H1.40625C1.28193 15 1.1627 14.9506 1.07479 14.8627C0.986886 14.7748 0.9375 14.6556 0.9375 14.5313C0.9375 14.4069 0.986886 14.2877 1.07479 14.1998C1.1627 14.1119 1.28193 14.0625 1.40625 14.0625H2.8125V1.40627C2.81252 1.29333 2.85331 1.1842 2.92737 1.09894C3.00144 1.01367 3.1038 0.95802 3.21563 0.942208L9.77813 0.00470826C9.84455 -0.00477741 9.91223 0.000106349 9.9766 0.0190295C10.041 0.0379526 10.1005 0.070474 10.1512 0.114396ZM10.7812 1.87502H10.3125V14.0625H11.25V2.34377C11.25 2.21945 11.2006 2.10022 11.1127 2.01231C11.0248 1.92441 10.9056 1.87502 10.7812 1.87502ZM3.75 1.81315V14.0625H9.375V1.00971L3.75 1.81315Z" fill="#135790"/>
</g>
<defs>
<clipPath id="clip0_583_5055">
<rect width="15" height="15" fill="white"/>
</clipPath>
</defs>
</svg>
