<svg width="98" height="25" viewBox="0 0 98 25" fill="none" xmlns="http://www.w3.org/2000/svg">
<mask id="path-1-outside-1_1076_2629" maskUnits="userSpaceOnUse" x="0" y="0" width="98" height="25" fill="black">
<rect fill="white" width="98" height="25"/>
<path d="M16.3818 13.4112H18.9292V16.0967H6.77545C5.60869 16.0967 4.59102 15.8985 3.72243 15.5021C2.86681 15.0929 2.19917 14.5238 1.7195 13.7948C1.23983 13.0659 1 12.2027 1 11.2052C1 9.70891 1.5769 8.9608 2.73069 8.9608C3.0159 8.9608 3.28814 9.00555 3.54742 9.09507C3.8067 9.1718 4.05302 9.28051 4.28637 9.42118C4.23451 9.6258 4.18914 9.88797 4.15025 10.2077C4.11135 10.5274 4.09191 10.8023 4.09191 11.0325C4.09191 12.6183 5.18736 13.4112 7.37827 13.4112H13.2898V2.36197C13.2898 1.91437 13.4325 1.57548 13.7177 1.34529C14.0029 1.1151 14.4047 1 14.9233 1C15.1826 1 15.4354 1.02557 15.6817 1.07672C15.928 1.12788 16.1614 1.19822 16.3818 1.28774V13.4112ZM6.93102 7.88657H7.94221C7.70886 7.65638 7.59218 7.34946 7.59218 6.96581C7.59218 6.51821 7.75423 6.15373 8.07833 5.87239C8.40243 5.59104 8.82376 5.45037 9.34232 5.45037C9.73124 5.45037 10.0424 5.51431 10.2757 5.64219C10.522 5.75729 10.6452 5.91075 10.6452 6.10258C10.6452 6.29441 10.535 6.47984 10.3146 6.65888C10.0035 6.50542 9.73124 6.42869 9.49788 6.42869C8.99229 6.42869 8.73949 6.63331 8.73949 7.04254C8.73949 7.29831 8.83024 7.50291 9.01174 7.65637C9.19323 7.80983 9.44603 7.88657 9.77013 7.88657H10.8397V8.88407H6.93102V7.88657Z"/>
<path d="M24.2843 11.5505C24.2843 12.2666 24.3815 12.759 24.5759 13.0275C24.7704 13.2833 25.1399 13.4112 25.6844 13.4112H26.519V16.0967H25.1593C24.0185 16.0967 23.2277 15.7387 22.7869 15.0225C22.3332 15.7387 21.5035 16.0967 20.2978 16.0967H18.9292V13.4112H19.7728C20.3173 13.4112 20.6868 13.2769 20.8812 13.0083C21.0886 12.7398 21.1924 12.2538 21.1924 11.5505V8.6347C21.1924 7.72672 21.7239 7.27272 22.7869 7.27272C23.0462 7.27272 23.3055 7.2983 23.5648 7.34946C23.824 7.40061 24.0639 7.47094 24.2843 7.56046V11.5505ZM19.8895 5.98749C19.6043 5.69335 19.4617 5.34807 19.4617 4.95162C19.4617 4.55518 19.6043 4.22268 19.8895 3.95412C20.1747 3.67277 20.5182 3.5321 20.9201 3.5321C21.335 3.5321 21.6785 3.67277 21.9507 3.95412C22.2359 4.22268 22.3786 4.55518 22.3786 4.95162C22.3786 5.34807 22.2359 5.69335 21.9507 5.98749C21.6785 6.26883 21.335 6.4095 20.9201 6.4095C20.5182 6.4095 20.1747 6.26883 19.8895 5.98749ZM23.5064 5.98749C23.2342 5.69335 23.0981 5.34807 23.0981 4.95162C23.0981 4.55518 23.2342 4.22268 23.5064 3.95412C23.7916 3.67277 24.1352 3.5321 24.5371 3.5321C24.9519 3.5321 25.3019 3.67277 25.5871 3.95412C25.8723 4.22268 26.0149 4.55518 26.0149 4.95162C26.0149 5.34807 25.8723 5.69335 25.5871 5.98749C25.3019 6.26883 24.9519 6.4095 24.5371 6.4095C24.1352 6.4095 23.7916 6.26883 23.5064 5.98749Z"/>
<path d="M33.4418 16.2886C32.7547 16.2886 32.1259 16.1735 31.5555 15.9433C30.9981 15.7003 30.473 15.3678 29.9804 14.9458C29.2674 15.7131 28.496 16.0967 27.6663 16.0967H26.519V13.4112C27.0505 13.4112 28.0358 13.2705 28.2303 12.9892C28.4377 12.695 28.5414 12.2666 28.5414 11.7039C28.5414 10.7576 28.7553 9.93912 29.1831 9.24855C29.6239 8.55797 30.2138 8.02724 30.9527 7.65637C31.6916 7.27272 32.5278 7.08089 33.4612 7.08089C34.4595 7.08089 35.3151 7.29191 36.0281 7.71393C36.7541 8.12316 37.3115 8.67945 37.7005 9.38281C38.1023 10.0734 38.3033 10.8471 38.3033 11.7039C38.3033 12.2666 38.3875 12.695 38.5561 12.9892C38.7246 13.2705 39.1135 13.4112 39.7228 13.4112H40.3257V16.0967H39.1783C38.6468 16.0967 38.1931 15.9753 37.8171 15.7323C37.4412 15.4765 37.143 15.2271 36.9226 14.9842C36.4818 15.4062 35.9568 15.7323 35.3475 15.9625C34.7382 16.1799 34.1029 16.2886 33.4418 16.2886ZM33.4223 9.68974C32.8779 9.68974 32.4371 9.87516 32.1 10.246C31.7759 10.6169 31.6139 11.0645 31.6139 11.5888C31.6139 12.1131 31.7759 12.5607 32.1 12.9316C32.4371 13.3025 32.8779 13.4879 33.4223 13.4879C33.9668 13.4879 34.4011 13.3025 34.7252 12.9316C35.0623 12.5607 35.2308 12.1131 35.2308 11.5888C35.2308 11.0645 35.0623 10.6169 34.7252 10.246C34.4011 9.87516 33.9668 9.68974 33.4223 9.68974Z"/>
<path d="M42.2642 8.6347C42.2642 8.18711 42.4068 7.84821 42.692 7.61802C42.9772 7.38783 43.3791 7.27272 43.8976 7.27272C44.1569 7.27272 44.4162 7.2983 44.6755 7.34946C44.9348 7.40061 45.1746 7.47094 45.395 7.56046V9.03753C45.8487 8.43647 46.4515 7.96331 47.2035 7.61802C47.9554 7.25994 48.8239 7.08089 49.8092 7.08089C50.9371 7.08089 51.9223 7.31109 52.765 7.77148C53.6206 8.21907 54.2883 8.87129 54.7679 9.72811C55.2476 10.5849 55.4874 11.608 55.4874 12.7973V13.4112H57.7432V16.0967H40.3257V13.4112H42.2642V8.6347ZM52.3566 12.9508C52.3566 10.8791 51.3649 9.8432 49.3814 9.8432C48.6036 9.8432 47.91 10.0031 47.3007 10.3228C46.7043 10.6297 46.2376 11.0517 45.9006 11.5888C45.5635 12.1259 45.395 12.7334 45.395 13.4112H52.3566V12.9508Z"/>
<path d="M62.7891 16.0967H57.7432V13.4112H59.6972V8.6347C59.6972 7.72672 60.2287 7.27272 61.2917 7.27272C61.551 7.27272 61.8103 7.2983 62.0696 7.34946C62.3289 7.40061 62.5687 7.47094 62.7891 7.56046V16.0967ZM59.1138 19.5113C58.8286 19.2171 58.686 18.8846 58.686 18.5138C58.686 18.1429 58.8286 17.8104 59.1138 17.5163C59.412 17.2221 59.775 17.0751 60.2028 17.0751C60.6176 17.0751 60.9676 17.2221 61.2529 17.5163C61.5381 17.8104 61.6807 18.1429 61.6807 18.5138C61.6807 18.8846 61.5381 19.2171 61.2529 19.5113C60.9676 19.8054 60.6176 19.9525 60.2028 19.9525C59.775 19.9525 59.412 19.8054 59.1138 19.5113Z"/>
<path d="M75.0624 24C73.8567 24 72.7937 23.7954 71.8732 23.3862C70.9658 22.9897 70.2527 22.4206 69.7342 21.6789C69.2286 20.95 68.9758 20.0931 68.9758 19.1084C68.9758 18.1237 69.248 17.2221 69.7925 16.4037C70.337 15.5852 71.1991 14.7859 72.3788 14.0058L69.9286 12.1068V9.2869C70.6935 8.59632 71.5815 8.05921 72.5927 7.67556C73.6169 7.27912 74.6605 7.08089 75.7235 7.08089C76.5532 7.08089 77.2792 7.20239 77.9015 7.44537C78.5367 7.67556 79.0294 8.00806 79.3794 8.44287C79.7424 8.87767 79.9239 9.38921 79.9239 9.97748C79.9239 11.1924 79.1849 12.3369 77.707 13.4112H81.8296V16.0967H76.1902C75.6976 16.0967 75.1726 15.9305 74.6151 15.598C73.9021 16.0328 73.3446 16.5316 72.9428 17.0942C72.5538 17.6697 72.3594 18.258 72.3594 18.859C72.3594 19.588 72.6446 20.1571 73.215 20.5663C73.7854 20.9755 74.5373 21.1801 75.4707 21.1801C76.1578 21.1801 76.8514 21.0715 77.5515 20.8541C78.2645 20.6367 78.8738 20.3617 79.3794 20.0292L80.76 22.427C80.3322 22.7339 79.8072 23.0025 79.1849 23.2327C78.5626 23.4757 77.895 23.6611 77.182 23.789C76.469 23.9297 75.7624 24 75.0624 24ZM75.4707 9.47872C75.017 9.47872 74.5244 9.58104 73.9928 9.78566C73.4613 9.97748 72.9622 10.2396 72.4955 10.5721L74.8485 12.4329C75.5356 11.9341 76.0282 11.5185 76.3264 11.186C76.6375 10.8407 76.7931 10.5402 76.7931 10.2844C76.7931 10.0286 76.6699 9.83041 76.4236 9.68974C76.1902 9.54907 75.8726 9.47872 75.4707 9.47872Z"/>
<path d="M83.7767 8.6347C83.7767 8.18711 83.9194 7.84821 84.2046 7.61802C84.4898 7.38783 84.8916 7.27272 85.4102 7.27272C85.6695 7.27272 85.9288 7.2983 86.188 7.34946C86.4473 7.40061 86.6872 7.47094 86.9075 7.56046V9.03753C87.3613 8.43647 87.9641 7.96331 88.716 7.61802C89.4679 7.25994 90.3365 7.08089 91.3218 7.08089C92.4496 7.08089 93.4349 7.31109 94.2776 7.77148C95.1332 8.21907 95.8008 8.87129 96.2805 9.72811C96.7602 10.5849 97 11.608 97 12.7973V16.0967H81.8296V13.4112H83.7767V8.6347ZM93.8692 12.9508C93.8692 10.8791 92.8774 9.8432 90.894 9.8432C90.1161 9.8432 89.4226 10.0031 88.8132 10.3228C88.2169 10.6297 87.7502 11.0517 87.4131 11.5888C87.0761 12.1259 86.9075 12.7334 86.9075 13.4112H93.8692V12.9508ZM90.2523 5.98749C89.98 5.69335 89.8439 5.34807 89.8439 4.95162C89.8439 4.55518 89.98 4.22268 90.2523 3.95412C90.5375 3.67277 90.881 3.5321 91.2829 3.5321C91.6977 3.5321 92.0478 3.67277 92.333 3.95412C92.6182 4.22268 92.7608 4.55518 92.7608 4.95162C92.7608 5.34807 92.6182 5.69335 92.333 5.98749C92.0478 6.26883 91.6977 6.4095 91.2829 6.4095C90.881 6.4095 90.5375 6.26883 90.2523 5.98749Z"/>
</mask>
<path d="M16.3818 13.4112H18.9292V16.0967H6.77545C5.60869 16.0967 4.59102 15.8985 3.72243 15.5021C2.86681 15.0929 2.19917 14.5238 1.7195 13.7948C1.23983 13.0659 1 12.2027 1 11.2052C1 9.70891 1.5769 8.9608 2.73069 8.9608C3.0159 8.9608 3.28814 9.00555 3.54742 9.09507C3.8067 9.1718 4.05302 9.28051 4.28637 9.42118C4.23451 9.6258 4.18914 9.88797 4.15025 10.2077C4.11135 10.5274 4.09191 10.8023 4.09191 11.0325C4.09191 12.6183 5.18736 13.4112 7.37827 13.4112H13.2898V2.36197C13.2898 1.91437 13.4325 1.57548 13.7177 1.34529C14.0029 1.1151 14.4047 1 14.9233 1C15.1826 1 15.4354 1.02557 15.6817 1.07672C15.928 1.12788 16.1614 1.19822 16.3818 1.28774V13.4112ZM6.93102 7.88657H7.94221C7.70886 7.65638 7.59218 7.34946 7.59218 6.96581C7.59218 6.51821 7.75423 6.15373 8.07833 5.87239C8.40243 5.59104 8.82376 5.45037 9.34232 5.45037C9.73124 5.45037 10.0424 5.51431 10.2757 5.64219C10.522 5.75729 10.6452 5.91075 10.6452 6.10258C10.6452 6.29441 10.535 6.47984 10.3146 6.65888C10.0035 6.50542 9.73124 6.42869 9.49788 6.42869C8.99229 6.42869 8.73949 6.63331 8.73949 7.04254C8.73949 7.29831 8.83024 7.50291 9.01174 7.65637C9.19323 7.80983 9.44603 7.88657 9.77013 7.88657H10.8397V8.88407H6.93102V7.88657Z" fill="#135790"/>
<path d="M24.2843 11.5505C24.2843 12.2666 24.3815 12.759 24.5759 13.0275C24.7704 13.2833 25.1399 13.4112 25.6844 13.4112H26.519V16.0967H25.1593C24.0185 16.0967 23.2277 15.7387 22.7869 15.0225C22.3332 15.7387 21.5035 16.0967 20.2978 16.0967H18.9292V13.4112H19.7728C20.3173 13.4112 20.6868 13.2769 20.8812 13.0083C21.0886 12.7398 21.1924 12.2538 21.1924 11.5505V8.6347C21.1924 7.72672 21.7239 7.27272 22.7869 7.27272C23.0462 7.27272 23.3055 7.2983 23.5648 7.34946C23.824 7.40061 24.0639 7.47094 24.2843 7.56046V11.5505ZM19.8895 5.98749C19.6043 5.69335 19.4617 5.34807 19.4617 4.95162C19.4617 4.55518 19.6043 4.22268 19.8895 3.95412C20.1747 3.67277 20.5182 3.5321 20.9201 3.5321C21.335 3.5321 21.6785 3.67277 21.9507 3.95412C22.2359 4.22268 22.3786 4.55518 22.3786 4.95162C22.3786 5.34807 22.2359 5.69335 21.9507 5.98749C21.6785 6.26883 21.335 6.4095 20.9201 6.4095C20.5182 6.4095 20.1747 6.26883 19.8895 5.98749ZM23.5064 5.98749C23.2342 5.69335 23.0981 5.34807 23.0981 4.95162C23.0981 4.55518 23.2342 4.22268 23.5064 3.95412C23.7916 3.67277 24.1352 3.5321 24.5371 3.5321C24.9519 3.5321 25.3019 3.67277 25.5871 3.95412C25.8723 4.22268 26.0149 4.55518 26.0149 4.95162C26.0149 5.34807 25.8723 5.69335 25.5871 5.98749C25.3019 6.26883 24.9519 6.4095 24.5371 6.4095C24.1352 6.4095 23.7916 6.26883 23.5064 5.98749Z" fill="#135790"/>
<path d="M33.4418 16.2886C32.7547 16.2886 32.1259 16.1735 31.5555 15.9433C30.9981 15.7003 30.473 15.3678 29.9804 14.9458C29.2674 15.7131 28.496 16.0967 27.6663 16.0967H26.519V13.4112C27.0505 13.4112 28.0358 13.2705 28.2303 12.9892C28.4377 12.695 28.5414 12.2666 28.5414 11.7039C28.5414 10.7576 28.7553 9.93912 29.1831 9.24855C29.6239 8.55797 30.2138 8.02724 30.9527 7.65637C31.6916 7.27272 32.5278 7.08089 33.4612 7.08089C34.4595 7.08089 35.3151 7.29191 36.0281 7.71393C36.7541 8.12316 37.3115 8.67945 37.7005 9.38281C38.1023 10.0734 38.3033 10.8471 38.3033 11.7039C38.3033 12.2666 38.3875 12.695 38.5561 12.9892C38.7246 13.2705 39.1135 13.4112 39.7228 13.4112H40.3257V16.0967H39.1783C38.6468 16.0967 38.1931 15.9753 37.8171 15.7323C37.4412 15.4765 37.143 15.2271 36.9226 14.9842C36.4818 15.4062 35.9568 15.7323 35.3475 15.9625C34.7382 16.1799 34.1029 16.2886 33.4418 16.2886ZM33.4223 9.68974C32.8779 9.68974 32.4371 9.87516 32.1 10.246C31.7759 10.6169 31.6139 11.0645 31.6139 11.5888C31.6139 12.1131 31.7759 12.5607 32.1 12.9316C32.4371 13.3025 32.8779 13.4879 33.4223 13.4879C33.9668 13.4879 34.4011 13.3025 34.7252 12.9316C35.0623 12.5607 35.2308 12.1131 35.2308 11.5888C35.2308 11.0645 35.0623 10.6169 34.7252 10.246C34.4011 9.87516 33.9668 9.68974 33.4223 9.68974Z" fill="#135790"/>
<path d="M42.2642 8.6347C42.2642 8.18711 42.4068 7.84821 42.692 7.61802C42.9772 7.38783 43.3791 7.27272 43.8976 7.27272C44.1569 7.27272 44.4162 7.2983 44.6755 7.34946C44.9348 7.40061 45.1746 7.47094 45.395 7.56046V9.03753C45.8487 8.43647 46.4515 7.96331 47.2035 7.61802C47.9554 7.25994 48.8239 7.08089 49.8092 7.08089C50.9371 7.08089 51.9223 7.31109 52.765 7.77148C53.6206 8.21907 54.2883 8.87129 54.7679 9.72811C55.2476 10.5849 55.4874 11.608 55.4874 12.7973V13.4112H57.7432V16.0967H40.3257V13.4112H42.2642V8.6347ZM52.3566 12.9508C52.3566 10.8791 51.3649 9.8432 49.3814 9.8432C48.6036 9.8432 47.91 10.0031 47.3007 10.3228C46.7043 10.6297 46.2376 11.0517 45.9006 11.5888C45.5635 12.1259 45.395 12.7334 45.395 13.4112H52.3566V12.9508Z" fill="#135790"/>
<path d="M62.7891 16.0967H57.7432V13.4112H59.6972V8.6347C59.6972 7.72672 60.2287 7.27272 61.2917 7.27272C61.551 7.27272 61.8103 7.2983 62.0696 7.34946C62.3289 7.40061 62.5687 7.47094 62.7891 7.56046V16.0967ZM59.1138 19.5113C58.8286 19.2171 58.686 18.8846 58.686 18.5138C58.686 18.1429 58.8286 17.8104 59.1138 17.5163C59.412 17.2221 59.775 17.0751 60.2028 17.0751C60.6176 17.0751 60.9676 17.2221 61.2529 17.5163C61.5381 17.8104 61.6807 18.1429 61.6807 18.5138C61.6807 18.8846 61.5381 19.2171 61.2529 19.5113C60.9676 19.8054 60.6176 19.9525 60.2028 19.9525C59.775 19.9525 59.412 19.8054 59.1138 19.5113Z" fill="#135790"/>
<path d="M75.0624 24C73.8567 24 72.7937 23.7954 71.8732 23.3862C70.9658 22.9897 70.2527 22.4206 69.7342 21.6789C69.2286 20.95 68.9758 20.0931 68.9758 19.1084C68.9758 18.1237 69.248 17.2221 69.7925 16.4037C70.337 15.5852 71.1991 14.7859 72.3788 14.0058L69.9286 12.1068V9.2869C70.6935 8.59632 71.5815 8.05921 72.5927 7.67556C73.6169 7.27912 74.6605 7.08089 75.7235 7.08089C76.5532 7.08089 77.2792 7.20239 77.9015 7.44537C78.5367 7.67556 79.0294 8.00806 79.3794 8.44287C79.7424 8.87767 79.9239 9.38921 79.9239 9.97748C79.9239 11.1924 79.1849 12.3369 77.707 13.4112H81.8296V16.0967H76.1902C75.6976 16.0967 75.1726 15.9305 74.6151 15.598C73.9021 16.0328 73.3446 16.5316 72.9428 17.0942C72.5538 17.6697 72.3594 18.258 72.3594 18.859C72.3594 19.588 72.6446 20.1571 73.215 20.5663C73.7854 20.9755 74.5373 21.1801 75.4707 21.1801C76.1578 21.1801 76.8514 21.0715 77.5515 20.8541C78.2645 20.6367 78.8738 20.3617 79.3794 20.0292L80.76 22.427C80.3322 22.7339 79.8072 23.0025 79.1849 23.2327C78.5626 23.4757 77.895 23.6611 77.182 23.789C76.469 23.9297 75.7624 24 75.0624 24ZM75.4707 9.47872C75.017 9.47872 74.5244 9.58104 73.9928 9.78566C73.4613 9.97748 72.9622 10.2396 72.4955 10.5721L74.8485 12.4329C75.5356 11.9341 76.0282 11.5185 76.3264 11.186C76.6375 10.8407 76.7931 10.5402 76.7931 10.2844C76.7931 10.0286 76.6699 9.83041 76.4236 9.68974C76.1902 9.54907 75.8726 9.47872 75.4707 9.47872Z" fill="#135790"/>
<path d="M83.7767 8.6347C83.7767 8.18711 83.9194 7.84821 84.2046 7.61802C84.4898 7.38783 84.8916 7.27272 85.4102 7.27272C85.6695 7.27272 85.9288 7.2983 86.188 7.34946C86.4473 7.40061 86.6872 7.47094 86.9075 7.56046V9.03753C87.3613 8.43647 87.9641 7.96331 88.716 7.61802C89.4679 7.25994 90.3365 7.08089 91.3218 7.08089C92.4496 7.08089 93.4349 7.31109 94.2776 7.77148C95.1332 8.21907 95.8008 8.87129 96.2805 9.72811C96.7602 10.5849 97 11.608 97 12.7973V16.0967H81.8296V13.4112H83.7767V8.6347ZM93.8692 12.9508C93.8692 10.8791 92.8774 9.8432 90.894 9.8432C90.1161 9.8432 89.4226 10.0031 88.8132 10.3228C88.2169 10.6297 87.7502 11.0517 87.4131 11.5888C87.0761 12.1259 86.9075 12.7334 86.9075 13.4112H93.8692V12.9508ZM90.2523 5.98749C89.98 5.69335 89.8439 5.34807 89.8439 4.95162C89.8439 4.55518 89.98 4.22268 90.2523 3.95412C90.5375 3.67277 90.881 3.5321 91.2829 3.5321C91.6977 3.5321 92.0478 3.67277 92.333 3.95412C92.6182 4.22268 92.7608 4.55518 92.7608 4.95162C92.7608 5.34807 92.6182 5.69335 92.333 5.98749C92.0478 6.26883 91.6977 6.4095 91.2829 6.4095C90.881 6.4095 90.5375 6.26883 90.2523 5.98749Z" fill="#135790"/>
<path d="M18.7792 13.4112V16.0967H19.0792V13.4112H18.7792ZM26.369 13.4112V16.0967H26.669V13.4112H26.369ZM40.1757 13.4112V16.0967H40.4757V13.4112H40.1757ZM57.5932 13.4112V16.0967H57.8932V13.4112H57.5932ZM81.6796 13.4112V16.0967H81.9796V13.4112H81.6796ZM16.3818 13.4112H16.0818V13.7112H16.3818V13.4112ZM3.72243 15.5021L3.59297 15.7728L3.59787 15.775L3.72243 15.5021ZM1.7195 13.7948L1.97011 13.6299L1.7195 13.7948ZM3.54742 9.09507L3.44942 9.37893L3.46229 9.38274L3.54742 9.09507ZM4.28637 9.42118L4.57717 9.49488L4.63185 9.27916L4.44125 9.16426L4.28637 9.42118ZM4.15025 10.2077L4.44805 10.2439L4.15025 10.2077ZM13.2898 13.4112V13.7112H13.5898V13.4112H13.2898ZM13.7177 1.34529L13.5292 1.11184L13.5292 1.11184L13.7177 1.34529ZM16.3818 1.28774H16.6818V1.08579L16.4947 1.0098L16.3818 1.28774ZM6.93102 7.88657V7.58657H6.63102V7.88657H6.93102ZM7.94221 7.88657V8.18657H8.67351L8.15289 7.673L7.94221 7.88657ZM8.07833 5.87239L7.88167 5.64584L7.88167 5.64584L8.07833 5.87239ZM10.2757 5.64219L10.1315 5.90527L10.14 5.9099L10.1487 5.91398L10.2757 5.64219ZM10.3146 6.65888L10.1819 6.92793L10.3545 7.01303L10.5038 6.89173L10.3146 6.65888ZM10.8397 7.88657H11.1397V7.58657H10.8397V7.88657ZM10.8397 8.88407V9.18407H11.1397V8.88407H10.8397ZM6.93102 8.88407H6.63102V9.18407H6.93102V8.88407ZM24.5759 13.0275L24.3329 13.2035L24.3371 13.2091L24.5759 13.0275ZM22.7869 15.0225L23.0424 14.8653L22.7906 14.4562L22.5335 14.862L22.7869 15.0225ZM20.8812 13.0083L20.6437 12.8249L20.6382 12.8324L20.8812 13.0083ZM23.5648 7.34946L23.6228 7.05513V7.05513L23.5648 7.34946ZM24.2843 7.56046H24.5843V7.35851L24.3972 7.28251L24.2843 7.56046ZM19.8895 5.98749L19.674 6.19638L19.6788 6.20106L19.8895 5.98749ZM19.8895 3.95412L20.0952 4.17259L20.1002 4.16769L19.8895 3.95412ZM21.9507 3.95412L21.7349 4.16296L21.7451 4.17253L21.9507 3.95412ZM21.9507 5.98749L21.7354 5.77865L21.7351 5.77887L21.9507 5.98749ZM23.5064 5.98749L23.286 6.19148L23.2957 6.20106L23.5064 5.98749ZM23.5064 3.95412L23.7171 4.16769V4.16769L23.5064 3.95412ZM25.5871 3.95412L25.3764 4.16775L25.3815 4.17253L25.5871 3.95412ZM25.5871 5.98749L25.7979 6.20111L25.8025 6.19633L25.5871 5.98749ZM31.5555 15.9433L31.4356 16.2184L31.4433 16.2215L31.5555 15.9433ZM29.9804 14.9458L30.1756 14.718L29.9568 14.5305L29.7606 14.7416L29.9804 14.9458ZM28.2303 12.9892L27.9851 12.8163L27.9835 12.8186L28.2303 12.9892ZM29.1831 9.24855L28.9302 9.08712L28.9281 9.09056L29.1831 9.24855ZM30.9527 7.65637L31.0873 7.92452L31.0909 7.92263L30.9527 7.65637ZM36.0281 7.71393L35.8753 7.97216L35.8808 7.97527L36.0281 7.71393ZM37.7005 9.38281L37.4379 9.52802L37.4412 9.53371L37.7005 9.38281ZM38.5561 12.9892L38.2957 13.1383L38.2987 13.1433L38.5561 12.9892ZM37.8171 15.7323L37.6483 15.9804L37.6543 15.9842L37.8171 15.7323ZM36.9226 14.9842L37.1448 14.7826L36.9378 14.5543L36.7151 14.7675L36.9226 14.9842ZM35.3475 15.9625L35.4483 16.2451L35.4535 16.2431L35.3475 15.9625ZM32.1 10.246L31.878 10.0442L31.8741 10.0486L32.1 10.246ZM32.1 12.9316L31.8741 13.1291L31.878 13.1334L32.1 12.9316ZM34.7252 12.9316L34.5032 12.7298L34.4993 12.7342L34.7252 12.9316ZM34.7252 10.246L34.4993 10.4435L34.5032 10.4478L34.7252 10.246ZM42.692 7.61802L42.5036 7.38457V7.38457L42.692 7.61802ZM44.6755 7.34946L44.7335 7.05513V7.05513L44.6755 7.34946ZM45.395 7.56046H45.695V7.35851L45.5079 7.28251L45.395 7.56046ZM45.395 9.03753H45.095V9.93285L45.6344 9.21828L45.395 9.03753ZM47.2035 7.61802L47.3287 7.89068L47.3324 7.88888L47.2035 7.61802ZM52.765 7.77148L52.6211 8.03479L52.6259 8.0373L52.765 7.77148ZM55.4874 13.4112H55.1874V13.7112H55.4874V13.4112ZM42.2642 13.4112V13.7112H42.5642V13.4112H42.2642ZM47.3007 10.3228L47.438 10.5895L47.4401 10.5884L47.3007 10.3228ZM45.9006 11.5888L45.6465 11.4294L45.9006 11.5888ZM45.395 13.4112H45.095V13.7112H45.395V13.4112ZM52.3566 13.4112V13.7112H52.6566V13.4112H52.3566ZM62.7891 16.0967V16.3967H63.0891V16.0967H62.7891ZM59.6972 13.4112V13.7112H59.9972V13.4112H59.6972ZM62.0696 7.34946L62.1277 7.05513V7.05513L62.0696 7.34946ZM62.7891 7.56046H63.0891V7.35851L62.902 7.28251L62.7891 7.56046ZM59.1138 19.5113L58.8984 19.7202L58.9031 19.7248L59.1138 19.5113ZM59.1138 17.5163L58.9031 17.3026L58.8984 17.3074L59.1138 17.5163ZM61.2529 17.5163L61.4682 17.3074L61.2529 17.5163ZM71.8732 23.3862L71.9951 23.112L71.9933 23.1113L71.8732 23.3862ZM69.7342 21.6789L69.4877 21.8499L69.4883 21.8508L69.7342 21.6789ZM72.3788 14.0058L72.5443 14.2561L72.8935 14.0252L72.5626 13.7687L72.3788 14.0058ZM69.9286 12.1068H69.6286V12.2538L69.7449 12.3439L69.9286 12.1068ZM69.9286 9.2869L69.7276 9.06423L69.6286 9.15357V9.2869H69.9286ZM72.5927 7.67556L72.6992 7.95605L72.701 7.95533L72.5927 7.67556ZM77.9015 7.44537L77.7923 7.72491L77.7993 7.72742L77.9015 7.44537ZM79.3794 8.44287L79.1457 8.63102L79.1491 8.63513L79.3794 8.44287ZM77.707 13.4112L77.5306 13.1685L76.784 13.7112H77.707V13.4112ZM74.6151 15.598L74.7688 15.3404L74.6134 15.2477L74.4589 15.3419L74.6151 15.598ZM72.9428 17.0942L72.6985 16.9198L72.6942 16.9263L72.9428 17.0942ZM77.5515 20.8541L77.464 20.5671L77.4625 20.5676L77.5515 20.8541ZM79.3794 20.0292L79.6394 19.8795L79.4805 19.6036L79.2145 19.7785L79.3794 20.0292ZM80.76 22.427L80.9349 22.6708L81.1555 22.5126L81.02 22.2773L80.76 22.427ZM79.1849 23.2327L79.0808 22.9513L79.0758 22.9532L79.1849 23.2327ZM77.182 23.789L77.129 23.4937L77.1239 23.4947L77.182 23.789ZM73.9928 9.78566L74.0947 10.0679L74.1006 10.0656L73.9928 9.78566ZM72.4955 10.5721L72.3214 10.3278L71.996 10.5596L72.3094 10.8075L72.4955 10.5721ZM74.8485 12.4329L74.6624 12.6682L74.8407 12.8092L75.0247 12.6756L74.8485 12.4329ZM76.3264 11.186L76.1035 10.9852L76.103 10.9857L76.3264 11.186ZM76.4236 9.68974L76.2687 9.94674L76.2748 9.95025L76.4236 9.68974ZM84.2046 7.61802L84.0161 7.38457V7.38457L84.2046 7.61802ZM86.188 7.34946L86.2461 7.05513V7.05513L86.188 7.34946ZM86.9075 7.56046H87.2075V7.35851L87.0204 7.28251L86.9075 7.56046ZM86.9075 9.03753H86.6075V9.93285L87.147 9.21828L86.9075 9.03753ZM88.716 7.61802L88.8412 7.89068L88.845 7.88888L88.716 7.61802ZM94.2776 7.77148L94.1337 8.03479L94.1385 8.0373L94.2776 7.77148ZM97 16.0967V16.3967H97.3V16.0967H97ZM83.7767 13.4112V13.7112H84.0767V13.4112H83.7767ZM88.8132 10.3228L88.9505 10.5895L88.9526 10.5884L88.8132 10.3228ZM87.4131 11.5888L87.159 11.4294L87.4131 11.5888ZM86.9075 13.4112H86.6075V13.7112H86.9075V13.4112ZM93.8692 13.4112V13.7112H94.1692V13.4112H93.8692ZM90.2523 5.98749L90.0319 6.19148L90.0416 6.20106L90.2523 5.98749ZM90.2523 3.95412L90.4629 4.16769V4.16769L90.2523 3.95412ZM92.333 3.95412L92.1222 4.16775L92.1273 4.17253L92.333 3.95412ZM92.333 5.98749L92.5437 6.20111L92.5483 6.19633L92.333 5.98749ZM16.3818 13.7112H18.9292V13.1112H16.3818V13.7112ZM18.9292 15.7967H6.77545V16.3967H18.9292V15.7967ZM6.77545 15.7967C5.64234 15.7967 4.6688 15.6043 3.847 15.2292L3.59787 15.775C4.51324 16.1928 5.57505 16.3967 6.77545 16.3967V15.7967ZM3.85188 15.2314C3.04108 14.8437 2.41717 14.3093 1.97011 13.6299L1.46889 13.9597C1.98116 14.7382 2.69254 15.3421 3.59299 15.7727L3.85188 15.2314ZM1.97011 13.6299C1.5271 12.9567 1.3 12.1527 1.3 11.2052H0.7C0.7 12.2526 0.952567 13.1751 1.46889 13.9597L1.97011 13.6299ZM1.3 11.2052C1.3 10.4872 1.43985 10.0039 1.67024 9.70509C1.88924 9.4211 2.22391 9.2608 2.73069 9.2608V8.6608C2.08367 8.6608 1.55301 8.87457 1.1951 9.33869C0.848601 9.78804 0.7 10.4269 0.7 11.2052H1.3ZM2.73069 9.2608C2.98392 9.2608 3.22298 9.30043 3.44951 9.37865L3.64533 8.8115C3.3533 8.71067 3.04787 8.6608 2.73069 8.6608V9.2608ZM3.46229 9.38274C3.69691 9.45217 3.91981 9.5505 4.13148 9.67811L4.44125 9.16426C4.18623 9.01052 3.91649 8.89143 3.63255 8.8074L3.46229 9.38274ZM3.99556 9.34749C3.93941 9.56904 3.89216 9.84494 3.85244 10.1715L4.44805 10.2439C4.48611 9.931 4.52961 9.68256 4.57717 9.49488L3.99556 9.34749ZM3.85244 10.1715C3.81262 10.4988 3.79191 10.7865 3.79191 11.0325H4.39191C4.39191 10.8182 4.41009 10.5559 4.44805 10.2439L3.85244 10.1715ZM3.79191 11.0325C3.79191 11.9027 4.09776 12.5964 4.7376 13.0595C5.35946 13.5096 6.25559 13.7112 7.37827 13.7112V13.1112C6.31005 13.1112 5.56299 12.9163 5.0894 12.5735C4.63378 12.2437 4.39191 11.7481 4.39191 11.0325H3.79191ZM7.37827 13.7112H13.2898V13.1112H7.37827V13.7112ZM13.5898 13.4112V2.36197H12.9898V13.4112H13.5898ZM13.5898 2.36197C13.5898 1.98292 13.707 1.7394 13.9061 1.57874L13.5292 1.11184C13.1579 1.41156 12.9898 1.84582 12.9898 2.36197H13.5898ZM13.9061 1.57874C14.1197 1.40636 14.4454 1.3 14.9233 1.3V0.7C14.3641 0.7 13.8861 0.823831 13.5292 1.11184L13.9061 1.57874ZM14.9233 1.3C15.1627 1.3 15.3951 1.3236 15.6207 1.37045L15.7427 0.782989C15.4757 0.727541 15.2024 0.7 14.9233 0.7V1.3ZM15.6207 1.37045C15.8503 1.41813 16.0662 1.48336 16.2689 1.56569L16.4947 1.0098C16.2566 0.913082 16.0058 0.837619 15.7427 0.782989L15.6207 1.37045ZM16.0818 1.28774V13.4112H16.6818V1.28774H16.0818ZM6.93102 8.18657H7.94221V7.58657H6.93102V8.18657ZM8.15289 7.673C7.98642 7.50878 7.89218 7.28398 7.89218 6.96581H7.29218C7.29218 7.41494 7.43129 7.80397 7.73153 8.10014L8.15289 7.673ZM7.89218 6.96581C7.89218 6.60087 8.01968 6.32057 8.27499 6.09893L7.88167 5.64584C7.48878 5.9869 7.29218 6.43555 7.29218 6.96581H7.89218ZM8.27499 6.09893C8.53371 5.87435 8.88028 5.75037 9.34232 5.75037V5.15037C8.76724 5.15037 8.27115 5.30773 7.88167 5.64584L8.27499 6.09893ZM9.34232 5.75037C9.7025 5.75037 9.95813 5.81024 10.1315 5.90527L10.4199 5.37911C10.1266 5.21838 9.75998 5.15037 9.34232 5.15037V5.75037ZM10.1487 5.91398C10.3404 6.00357 10.3452 6.07459 10.3452 6.10258H10.9452C10.9452 5.74692 10.7036 5.51101 10.4027 5.3704L10.1487 5.91398ZM10.3452 6.10258C10.3452 6.16733 10.3103 6.27585 10.1255 6.42603L10.5038 6.89173C10.7597 6.68383 10.9452 6.42148 10.9452 6.10258H10.3452ZM10.4473 6.38983C10.1133 6.2251 9.79415 6.12869 9.49788 6.12869V6.72869C9.66832 6.72869 9.89362 6.78574 10.1819 6.92793L10.4473 6.38983ZM9.49788 6.12869C9.21242 6.12869 8.94269 6.18519 8.74035 6.34897C8.52588 6.52256 8.43949 6.77292 8.43949 7.04254H9.03949C9.03949 6.90293 9.0795 6.84637 9.11783 6.81534C9.16829 6.7745 9.27776 6.72869 9.49788 6.72869V6.12869ZM8.43949 7.04254C8.43949 7.37896 8.56351 7.67024 8.81804 7.88546L9.20544 7.42729C9.09697 7.33558 9.03949 7.21766 9.03949 7.04254H8.43949ZM8.81804 7.88546C9.07057 8.09898 9.4009 8.18657 9.77013 8.18657V7.58657C9.49116 7.58657 9.31589 7.52068 9.20544 7.42729L8.81804 7.88546ZM9.77013 8.18657H10.8397V7.58657H9.77013V8.18657ZM10.5397 7.88657V8.88407H11.1397V7.88657H10.5397ZM10.8397 8.58407H6.93102V9.18407H10.8397V8.58407ZM7.23102 8.88407V7.88657H6.63102V8.88407H7.23102ZM23.9843 11.5505C23.9843 11.9205 24.0092 12.2435 24.0629 12.515C24.116 12.7838 24.2007 13.0208 24.333 13.2035L24.8189 12.8516C24.7568 12.7657 24.6956 12.6222 24.6515 12.3987C24.6079 12.1779 24.5843 11.8965 24.5843 11.5505H23.9843ZM24.3371 13.2091C24.6182 13.5788 25.11 13.7112 25.6844 13.7112V13.1112C25.1697 13.1112 24.9226 12.9878 24.8148 12.846L24.3371 13.2091ZM25.6844 13.7112H26.519V13.1112H25.6844V13.7112ZM26.519 15.7967H25.1593V16.3967H26.519V15.7967ZM25.1593 15.7967C24.0811 15.7967 23.4099 15.4623 23.0424 14.8653L22.5314 15.1798C23.0455 16.015 23.9559 16.3967 25.1593 16.3967V15.7967ZM22.5335 14.862C22.1561 15.4577 21.4481 15.7967 20.2978 15.7967V16.3967C21.5589 16.3967 22.5103 16.0197 23.0403 15.1831L22.5335 14.862ZM20.2978 15.7967H18.9292V16.3967H20.2978V15.7967ZM18.9292 13.7112H19.7728V13.1112H18.9292V13.7112ZM19.7728 13.7112C20.3515 13.7112 20.8448 13.5701 21.1242 13.1843L20.6382 12.8324C20.5287 12.9837 20.2831 13.1112 19.7728 13.1112V13.7112ZM21.1186 13.1917C21.3919 12.838 21.4924 12.2615 21.4924 11.5505H20.8924C20.8924 12.2462 20.7854 12.6416 20.6438 12.825L21.1186 13.1917ZM21.4924 11.5505V8.6347H20.8924V11.5505H21.4924ZM21.4924 8.6347C21.4924 8.2404 21.6055 7.99533 21.7858 7.84134C21.9752 7.67961 22.2911 7.57272 22.7869 7.57272V6.97272C22.2197 6.97272 21.7383 7.09284 21.3962 7.38511C21.0449 7.6851 20.8924 8.12102 20.8924 8.6347H21.4924ZM22.7869 7.57272C23.0263 7.57272 23.2662 7.59633 23.5067 7.64378L23.6228 7.05513C23.3448 7.00028 23.0661 6.97272 22.7869 6.97272V7.57272ZM23.5067 7.64378C23.7493 7.69164 23.9705 7.75682 24.1714 7.8384L24.3972 7.28251C24.1572 7.18505 23.8988 7.10958 23.6228 7.05513L23.5067 7.64378ZM23.9843 7.56046V11.5505H24.5843V7.56046H23.9843ZM20.1048 5.77865C19.8719 5.5384 19.7617 5.26725 19.7617 4.95162H19.1617C19.1617 5.42888 19.3366 5.8483 19.6741 6.19633L20.1048 5.77865ZM19.7617 4.95162C19.7617 4.63675 19.8709 4.38363 20.0951 4.17253L19.6838 3.73571C19.3376 4.06172 19.1617 4.47361 19.1617 4.95162H19.7617ZM20.1002 4.16769C20.329 3.94192 20.5968 3.8321 20.9201 3.8321V3.2321C20.4396 3.2321 20.0203 3.40363 19.6788 3.74055L20.1002 4.16769ZM20.9201 3.8321C21.2591 3.8321 21.5231 3.94357 21.7351 4.16274L22.1663 3.7455C21.8339 3.40198 21.4108 3.2321 20.9201 3.2321V3.8321ZM21.7451 4.17253C21.9693 4.38363 22.0786 4.63675 22.0786 4.95162H22.6786C22.6786 4.47361 22.5026 4.06172 22.1564 3.73571L21.7451 4.17253ZM22.0786 4.95162C22.0786 5.26725 21.9683 5.5384 21.7354 5.77865L22.1661 6.19633C22.5036 5.8483 22.6786 5.42888 22.6786 4.95162H22.0786ZM21.7351 5.77887C21.5231 5.99803 21.2591 6.1095 20.9201 6.1095V6.7095C21.4108 6.7095 21.8339 6.53964 22.1663 6.1961L21.7351 5.77887ZM20.9201 6.1095C20.5968 6.1095 20.329 5.99968 20.1002 5.77392L19.6788 6.20106C20.0203 6.53798 20.4397 6.7095 20.9201 6.7095V6.1095ZM23.7266 5.78371C23.505 5.54435 23.3981 5.27159 23.3981 4.95162H22.7981C22.7981 5.42454 22.9633 5.84236 23.2863 6.19127L23.7266 5.78371ZM23.3981 4.95162C23.3981 4.63216 23.5043 4.3776 23.7171 4.16769L23.2957 3.74055C22.964 4.06775 22.7981 4.47821 22.7981 4.95162H23.3981ZM23.7171 4.16769C23.946 3.94192 24.2138 3.8321 24.5371 3.8321V3.2321C24.0566 3.2321 23.6373 3.40363 23.2957 3.74055L23.7171 4.16769ZM24.5371 3.8321C24.8762 3.8321 25.1496 3.94388 25.3765 4.16769L25.7978 3.74055C25.4543 3.40167 25.0276 3.2321 24.5371 3.2321V3.8321ZM25.3815 4.17253C25.6057 4.38363 25.7149 4.63675 25.7149 4.95162H26.3149C26.3149 4.47361 26.139 4.06172 25.7928 3.73571L25.3815 4.17253ZM25.7149 4.95162C25.7149 5.26725 25.6047 5.5384 25.3718 5.77865L25.8025 6.19633C26.14 5.8483 26.3149 5.42888 26.3149 4.95162H25.7149ZM25.3765 5.77392C25.1496 5.99773 24.8762 6.1095 24.5371 6.1095V6.7095C25.0276 6.7095 25.4543 6.53994 25.7978 6.20106L25.3765 5.77392ZM24.5371 6.1095C24.2137 6.1095 23.946 5.99968 23.7171 5.77392L23.2957 6.20106C23.6373 6.53798 24.0566 6.7095 24.5371 6.7095V6.1095ZM33.4418 15.9886C32.7887 15.9886 32.1986 15.8793 31.6678 15.6651L31.4433 16.2215C32.0533 16.4677 32.7207 16.5886 33.4418 16.5886V15.9886ZM31.6754 15.6683C31.147 15.438 30.6471 15.1219 30.1756 14.718L29.7852 15.1736C30.299 15.6137 30.8491 15.9626 31.4357 16.2183L31.6754 15.6683ZM29.7606 14.7416C29.0885 15.4649 28.3919 15.7967 27.6663 15.7967V16.3967C28.6002 16.3967 29.4463 15.9613 30.2002 15.15L29.7606 14.7416ZM27.6663 15.7967H26.519V16.3967H27.6663V15.7967ZM26.519 13.7112C26.8054 13.7112 27.2052 13.6739 27.5623 13.5993C27.7409 13.5621 27.9185 13.5136 28.0699 13.4512C28.2091 13.3938 28.3767 13.305 28.4771 13.1597L27.9835 12.8186C27.9866 12.814 27.9581 12.8483 27.8413 12.8964C27.7367 12.9395 27.5983 12.9789 27.4398 13.012C27.1228 13.0781 26.7641 13.1112 26.519 13.1112V13.7112ZM28.4754 13.1621C28.7335 12.7961 28.8414 12.2961 28.8414 11.7039H28.2414C28.2414 12.2371 28.1419 12.594 27.9851 12.8163L28.4754 13.1621ZM28.8414 11.7039C28.8414 10.804 29.0443 10.0423 29.4381 9.40654L28.9281 9.09056C28.4663 9.83596 28.2414 10.7111 28.2414 11.7039H28.8414ZM29.436 9.40995C29.8474 8.7654 30.3962 8.27134 31.0873 7.9245L30.8181 7.38825C30.0313 7.78314 29.4004 8.35054 28.9302 9.08714L29.436 9.40995ZM31.0909 7.92263C31.7822 7.56371 32.57 7.38089 33.4612 7.38089V6.78089C32.4856 6.78089 31.6011 6.98173 30.8145 7.39012L31.0909 7.92263ZM33.4612 7.38089C34.4167 7.38089 35.2172 7.58258 35.8753 7.9721L36.1809 7.45576C35.413 7.00124 34.5022 6.78089 33.4612 6.78089V7.38089ZM35.8808 7.97527C36.5602 8.35826 37.0769 8.87512 37.4379 9.52798L37.963 9.23765C37.5461 8.48378 36.948 7.88806 36.1754 7.45259L35.8808 7.97527ZM37.4412 9.53371C37.8145 10.1752 38.0033 10.8961 38.0033 11.7039H38.6033C38.6033 10.7981 38.3902 9.97163 37.9597 9.23192L37.4412 9.53371ZM38.0033 11.7039C38.0033 12.2883 38.0894 12.778 38.2958 13.1383L38.8164 12.84C38.6857 12.612 38.6033 12.2449 38.6033 11.7039H38.0033ZM38.2987 13.1433C38.5552 13.5714 39.0967 13.7112 39.7228 13.7112V13.1112C39.1304 13.1112 38.8941 12.9696 38.8134 12.835L38.2987 13.1433ZM39.7228 13.7112H40.3257V13.1112H39.7228V13.7112ZM40.3257 15.7967H39.1783V16.3967H40.3257V15.7967ZM39.1783 15.7967C38.6936 15.7967 38.2989 15.6865 37.98 15.4803L37.6543 15.9842C38.0872 16.2641 38.6 16.3967 39.1783 16.3967V15.7967ZM37.9859 15.4842C37.6226 15.2371 37.3445 15.0028 37.1448 14.7826L36.7004 15.1857C36.9415 15.4515 37.2598 15.7159 37.6484 15.9803L37.9859 15.4842ZM36.7151 14.7675C36.3055 15.1597 35.8156 15.4649 35.2415 15.6818L35.4535 16.2431C36.098 15.9996 36.6582 15.6526 37.1301 15.2008L36.7151 14.7675ZM35.2467 15.6799C34.6704 15.8855 34.0694 15.9886 33.4418 15.9886V16.5886C34.1365 16.5886 34.8059 16.4742 35.4483 16.245L35.2467 15.6799ZM33.4223 9.38974C32.8015 9.38974 32.2772 9.60502 31.878 10.0443L32.322 10.4478C32.5969 10.1453 32.9542 9.98974 33.4223 9.98974V9.38974ZM31.8741 10.0486C31.499 10.4779 31.3139 10.997 31.3139 11.5888H31.9139C31.9139 11.132 32.0528 10.7559 32.3259 10.4434L31.8741 10.0486ZM31.3139 11.5888C31.3139 12.1807 31.499 12.6998 31.8741 13.129L32.3259 12.7342C32.0528 12.4217 31.9139 12.0456 31.9139 11.5888H31.3139ZM31.878 13.1334C32.2772 13.5726 32.8015 13.7879 33.4223 13.7879V13.1879C32.9542 13.1879 32.5969 13.0323 32.322 12.7298L31.878 13.1334ZM33.4223 13.7879C34.0432 13.7879 34.5636 13.5724 34.9511 13.129L34.4993 12.7342C34.2386 13.0325 33.8905 13.1879 33.4223 13.1879V13.7879ZM34.9472 13.1334C35.337 12.7046 35.5308 12.184 35.5308 11.5888H34.9308C34.9308 12.0423 34.7876 12.4169 34.5032 12.7298L34.9472 13.1334ZM35.5308 11.5888C35.5308 10.9937 35.337 10.4731 34.9472 10.0443L34.5032 10.4478C34.7876 10.7607 34.9308 11.1353 34.9308 11.5888H35.5308ZM34.9511 10.0486C34.5636 9.60522 34.0432 9.38974 33.4223 9.38974V9.98974C33.8905 9.98974 34.2386 10.1451 34.4993 10.4434L34.9511 10.0486ZM42.5642 8.6347C42.5642 8.25566 42.6814 8.01213 42.8804 7.85147L42.5036 7.38457C42.1322 7.6843 41.9642 8.11855 41.9642 8.6347H42.5642ZM42.8804 7.85147C43.094 7.67909 43.4198 7.57272 43.8976 7.57272V6.97272C43.3384 6.97272 42.8604 7.09657 42.5036 7.38457L42.8804 7.85147ZM43.8976 7.57272C44.137 7.57272 44.3769 7.59633 44.6174 7.64378L44.7335 7.05513C44.4555 7.00028 44.1768 6.97272 43.8976 6.97272V7.57272ZM44.6174 7.64378C44.86 7.69164 45.0812 7.75682 45.2821 7.8384L45.5079 7.28251C45.2679 7.18505 45.0095 7.10958 44.7335 7.05513L44.6174 7.64378ZM45.095 7.56046V9.03753H45.695V7.56046H45.095ZM45.6344 9.21828C46.0554 8.66063 46.6173 8.21732 47.3286 7.89065L47.0783 7.34539C46.2858 7.7093 45.6421 8.21231 45.1555 8.85678L45.6344 9.21828ZM47.3324 7.88888C48.0373 7.55319 48.8605 7.38089 49.8092 7.38089V6.78089C48.7874 6.78089 47.8734 6.9667 47.0745 7.34717L47.3324 7.88888ZM49.8092 7.38089C50.8956 7.38089 51.8297 7.60235 52.6212 8.03475L52.9088 7.50821C52.0149 7.01983 50.9785 6.78089 49.8092 6.78089V7.38089ZM52.6259 8.0373C53.429 8.45741 54.0544 9.06775 54.5062 9.87466L55.0297 9.58157C54.5221 8.67482 53.8122 7.98073 52.9041 7.50565L52.6259 8.0373ZM54.5062 9.87466C54.956 10.6782 55.1874 11.6485 55.1874 12.7973H55.7874C55.7874 11.5675 55.5392 10.4917 55.0297 9.58157L54.5062 9.87466ZM55.1874 12.7973V13.4112H55.7874V12.7973H55.1874ZM55.4874 13.7112H57.7432V13.1112H55.4874V13.7112ZM57.7432 15.7967H40.3257V16.3967H57.7432V15.7967ZM40.3257 13.7112H42.2642V13.1112H40.3257V13.7112ZM42.5642 13.4112V8.6347H41.9642V13.4112H42.5642ZM52.6566 12.9508C52.6566 11.8719 52.3986 11.007 51.8295 10.4126C51.2581 9.81581 50.4228 9.5432 49.3814 9.5432V10.1432C50.3235 10.1432 50.9758 10.3885 51.3961 10.8276C51.8188 11.269 52.0566 11.958 52.0566 12.9508H52.6566ZM49.3814 9.5432C48.5614 9.5432 47.8189 9.71205 47.1613 10.0571L47.4401 10.5884C48.001 10.2941 48.6457 10.1432 49.3814 10.1432V9.5432ZM47.1634 10.056C46.5221 10.3861 46.0138 10.844 45.6465 11.4294L46.1547 11.7483C46.4615 11.2594 46.8866 10.8733 47.438 10.5895L47.1634 10.056ZM45.6465 11.4294C45.2773 12.0176 45.095 12.681 45.095 13.4112H45.695C45.695 12.7857 45.8497 12.2343 46.1547 11.7483L45.6465 11.4294ZM45.395 13.7112H52.3566V13.1112H45.395V13.7112ZM52.6566 13.4112V12.9508H52.0566V13.4112H52.6566ZM62.7891 15.7967H57.7432V16.3967H62.7891V15.7967ZM57.7432 13.7112H59.6972V13.1112H57.7432V13.7112ZM59.9972 13.4112V8.6347H59.3972V13.4112H59.9972ZM59.9972 8.6347C59.9972 8.2404 60.1104 7.99533 60.2907 7.84134C60.48 7.67961 60.7959 7.57272 61.2917 7.57272V6.97272C60.7245 6.97272 60.2432 7.09284 59.901 7.3851C59.5497 7.6851 59.3972 8.12102 59.3972 8.6347H59.9972ZM61.2917 7.57272C61.5312 7.57272 61.771 7.59633 62.0115 7.64378L62.1277 7.05513C61.8496 7.00028 61.5709 6.97272 61.2917 6.97272V7.57272ZM62.0115 7.64378C62.2541 7.69164 62.4753 7.75682 62.6762 7.8384L62.902 7.28251C62.6621 7.18505 62.4036 7.10958 62.1277 7.05513L62.0115 7.64378ZM62.4891 7.56046V16.0967H63.0891V7.56046H62.4891ZM59.3292 19.3024C59.092 19.0579 58.986 18.7982 58.986 18.5138H58.386C58.386 18.9711 58.5652 19.3764 58.8984 19.7201L59.3292 19.3024ZM58.986 18.5138C58.986 18.2294 59.092 17.9697 59.3292 17.7251L58.8984 17.3074C58.5652 17.6511 58.386 18.0565 58.386 18.5138H58.986ZM59.3245 17.7298C59.5652 17.4924 59.8519 17.3751 60.2028 17.3751V16.7751C59.698 16.7751 59.2588 16.9519 58.9031 17.3027L59.3245 17.7298ZM60.2028 17.3751C60.5376 17.3751 60.8096 17.4901 61.0375 17.7251L61.4682 17.3074C61.1257 16.9542 60.6976 16.7751 60.2028 16.7751V17.3751ZM61.0375 17.7251C61.2746 17.9697 61.3807 18.2294 61.3807 18.5138H61.9807C61.9807 18.0565 61.8015 17.6511 61.4682 17.3074L61.0375 17.7251ZM61.3807 18.5138C61.3807 18.7982 61.2746 19.0579 61.0375 19.3024L61.4682 19.7201C61.8015 19.3764 61.9807 18.9711 61.9807 18.5138H61.3807ZM61.0375 19.3024C60.8096 19.5375 60.5376 19.6525 60.2028 19.6525V20.2525C60.6976 20.2525 61.1257 20.0733 61.4682 19.7201L61.0375 19.3024ZM60.2028 19.6525C59.8519 19.6525 59.5652 19.5351 59.3245 19.2977L58.9031 19.7248C59.2588 20.0757 59.698 20.2525 60.2028 20.2525V19.6525ZM75.0624 23.7C73.8906 23.7 72.8704 23.5012 71.9951 23.112L71.7514 23.6603C72.717 24.0896 73.8229 24.3 75.0624 24.3V23.7ZM71.9933 23.1113C71.1315 22.7348 70.464 22.1993 69.98 21.507L69.4883 21.8508C70.0415 22.642 70.8 23.2447 71.7531 23.6611L71.9933 23.1113ZM69.9807 21.5079C69.5137 20.8347 69.2758 20.039 69.2758 19.1084H68.6758C68.6758 20.1472 68.9435 21.0653 69.4877 21.8499L69.9807 21.5079ZM69.2758 19.1084C69.2758 18.1827 69.5306 17.339 70.0423 16.5698L69.5427 16.2375C68.9654 17.1053 68.6758 18.0647 68.6758 19.1084H69.2758ZM70.0423 16.5698C70.5571 15.796 71.3845 15.023 72.5443 14.2561L72.2134 13.7556C71.0137 14.5489 70.1169 15.3744 69.5427 16.2375L70.0423 16.5698ZM72.5626 13.7687L70.1124 11.8696L69.7449 12.3439L72.195 14.243L72.5626 13.7687ZM70.2286 12.1068V9.2869H69.6286V12.1068H70.2286ZM70.1297 9.50957C70.8655 8.8452 71.7211 8.32714 72.6992 7.95605L72.4863 7.39507C71.442 7.79128 70.5215 8.34744 69.7276 9.06423L70.1297 9.50957ZM72.701 7.95533C73.6918 7.57181 74.6988 7.38089 75.7235 7.38089V6.78089C74.6222 6.78089 73.542 6.98643 72.4844 7.39579L72.701 7.95533ZM75.7235 7.38089C76.5246 7.38089 77.2122 7.49827 77.7924 7.72482L78.0106 7.16592C77.3463 6.90652 76.5818 6.78089 75.7235 6.78089V7.38089ZM77.7993 7.72742C78.3938 7.94287 78.8367 8.24713 79.1457 8.63099L79.6131 8.25474C79.222 7.76899 78.6796 7.40826 78.0037 7.16332L77.7993 7.72742ZM79.1491 8.63513C79.4652 9.01377 79.6239 9.45654 79.6239 9.97748H80.2239C80.2239 9.32189 80.0196 8.74158 79.6097 8.25061L79.1491 8.63513ZM79.6239 9.97748C79.6239 11.0552 78.9716 12.1211 77.5306 13.1685L77.8834 13.6538C79.3982 12.5528 80.2239 11.3296 80.2239 9.97748H79.6239ZM77.707 13.7112H81.8296V13.1112H77.707V13.7112ZM81.8296 15.7967H76.1902V16.3967H81.8296V15.7967ZM76.1902 15.7967C75.7663 15.7967 75.2941 15.6537 74.7688 15.3404L74.4614 15.8556C75.051 16.2073 75.6289 16.3967 76.1902 16.3967V15.7967ZM74.4589 15.3419C73.7184 15.7934 73.1284 16.3182 72.6986 16.9199L73.1869 17.2686C73.5609 16.7449 74.0858 16.2722 74.7713 15.8541L74.4589 15.3419ZM72.6942 16.9263C72.2771 17.5434 72.0594 18.1892 72.0594 18.859H72.6594C72.6594 18.3268 72.8306 17.796 73.1913 17.2622L72.6942 16.9263ZM72.0594 18.859C72.0594 19.6803 72.3877 20.342 73.0401 20.8101L73.3899 20.3226C72.9015 19.9722 72.6594 19.4957 72.6594 18.859H72.0594ZM73.0401 20.8101C73.6759 21.2662 74.495 21.4801 75.4707 21.4801V20.8801C74.5796 20.8801 73.8949 20.6849 73.3899 20.3226L73.0401 20.8101ZM75.4707 21.4801C76.1899 21.4801 76.9135 21.3663 77.6404 21.1406L77.4625 20.5676C76.7893 20.7766 76.1257 20.8801 75.4707 20.8801V21.4801ZM77.6389 21.141C78.3733 20.9171 79.0099 20.6312 79.5442 20.2798L79.2145 19.7785C78.7376 20.0922 78.1557 20.3562 77.464 20.5671L77.6389 21.141ZM79.1194 20.1789L80.5001 22.5767L81.02 22.2773L79.6394 19.8795L79.1194 20.1789ZM80.5852 22.1833C80.184 22.4711 79.6841 22.7282 79.0808 22.9513L79.289 23.5141C79.9302 23.2769 80.4805 22.9968 80.9349 22.6708L80.5852 22.1833ZM79.0758 22.9532C78.4731 23.1886 77.8244 23.369 77.129 23.4937L77.2349 24.0843C77.9656 23.9532 78.6522 23.7628 79.294 23.5122L79.0758 22.9532ZM77.1239 23.4947C76.4293 23.6317 75.7422 23.7 75.0624 23.7V24.3C75.7826 24.3 76.5086 24.2276 77.2401 24.0833L77.1239 23.4947ZM75.4707 9.17872C74.9721 9.17872 74.4425 9.29108 73.8851 9.50569L74.1006 10.0656C74.6062 9.871 75.0619 9.77872 75.4707 9.77872V9.17872ZM73.891 9.50347C73.3334 9.7047 72.8101 9.97969 72.3214 10.3278L72.6696 10.8165C73.1144 10.4996 73.5892 10.2503 74.0947 10.0678L73.891 9.50347ZM72.3094 10.8075L74.6624 12.6682L75.0346 12.1975L72.6816 10.3368L72.3094 10.8075ZM75.0247 12.6756C75.7165 12.1734 76.2299 11.7429 76.5497 11.3863L76.103 10.9857C75.8265 11.2941 75.3546 11.6948 74.6722 12.1901L75.0247 12.6756ZM76.5492 11.3868C76.8737 11.0268 77.0931 10.6549 77.0931 10.2844H76.4931C76.4931 10.4254 76.4013 10.6546 76.1035 10.9852L76.5492 11.3868ZM77.0931 10.2844C77.0931 9.90743 76.8998 9.61625 76.5724 9.42923L76.2748 9.95025C76.44 10.0446 76.4931 10.1498 76.4931 10.2844H77.0931ZM76.5785 9.43282C76.2812 9.25364 75.903 9.17872 75.4707 9.17872V9.77872C75.8423 9.77872 76.0992 9.8445 76.2687 9.94667L76.5785 9.43282ZM84.0767 8.6347C84.0767 8.25566 84.1939 8.01213 84.393 7.85147L84.0161 7.38457C83.6448 7.6843 83.4767 8.11855 83.4767 8.6347H84.0767ZM84.393 7.85147C84.6066 7.67909 84.9323 7.57272 85.4102 7.57272V6.97272C84.851 6.97272 84.373 7.09657 84.0161 7.38457L84.393 7.85147ZM85.4102 7.57272C85.6496 7.57272 85.8895 7.59633 86.13 7.64378L86.2461 7.05513C85.9681 7.00028 85.6893 6.97272 85.4102 6.97272V7.57272ZM86.13 7.64378C86.3725 7.69164 86.5938 7.75682 86.7946 7.8384L87.0204 7.28251C86.7805 7.18505 86.5221 7.10958 86.2461 7.05513L86.13 7.64378ZM86.6075 7.56046V9.03753H87.2075V7.56046H86.6075ZM87.147 9.21828C87.5679 8.66063 88.1298 8.21732 88.8412 7.89065L88.5908 7.34539C87.7984 7.7093 87.1546 8.21231 86.6681 8.85678L87.147 9.21828ZM88.845 7.88888C89.5499 7.55319 90.3731 7.38089 91.3218 7.38089V6.78089C90.3 6.78089 89.3859 6.9667 88.587 7.34717L88.845 7.88888ZM91.3218 7.38089C92.4082 7.38089 93.3423 7.60235 94.1337 8.03475L94.4214 7.50821C93.5275 7.01983 92.4911 6.78089 91.3218 6.78089V7.38089ZM94.1385 8.0373C94.9416 8.45741 95.567 9.06775 96.0187 9.87466L96.5423 9.58157C96.0347 8.67482 95.3248 7.98073 94.4166 7.50565L94.1385 8.0373ZM96.0187 9.87466C96.4685 10.6782 96.7 11.6485 96.7 12.7973H97.3C97.3 11.5675 97.0518 10.4917 96.5423 9.58157L96.0187 9.87466ZM96.7 12.7973V16.0967H97.3V12.7973H96.7ZM97 15.7967H81.8296V16.3967H97V15.7967ZM81.8296 13.7112H83.7767V13.1112H81.8296V13.7112ZM84.0767 13.4112V8.6347H83.4767V13.4112H84.0767ZM94.1692 12.9508C94.1692 11.8719 93.9112 11.007 93.3421 10.4126C92.7707 9.81581 91.9354 9.5432 90.894 9.5432V10.1432C91.8361 10.1432 92.4884 10.3885 92.9087 10.8276C93.3314 11.269 93.5692 11.958 93.5692 12.9508H94.1692ZM90.894 9.5432C90.074 9.5432 89.3315 9.71205 88.6739 10.0571L88.9526 10.5884C89.5136 10.2941 90.1583 10.1432 90.894 10.1432V9.5432ZM88.676 10.056C88.0346 10.3861 87.5264 10.844 87.159 11.4294L87.6673 11.7483C87.974 11.2594 88.3992 10.8733 88.9505 10.5895L88.676 10.056ZM87.159 11.4294C86.7899 12.0176 86.6075 12.681 86.6075 13.4112H87.2075C87.2075 12.7857 87.3623 12.2343 87.6673 11.7483L87.159 11.4294ZM86.9075 13.7112H93.8692V13.1112H86.9075V13.7112ZM94.1692 13.4112V12.9508H93.5692V13.4112H94.1692ZM90.4724 5.78371C90.2509 5.54435 90.1439 5.27159 90.1439 4.95162H89.5439C89.5439 5.42454 89.7091 5.84236 90.0321 6.19127L90.4724 5.78371ZM90.1439 4.95162C90.1439 4.63216 90.2501 4.3776 90.4629 4.16769L90.0416 3.74055C89.7099 4.06775 89.5439 4.4782 89.5439 4.95162H90.1439ZM90.4629 4.16769C90.6918 3.94192 90.9596 3.8321 91.2829 3.8321V3.2321C90.8024 3.2321 90.3831 3.40363 90.0416 3.74055L90.4629 4.16769ZM91.2829 3.8321C91.622 3.8321 91.8954 3.94388 92.1223 4.16769L92.5437 3.74055C92.2001 3.40167 91.7735 3.2321 91.2829 3.2321V3.8321ZM92.1273 4.17253C92.3515 4.38363 92.4608 4.63675 92.4608 4.95162H93.0608C93.0608 4.47361 92.8849 4.06172 92.5386 3.73571L92.1273 4.17253ZM92.4608 4.95162C92.4608 5.26725 92.3505 5.53841 92.1176 5.77865L92.5483 6.19633C92.8858 5.8483 93.0608 5.42888 93.0608 4.95162H92.4608ZM92.1223 5.77392C91.8954 5.99773 91.622 6.1095 91.2829 6.1095V6.7095C91.7735 6.7095 92.2001 6.53994 92.5437 6.20106L92.1223 5.77392ZM91.2829 6.1095C90.9596 6.1095 90.6918 5.99968 90.4629 5.77392L90.0416 6.20106C90.3831 6.53798 90.8024 6.7095 91.2829 6.7095V6.1095Z" fill="#135790" mask="url(#path-1-outside-1_1076_2629)"/>
</svg>
