<svg width="18" height="21" viewBox="0 0 18 21" fill="none" xmlns="http://www.w3.org/2000/svg">
<path d="M6.17248 19H1.00048C0.82962 19.0001 0.661593 18.9564 0.512422 18.8731C0.363251 18.7897 0.237913 18.6696 0.148362 18.5241C0.0588112 18.3786 0.00803542 18.2126 0.000877977 18.0419C-0.00627946 17.8712 0.0304202 17.7015 0.107476 17.549L1.77748 14.24V9.22197C1.77888 7.83358 2.17991 6.47494 2.93265 5.30832C3.6854 4.1417 4.75804 3.21641 6.02248 2.64297C6.10921 1.91382 6.46034 1.2418 7.00937 0.754211C7.5584 0.266617 8.26719 -0.00268555 9.00148 -0.00268555C9.73576 -0.00268555 10.4446 0.266617 10.9936 0.754211C11.5426 1.2418 11.8937 1.91382 11.9805 2.64297C13.2445 3.21681 14.3166 4.14224 15.069 5.30882C15.8213 6.47539 16.2221 7.83383 16.2235 9.22197V14.24L17.8935 17.549C17.9705 17.7015 18.0072 17.8712 18.0001 18.0419C17.9929 18.2126 17.9421 18.3786 17.8526 18.5241C17.763 18.6696 17.6377 18.7897 17.4885 18.8731C17.3394 18.9564 17.1713 19.0001 17.0005 19H11.8305C11.6241 19.5856 11.2411 20.0928 10.7343 20.4516C10.2275 20.8103 9.62191 21.003 9.00098 21.003C8.38004 21.003 7.77441 20.8103 7.26761 20.4516C6.76081 20.0928 6.37883 19.5856 6.17248 19ZM3.77948 9.22197V14.477C3.77962 14.6336 3.74297 14.7881 3.67248 14.928L2.62648 17H15.3765L14.3305 14.928C14.26 14.7881 14.2233 14.6336 14.2235 14.477V9.22197C14.2235 7.83688 13.6733 6.50851 12.6938 5.52911C11.7144 4.5497 10.3861 3.99947 9.00098 3.99947C7.61588 3.99947 6.28752 4.5497 5.30811 5.52911C4.3287 6.50851 3.77948 7.83688 3.77948 9.22197Z" fill="#92929D"/>
</svg>
