<svg width="16" height="14" viewBox="0 0 16 14" fill="none" xmlns="http://www.w3.org/2000/svg">
<g clip-path="url(#clip0_1420_3099)">
<rect width="16" height="14" fill="white" fill-opacity="0.01"/>
<path d="M14.8017 1.00262H1.19828C0.536469 1.00262 0 1.61647 0 2.37373V5.00085H16V2.37373C16 1.61647 15.4635 1.00262 14.8017 1.00262Z" fill="#F5F5F5"/>
<path d="M0 11.6262C0 12.3834 0.536469 12.9973 1.19828 12.9973H14.8017C15.4635 12.9973 16 12.3835 16 11.6262V8.99908H0V11.6262Z" fill="#73AF00"/>
<path d="M16 5.00079H0V8.99881H16V5.00079Z" fill="#FF4B55"/>
<path d="M1.19828 1.00262C0.536469 1.00262 0 1.61647 0 2.37373V11.6263C0 12.3835 0.536469 12.9974 1.19828 12.9974H4.13794V1.00262H1.19828Z" fill="#FF4B55"/>
<path d="M1.12675 3.61884C1.11132 3.62084 1.09641 3.62298 1.08188 3.6252V3.85001C1.0965 3.85426 1.11141 3.85848 1.12675 3.86263V3.61884Z" fill="#F5F5F5"/>
<path d="M1.80635 4.04733C1.76538 4.04358 1.70244 4.03636 1.62732 4.02588L1.1561 4.50542C1.21713 4.51607 1.29028 4.53023 1.32082 4.54135C1.44191 4.42017 1.60422 4.25498 1.80635 4.04733Z" fill="#F5F5F5"/>
<path d="M2.51534 3.28463V3.26106V3.23846H1.67934V3.26106V3.28463V3.30723H2.51534V3.28463Z" fill="#F5F5F5"/>
<path d="M1.89641 1.91655C1.89641 1.98392 1.98513 2.04081 2.09016 2.04081C2.19519 2.04081 2.28391 1.98392 2.28391 1.91655C2.28391 1.84919 2.19519 1.7923 2.09016 1.7923C1.98513 1.7923 1.89641 1.84922 1.89641 1.91655Z" fill="#F5F5F5"/>
<path d="M1.71522 3.58847C1.5265 3.5874 1.33816 3.59534 1.18419 3.612V3.87739C1.3651 3.9218 1.57585 3.95584 1.71522 3.97279V3.58847Z" fill="#F5F5F5"/>
<path d="M0.742996 4.89811C0.81759 4.89629 0.981434 4.86257 1.09237 4.76341C1.12678 4.73266 1.18546 4.67609 1.268 4.59407C1.21203 4.58094 1.11812 4.56503 1.06806 4.55713L0.742996 4.89811Z" fill="#F5F5F5"/>
<path d="M1.82288 3.17278V3.05214C1.80875 3.02804 1.79416 3.00319 1.77928 2.97791L1.65094 3.08471C1.6765 3.13495 1.69288 3.16688 1.69591 3.17278H1.82288Z" fill="#F5F5F5"/>
<path d="M0.83524 3.71748C0.834834 3.71944 0.833834 3.72402 0.840271 3.73353C0.864084 3.76847 0.933021 3.80183 1.02449 3.83219V3.63495C0.914646 3.65576 0.842709 3.68333 0.83524 3.71748Z" fill="#F5F5F5"/>
<path d="M2.30365 3.62337V3.37292H1.88028V3.98466H1.98794C2.162 3.98469 2.30365 3.82257 2.30365 3.62337Z" fill="#F5F5F5"/>
<path d="M1.62318 2.71364C1.39649 2.33132 1.1544 1.92948 1.09531 1.84985C1.10374 1.88543 1.12421 1.95233 1.17193 2.07748C1.23353 2.23903 1.38303 2.54866 1.50681 2.79796L1.62318 2.71364Z" fill="#F5F5F5"/>
<path d="M1.53525 2.8551C1.5675 2.91968 1.59703 2.97839 1.62194 3.02759L1.74715 2.9234C1.71737 2.8728 1.68672 2.82092 1.65544 2.76807L1.53525 2.8551Z" fill="#F5F5F5"/>
<path d="M1.82286 3.98347V3.58997C1.80614 3.58957 1.78943 3.58918 1.77261 3.58893V3.97915C1.79196 3.98115 1.8088 3.98262 1.82286 3.98347Z" fill="#F5F5F5"/>
<path d="M2.30369 2.83496H1.88031V2.90372H2.30369V2.83496Z" fill="#F5F5F5"/>
<path d="M2.89209 3.16869V3.1728H2.91362C2.9295 3.1728 2.94234 3.18746 2.94234 3.20566V3.34015C2.94234 3.35831 2.92953 3.37297 2.91362 3.37297H2.89209V3.37708C2.89209 3.39514 2.90496 3.40991 2.92078 3.40991H3.40518C3.421 3.40991 3.43387 3.39514 3.43387 3.37708V3.16872C3.43387 3.15067 3.421 3.13586 3.40518 3.13586H2.92081C2.90497 3.13586 2.89209 3.15056 2.89209 3.16869Z" fill="#F5F5F5"/>
<path d="M3.43406 4.89635L3.11078 4.55719C3.06072 4.56509 2.96684 4.58097 2.91084 4.59413C2.99487 4.67755 3.05356 4.73412 3.08647 4.76354C3.19569 4.86105 3.35619 4.89527 3.43406 4.89635Z" fill="#F5F5F5"/>
<path d="M2.7701 3.26106V3.28463V3.30723H2.88494V3.23846H2.7701V3.26106Z" fill="#F5F5F5"/>
<path d="M2.85794 4.54139C2.88847 4.5302 2.96172 4.516 3.02287 4.50538L2.32869 3.79657C2.30987 3.84491 2.28362 3.88864 2.25131 3.92551L2.26959 3.94418C2.52106 4.20181 2.71766 4.4013 2.85794 4.54139Z" fill="#F5F5F5"/>
<path d="M1.30258 3.377V3.37288H1.28105C1.26518 3.37288 1.25233 3.35822 1.25233 3.34006V3.20558C1.25233 3.18741 1.26515 3.17272 1.28105 3.17272H1.30258V3.1686C1.30258 3.15055 1.28971 3.13574 1.27387 3.13574H0.789491C0.773678 3.13574 0.760803 3.15051 0.760803 3.1686V3.37696C0.760803 3.39502 0.773678 3.40979 0.789491 3.40979H1.27387C1.28971 3.40989 1.30258 3.39516 1.30258 3.377Z" fill="#F5F5F5"/>
<path d="M1.4246 3.28463V3.26106V3.23846H1.30975V3.30723H1.4246V3.28463Z" fill="#F5F5F5"/>
<path d="M2.52796 3.08471L2.39962 2.97791C2.38649 3.00025 2.37365 3.0221 2.36105 3.04352V3.17275H2.48299C2.48602 3.16685 2.5024 3.13495 2.52796 3.08471Z" fill="#F5F5F5"/>
<path d="M1.91869 2.63388H2.2654L2.18909 2.53705H1.995L1.91869 2.63388Z" fill="#F5F5F5"/>
<path d="M2.30369 2.7027H1.88031V2.76942H2.30369V2.7027Z" fill="#F5F5F5"/>
<path d="M2.09018 2.10647C2.06228 2.10647 2.03612 2.10236 2.01125 2.09628V2.46755H2.1709V2.09589C2.14553 2.10225 2.11871 2.10647 2.09018 2.10647Z" fill="#F5F5F5"/>
<path d="M1.88028 3.0383H2.30184C2.30178 3.03419 2.3024 3.03019 2.30372 3.02622V2.96954H1.88028V3.0383Z" fill="#F5F5F5"/>
<path d="M2.43172 2.9234L2.55694 3.02759C2.58184 2.97843 2.61137 2.91968 2.64362 2.8551L2.52344 2.76807C2.49212 2.82095 2.46153 2.8728 2.43172 2.9234Z" fill="#F5F5F5"/>
<path d="M2.30369 3.10419H1.88031V3.17295H2.30369V3.10419Z" fill="#F5F5F5"/>
<path d="M2.67205 2.79793C2.7958 2.54863 2.9453 2.23901 3.00693 2.07745C3.0548 1.95198 3.07521 1.88508 3.08365 1.84961C3.02562 1.92752 2.78293 2.33029 2.55568 2.71361L2.67205 2.79793Z" fill="#F5F5F5"/>
<path d="M3.51403 4.8911L3.13969 4.49831C3.13341 4.49173 3.12494 4.48847 3.11644 4.48998C3.11325 4.49044 3.10603 4.49159 3.09644 4.49309C3.09591 4.49248 3.09572 4.49166 3.09513 4.49112L2.34897 3.72924C2.3566 3.69531 2.36103 3.65994 2.36103 3.62336V3.37292H2.54203C2.56535 3.40764 2.6016 3.43042 2.64269 3.43042C2.68381 3.43042 2.72006 3.40764 2.74335 3.37292H2.83463V3.37703C2.83463 3.43135 2.87325 3.47554 2.92072 3.47554H3.40513C3.4526 3.47554 3.49122 3.43135 3.49122 3.37703V3.16868C3.49122 3.11436 3.4526 3.07016 3.40513 3.07016H2.92081C2.87335 3.07016 2.83472 3.11436 2.83472 3.16868V3.17279H2.74344C2.72013 3.13807 2.68388 3.11529 2.64278 3.11529C2.6116 3.11529 2.58341 3.12866 2.56125 3.14997C2.658 2.96046 2.96197 2.35974 3.0596 2.10375C3.16431 1.82907 3.15588 1.7936 3.13113 1.77082C3.105 1.7469 3.07194 1.7744 3.05947 1.78487C3.01144 1.82481 2.54572 2.61208 2.3611 2.92588V2.66679C2.3611 2.66604 2.36078 2.66543 2.36075 2.66475L2.36072 2.66468C2.36006 2.65356 2.35463 2.6443 2.34669 2.63897L2.22835 2.48879V2.07583C2.29678 2.04222 2.34138 1.98415 2.34138 1.91657C2.34138 1.81008 2.23103 1.72662 2.09019 1.72662C1.94935 1.72662 1.839 1.81008 1.839 1.91657C1.839 1.98472 1.88441 2.04307 1.95381 2.07651V2.49115L1.83772 2.6385C1.829 2.64415 1.82285 2.65445 1.82285 2.66672V2.93439C1.64181 2.62663 1.16788 1.82513 1.11947 1.78484C1.10694 1.77447 1.07385 1.74693 1.04778 1.77078C1.023 1.79356 1.01456 1.82903 1.11931 2.10372C1.21385 2.35159 1.50175 2.92252 1.60778 3.13063C1.59085 3.12108 1.57206 3.11525 1.55197 3.11525C1.51085 3.11525 1.4746 3.13803 1.45131 3.17275H1.36V3.16864C1.36 3.11432 1.32138 3.07013 1.27391 3.07013H0.78947C0.742001 3.07013 0.703376 3.11432 0.703376 3.16864V3.377C0.703376 3.43131 0.742001 3.47551 0.78947 3.47551H1.27385C1.32131 3.47551 1.35994 3.43131 1.35994 3.377V3.37289H1.45122C1.47453 3.40761 1.51078 3.43038 1.55188 3.43038C1.59297 3.43038 1.62925 3.40761 1.65256 3.37289H1.82281V3.52414C1.55669 3.51763 0.819908 3.51663 0.779533 3.7016C0.775783 3.71873 0.775408 3.7453 0.795001 3.77397C0.872658 3.88779 1.26622 3.97085 1.55169 4.01476L1.08369 4.49105C1.0831 4.49166 1.08288 4.49248 1.08235 4.49309C1.07275 4.49155 1.06553 4.49044 1.06235 4.48998C1.05372 4.48855 1.04535 4.49173 1.0391 4.49831L0.66472 4.8911C0.653408 4.9029 0.652251 4.92285 0.662095 4.93633C0.674501 4.95343 0.706033 4.96176 0.748189 4.96176C0.85197 4.96176 1.02028 4.91112 1.1276 4.81526C1.21603 4.73624 1.46103 4.49044 1.85585 4.08474C1.87294 4.06718 1.88425 4.05553 1.88928 4.05041H1.98785C2.06975 4.05041 2.14528 4.01973 2.20691 3.96835L2.23122 3.9932C2.68578 4.45876 2.9616 4.73531 3.05113 4.81526C3.15844 4.91123 3.32672 4.96176 3.43047 4.96176C3.47266 4.96176 3.50416 4.95343 3.5166 4.93633C3.52653 4.92285 3.52531 4.9029 3.51403 4.8911ZM1.88028 3.98469V3.37296H2.30366V3.6234C2.30366 3.82257 2.162 3.98469 1.98791 3.98469H1.88028ZM1.02453 3.83226C0.933095 3.80186 0.864158 3.76854 0.840314 3.7336C0.833845 3.72409 0.834845 3.71955 0.835283 3.71755C0.842751 3.68337 0.914689 3.65583 1.02453 3.63502V3.83226ZM1.09531 1.84984C1.15438 1.92947 1.3965 2.33124 1.62319 2.71363L1.50681 2.79794C1.38306 2.54865 1.23356 2.23902 1.17194 2.07747C1.12422 1.95232 1.10375 1.88549 1.09531 1.84984ZM1.77925 2.97795C1.79413 3.00319 1.80869 3.02801 1.82285 3.05218V3.17282H1.69585C1.69281 3.16696 1.67644 3.13503 1.65088 3.08475L1.77925 2.97795ZM1.62194 3.02765C1.59703 2.97848 1.5675 2.91973 1.53525 2.85516L1.65544 2.76812C1.68675 2.82101 1.71738 2.87289 1.74716 2.92345L1.62194 3.02765ZM1.82288 3.59V3.98351C1.80885 3.98262 1.79197 3.98115 1.77263 3.97922V3.589C1.78941 3.58929 1.80613 3.58961 1.82288 3.59ZM1.18419 3.61196C1.33819 3.59529 1.5265 3.58739 1.71522 3.58843V3.97275C1.57585 3.95584 1.3651 3.92176 1.18419 3.87735V3.61196ZM1.08191 3.62522C1.09644 3.62301 1.11131 3.6209 1.12678 3.61886V3.86262C1.11144 3.85847 1.09653 3.85428 1.08191 3.84999V3.62522ZM1.62731 4.02585C1.70244 4.03636 1.76538 4.04355 1.80635 4.0473C1.60422 4.25494 1.44191 4.42011 1.32088 4.54132C1.29031 4.53017 1.21719 4.51604 1.15616 4.50539L1.62731 4.02585ZM1.268 4.59407C1.18547 4.67609 1.12678 4.73273 1.09238 4.76341C0.981439 4.8626 0.817626 4.89636 0.743001 4.89811L1.06806 4.55709C1.11813 4.56507 1.212 4.58094 1.268 4.59407ZM1.67935 3.30724V3.28467V3.26107V3.23851H2.51538V3.26107V3.28467V3.30724H1.67935ZM2.28394 1.91657C2.28394 1.98393 2.19522 2.04082 2.09019 2.04082C1.98516 2.04082 1.89644 1.98393 1.89644 1.91657C1.89644 1.8492 1.98516 1.79231 2.09019 1.79231C2.19522 1.79231 2.28394 1.84923 2.28394 1.91657ZM1.88028 2.90389V2.83513H2.30366V2.90389H1.88028ZM2.30366 2.96954V3.02622C2.30235 3.03019 2.30172 3.03419 2.30178 3.0383H1.88028V2.96954H2.30366ZM1.88028 2.76941V2.70269H2.30366V2.76941H1.88028ZM2.1891 2.53706L2.26541 2.63393H1.91869L1.995 2.53706H2.1891ZM2.01125 2.46762V2.09635C2.03616 2.10243 2.06228 2.10654 2.09019 2.10654C2.11875 2.10654 2.14553 2.10232 2.17091 2.09596V2.46762H2.01125ZM1.88028 3.10403H2.30366V3.17279H1.88028V3.10403ZM3.00694 2.07747C2.94535 2.23902 2.79585 2.54865 2.67206 2.79794L2.55569 2.71363C2.78294 2.33031 3.02563 1.92754 3.08366 1.84963C3.07522 1.8851 3.05478 1.952 3.00694 2.07747ZM2.71272 3.26107V3.28467C2.71272 3.32883 2.68135 3.36473 2.64275 3.36473C2.60416 3.36473 2.57278 3.32883 2.57278 3.28467V3.26107C2.57278 3.21691 2.60416 3.18101 2.64275 3.18101C2.68131 3.18101 2.71272 3.21691 2.71272 3.26107ZM2.55694 3.02765L2.43172 2.92345C2.4615 2.87286 2.49216 2.82097 2.52344 2.76812L2.64363 2.85516C2.61138 2.9197 2.58181 2.97841 2.55694 3.02765ZM2.36106 3.04353C2.37366 3.02207 2.38647 3.00026 2.39963 2.97791L2.52797 3.08472C2.50241 3.13496 2.48603 3.16689 2.483 3.17279H2.36106V3.04353ZM2.32869 3.79654L3.02288 4.50535C2.96178 4.51604 2.88847 4.5302 2.85794 4.54136C2.71763 4.40116 2.52106 4.20177 2.26956 3.94411L2.25128 3.92544C2.28363 3.88868 2.30981 3.84492 2.32869 3.79654ZM3.11081 4.55713L3.4341 4.89629C3.35619 4.89525 3.19572 4.8611 3.08653 4.76352C3.05363 4.73409 2.99494 4.67749 2.91091 4.5941C2.96688 4.58094 3.06075 4.56507 3.11081 4.55713ZM3.43394 3.16868V3.37703C3.43394 3.39509 3.42106 3.40986 3.40525 3.40986H2.92081C2.905 3.40986 2.89213 3.39509 2.89213 3.37703V3.37292H2.91366C2.92953 3.37292 2.94238 3.35826 2.94238 3.3401V3.20561C2.94238 3.18745 2.92956 3.17275 2.91366 3.17275H2.89213V3.16864C2.89213 3.15058 2.905 3.13578 2.92081 3.13578H3.40522C3.42103 3.13585 3.43394 3.15055 3.43394 3.16868ZM2.88494 3.30724H2.77013V3.28467V3.26107V3.23851H2.88494V3.30724ZM0.760783 3.377V3.16864C0.760783 3.15058 0.773658 3.13578 0.78947 3.13578H1.27385C1.28966 3.13578 1.30256 3.15055 1.30256 3.16864V3.17275H1.28103C1.26516 3.17275 1.25231 3.18741 1.25231 3.20561V3.3401C1.25231 3.35826 1.26513 3.37292 1.28103 3.37292H1.30256V3.37703C1.30256 3.39509 1.28969 3.40986 1.27385 3.40986H0.78947C0.773658 3.40989 0.760783 3.39516 0.760783 3.377ZM1.30975 3.23847H1.42456V3.26104V3.28464V3.3072H1.30975V3.23847ZM1.62194 3.28464C1.62194 3.3288 1.59053 3.3647 1.55197 3.3647C1.51341 3.3647 1.482 3.3288 1.482 3.28464V3.26104C1.482 3.21688 1.51338 3.18098 1.55197 3.18098C1.59056 3.18098 1.62194 3.21688 1.62194 3.26104V3.28464Z" fill="#D23741"/>
</g>
<defs>
<clipPath id="clip0_1420_3099">
<rect width="16" height="14" fill="white"/>
</clipPath>
</defs>
</svg>
