<svg width="18" height="17" viewBox="0 0 18 17" fill="none" xmlns="http://www.w3.org/2000/svg">
<mask id="path-1-outside-1_1037_7229" maskUnits="userSpaceOnUse" x="0.000976562" y="-0.499207" width="18" height="18" fill="black">
<rect fill="white" x="0.000976562" y="-0.499207" width="18" height="18"/>
<path d="M8.00117 11.5C8.00117 11.2348 8.10653 10.9804 8.29406 10.7929C8.4816 10.6053 8.73596 10.5 9.00117 10.5C9.26639 10.5 9.52074 10.6053 9.70828 10.7929C9.89581 10.9804 10.0012 11.2348 10.0012 11.5C10.0012 11.7652 9.89581 12.0196 9.70828 12.2071C9.52074 12.3946 9.26639 12.5 9.00117 12.5C8.73596 12.5 8.4816 12.3946 8.29406 12.2071C8.10653 12.0196 8.00117 11.7652 8.00117 11.5ZM8.10017 5.49499C8.08685 5.36883 8.10021 5.24128 8.13937 5.12062C8.17853 4.99995 8.24263 4.88887 8.32749 4.79458C8.41235 4.70028 8.5161 4.62488 8.63198 4.57327C8.74787 4.52166 8.87331 4.49499 9.00017 4.49499C9.12703 4.49499 9.25247 4.52166 9.36836 4.57327C9.48425 4.62488 9.58799 4.70028 9.67285 4.79458C9.75772 4.88887 9.82181 4.99995 9.86097 5.12062C9.90013 5.24128 9.91349 5.36883 9.90017 5.49499L9.55017 9.00199C9.53595 9.13795 9.47187 9.26383 9.37031 9.35533C9.26874 9.44683 9.13688 9.49746 9.00017 9.49746C8.86347 9.49746 8.73161 9.44683 8.63004 9.35533C8.52847 9.26383 8.46439 9.13795 8.45017 9.00199L8.10017 5.49499Z"/>
<path d="M11.2732 3.01299L10.3522 2.06899L11.0672 1.37099L11.6892 2.00799L12.5792 1.99699C12.9644 1.99243 13.3467 2.06495 13.7035 2.21028C14.0603 2.35561 14.3845 2.57082 14.6569 2.84325C14.9293 3.11568 15.1446 3.43983 15.2899 3.79665C15.4352 4.15347 15.5077 4.53574 15.5032 4.92099L15.4932 5.81099L16.1292 6.43299C16.4046 6.70216 16.6235 7.02367 16.7729 7.37864C16.9224 7.7336 16.9994 8.11485 16.9994 8.49999C16.9994 8.88513 16.9224 9.26638 16.7729 9.62134C16.6235 9.97631 16.4046 10.2978 16.1292 10.567L15.4922 11.189L15.5032 12.079C15.5077 12.4642 15.4352 12.8465 15.2899 13.2033C15.1446 13.5601 14.9293 13.8843 14.6569 14.1567C14.3845 14.4292 14.0603 14.6444 13.7035 14.7897C13.3467 14.935 12.9644 15.0075 12.5792 15.003L11.6892 14.993L11.0672 15.629C10.798 15.9044 10.4765 16.1233 10.1215 16.2728C9.76656 16.4222 9.38531 16.4992 9.00017 16.4992C8.61503 16.4992 8.23378 16.4222 7.87882 16.2728C7.52386 16.1233 7.20234 15.9044 6.93317 15.629L6.31117 14.992L5.42117 15.003C5.03592 15.0075 4.65365 14.935 4.29683 14.7897C3.94002 14.6444 3.61586 14.4292 3.34343 14.1567C3.071 13.8843 2.85579 13.5601 2.71046 13.2033C2.56513 12.8465 2.49261 12.4642 2.49717 12.079L2.50717 11.189L1.87117 10.567C1.59571 10.2978 1.37683 9.97631 1.22739 9.62134C1.07796 9.26638 1.00098 8.88513 1.00098 8.49999C1.00098 8.11485 1.07796 7.7336 1.22739 7.37864C1.37683 7.02367 1.59571 6.70216 1.87117 6.43299L2.50817 5.81099L2.49717 4.92099C2.49261 4.53574 2.56513 4.15347 2.71046 3.79665C2.85579 3.43983 3.071 3.11568 3.34343 2.84325C3.61586 2.57082 3.94002 2.35561 4.29683 2.21028C4.65365 2.06495 5.03592 1.99243 5.42117 1.99699L6.31117 2.00699L6.93317 1.37099C7.20234 1.09553 7.52386 0.876649 7.87882 0.727212C8.23378 0.577774 8.61503 0.500793 9.00017 0.500793C9.38531 0.500793 9.76656 0.577774 10.1215 0.727212C10.4765 0.876649 10.798 1.09553 11.0672 1.37099L10.3522 2.06899C10.1761 1.88878 9.96584 1.74557 9.73366 1.6478C9.50148 1.55003 9.2521 1.49967 9.00017 1.49967C8.74825 1.49967 8.49886 1.55003 8.26668 1.6478C8.0345 1.74557 7.82421 1.88878 7.64817 2.06899L6.72817 3.01299L5.40817 2.99699C5.15635 2.99417 4.9065 3.04171 4.67331 3.13682C4.44012 3.23192 4.22829 3.37267 4.05026 3.55079C3.87223 3.72891 3.7316 3.94082 3.63661 4.17406C3.54163 4.4073 3.49422 4.65717 3.49717 4.90899L3.51317 6.22699L2.56917 7.14799C2.38896 7.32403 2.24576 7.53432 2.14799 7.7665C2.05022 7.99868 1.99985 8.24806 1.99985 8.49999C1.99985 8.75191 2.05022 9.0013 2.14799 9.23348C2.24576 9.46566 2.38896 9.67595 2.56917 9.85199L3.51317 10.772L3.49717 12.092C3.49436 12.3438 3.5419 12.5937 3.637 12.8268C3.7321 13.06 3.87285 13.2719 4.05097 13.4499C4.22909 13.6279 4.441 13.7686 4.67424 13.8635C4.90748 13.9585 5.15735 14.0059 5.40917 14.003L6.72717 13.987L7.64817 14.931C7.82421 15.1112 8.0345 15.2544 8.26668 15.3522C8.49886 15.4499 8.74825 15.5003 9.00017 15.5003C9.2521 15.5003 9.50148 15.4499 9.73366 15.3522C9.96584 15.2544 10.1761 15.1112 10.3522 14.931L11.2722 13.987L12.5922 14.003C12.844 14.0058 13.0938 13.9583 13.327 13.8632C13.5602 13.7681 13.7721 13.6273 13.9501 13.4492C14.1281 13.2711 14.2687 13.0592 14.3637 12.8259C14.4587 12.5927 14.5061 12.3428 14.5032 12.091L14.4872 10.773L15.4312 9.85199C15.6114 9.67595 15.7546 9.46566 15.8524 9.23348C15.9501 9.0013 16.0005 8.75191 16.0005 8.49999C16.0005 8.24806 15.9501 7.99868 15.8524 7.7665C15.7546 7.53432 15.6114 7.32403 15.4312 7.14799L14.4872 6.22799L14.5032 4.90799C14.506 4.65617 14.4584 4.40632 14.3633 4.17313C14.2682 3.93994 14.1275 3.72811 13.9494 3.55008C13.7712 3.37205 13.5593 3.23141 13.3261 3.13643C13.0929 3.04145 12.843 2.99404 12.5912 2.99699L11.2732 3.01299Z"/>
</mask>
<path d="M8.00117 11.5C8.00117 11.2348 8.10653 10.9804 8.29406 10.7929C8.4816 10.6053 8.73596 10.5 9.00117 10.5C9.26639 10.5 9.52074 10.6053 9.70828 10.7929C9.89581 10.9804 10.0012 11.2348 10.0012 11.5C10.0012 11.7652 9.89581 12.0196 9.70828 12.2071C9.52074 12.3946 9.26639 12.5 9.00117 12.5C8.73596 12.5 8.4816 12.3946 8.29406 12.2071C8.10653 12.0196 8.00117 11.7652 8.00117 11.5ZM8.10017 5.49499C8.08685 5.36883 8.10021 5.24128 8.13937 5.12062C8.17853 4.99995 8.24263 4.88887 8.32749 4.79458C8.41235 4.70028 8.5161 4.62488 8.63198 4.57327C8.74787 4.52166 8.87331 4.49499 9.00017 4.49499C9.12703 4.49499 9.25247 4.52166 9.36836 4.57327C9.48425 4.62488 9.58799 4.70028 9.67285 4.79458C9.75772 4.88887 9.82181 4.99995 9.86097 5.12062C9.90013 5.24128 9.91349 5.36883 9.90017 5.49499L9.55017 9.00199C9.53595 9.13795 9.47187 9.26383 9.37031 9.35533C9.26874 9.44683 9.13688 9.49746 9.00017 9.49746C8.86347 9.49746 8.73161 9.44683 8.63004 9.35533C8.52847 9.26383 8.46439 9.13795 8.45017 9.00199L8.10017 5.49499Z" fill="#11578F"/>
<path d="M11.2732 3.01299L10.3522 2.06899L11.0672 1.37099L11.6892 2.00799L12.5792 1.99699C12.9644 1.99243 13.3467 2.06495 13.7035 2.21028C14.0603 2.35561 14.3845 2.57082 14.6569 2.84325C14.9293 3.11568 15.1446 3.43983 15.2899 3.79665C15.4352 4.15347 15.5077 4.53574 15.5032 4.92099L15.4932 5.81099L16.1292 6.43299C16.4046 6.70216 16.6235 7.02367 16.7729 7.37864C16.9224 7.7336 16.9994 8.11485 16.9994 8.49999C16.9994 8.88513 16.9224 9.26638 16.7729 9.62134C16.6235 9.97631 16.4046 10.2978 16.1292 10.567L15.4922 11.189L15.5032 12.079C15.5077 12.4642 15.4352 12.8465 15.2899 13.2033C15.1446 13.5601 14.9293 13.8843 14.6569 14.1567C14.3845 14.4292 14.0603 14.6444 13.7035 14.7897C13.3467 14.935 12.9644 15.0075 12.5792 15.003L11.6892 14.993L11.0672 15.629C10.798 15.9044 10.4765 16.1233 10.1215 16.2728C9.76656 16.4222 9.38531 16.4992 9.00017 16.4992C8.61503 16.4992 8.23378 16.4222 7.87882 16.2728C7.52386 16.1233 7.20234 15.9044 6.93317 15.629L6.31117 14.992L5.42117 15.003C5.03592 15.0075 4.65365 14.935 4.29683 14.7897C3.94002 14.6444 3.61586 14.4292 3.34343 14.1567C3.071 13.8843 2.85579 13.5601 2.71046 13.2033C2.56513 12.8465 2.49261 12.4642 2.49717 12.079L2.50717 11.189L1.87117 10.567C1.59571 10.2978 1.37683 9.97631 1.22739 9.62134C1.07796 9.26638 1.00098 8.88513 1.00098 8.49999C1.00098 8.11485 1.07796 7.7336 1.22739 7.37864C1.37683 7.02367 1.59571 6.70216 1.87117 6.43299L2.50817 5.81099L2.49717 4.92099C2.49261 4.53574 2.56513 4.15347 2.71046 3.79665C2.85579 3.43983 3.071 3.11568 3.34343 2.84325C3.61586 2.57082 3.94002 2.35561 4.29683 2.21028C4.65365 2.06495 5.03592 1.99243 5.42117 1.99699L6.31117 2.00699L6.93317 1.37099C7.20234 1.09553 7.52386 0.876649 7.87882 0.727212C8.23378 0.577774 8.61503 0.500793 9.00017 0.500793C9.38531 0.500793 9.76656 0.577774 10.1215 0.727212C10.4765 0.876649 10.798 1.09553 11.0672 1.37099L10.3522 2.06899C10.1761 1.88878 9.96584 1.74557 9.73366 1.6478C9.50148 1.55003 9.2521 1.49967 9.00017 1.49967C8.74825 1.49967 8.49886 1.55003 8.26668 1.6478C8.0345 1.74557 7.82421 1.88878 7.64817 2.06899L6.72817 3.01299L5.40817 2.99699C5.15635 2.99417 4.9065 3.04171 4.67331 3.13682C4.44012 3.23192 4.22829 3.37267 4.05026 3.55079C3.87223 3.72891 3.7316 3.94082 3.63661 4.17406C3.54163 4.4073 3.49422 4.65717 3.49717 4.90899L3.51317 6.22699L2.56917 7.14799C2.38896 7.32403 2.24576 7.53432 2.14799 7.7665C2.05022 7.99868 1.99985 8.24806 1.99985 8.49999C1.99985 8.75191 2.05022 9.0013 2.14799 9.23348C2.24576 9.46566 2.38896 9.67595 2.56917 9.85199L3.51317 10.772L3.49717 12.092C3.49436 12.3438 3.5419 12.5937 3.637 12.8268C3.7321 13.06 3.87285 13.2719 4.05097 13.4499C4.22909 13.6279 4.441 13.7686 4.67424 13.8635C4.90748 13.9585 5.15735 14.0059 5.40917 14.003L6.72717 13.987L7.64817 14.931C7.82421 15.1112 8.0345 15.2544 8.26668 15.3522C8.49886 15.4499 8.74825 15.5003 9.00017 15.5003C9.2521 15.5003 9.50148 15.4499 9.73366 15.3522C9.96584 15.2544 10.1761 15.1112 10.3522 14.931L11.2722 13.987L12.5922 14.003C12.844 14.0058 13.0938 13.9583 13.327 13.8632C13.5602 13.7681 13.7721 13.6273 13.9501 13.4492C14.1281 13.2711 14.2687 13.0592 14.3637 12.8259C14.4587 12.5927 14.5061 12.3428 14.5032 12.091L14.4872 10.773L15.4312 9.85199C15.6114 9.67595 15.7546 9.46566 15.8524 9.23348C15.9501 9.0013 16.0005 8.75191 16.0005 8.49999C16.0005 8.24806 15.9501 7.99868 15.8524 7.7665C15.7546 7.53432 15.6114 7.32403 15.4312 7.14799L14.4872 6.22799L14.5032 4.90799C14.506 4.65617 14.4584 4.40632 14.3633 4.17313C14.2682 3.93994 14.1275 3.72811 13.9494 3.55008C13.7712 3.37205 13.5593 3.23141 13.3261 3.13643C13.0929 3.04145 12.843 2.99404 12.5912 2.99699L11.2732 3.01299Z" fill="#11578F"/>
<path d="M10.457 2.17632L11.172 1.47832L10.9624 1.26365L10.2474 1.96165L10.457 2.17632ZM8.29406 10.7929L8.5062 11.005L8.29406 10.7929ZM8.29406 12.2071L8.5062 11.995L8.29406 12.2071ZM8.10017 5.49499L8.39869 5.4652L8.39851 5.4635L8.10017 5.49499ZM9.00017 4.49499V4.19499V4.49499ZM9.90017 5.49499L9.60182 5.4635L9.60165 5.4652L9.90017 5.49499ZM9.55017 9.00199L9.84855 9.0332L9.84869 9.03178L9.55017 9.00199ZM8.45017 9.00199L8.15165 9.03178L8.1518 9.03319L8.45017 9.00199ZM11.2732 3.01299L11.0584 3.22249L11.1482 3.31453L11.2768 3.31297L11.2732 3.01299ZM10.3522 2.06899L10.5669 1.85949L10.5668 1.85936L10.3522 2.06899ZM11.0672 1.37099L11.2818 1.1614L11.2817 1.16132L11.0672 1.37099ZM11.6892 2.00799L11.4745 2.21758L11.5643 2.30955L11.6929 2.30797L11.6892 2.00799ZM12.5792 1.99699L12.5756 1.69701L12.5755 1.69701L12.5792 1.99699ZM15.5032 4.92099L15.2032 4.91744L15.2032 4.91762L15.5032 4.92099ZM15.4932 5.81099L15.1932 5.80762L15.1918 5.93582L15.2834 6.02547L15.4932 5.81099ZM16.1292 6.43299L15.9194 6.64747L15.9195 6.64756L16.1292 6.43299ZM16.1292 10.567L16.3388 10.7816L16.3388 10.7816L16.1292 10.567ZM15.4922 11.189L15.2826 10.9743L15.1906 11.0642L15.1922 11.1927L15.4922 11.189ZM15.5032 12.079L15.8032 12.0754L15.8031 12.0753L15.5032 12.079ZM12.5792 15.003L12.5827 14.703L12.5825 14.703L12.5792 15.003ZM11.6892 14.993L11.6925 14.693L11.5643 14.6916L11.4747 14.7832L11.6892 14.993ZM11.0672 15.629L10.8527 15.4192L10.8526 15.4193L11.0672 15.629ZM6.93317 15.629L6.71853 15.8386L6.7186 15.8387L6.93317 15.629ZM6.31117 14.992L6.52582 14.7824L6.43601 14.6904L6.30746 14.692L6.31117 14.992ZM5.42117 15.003L5.42472 15.303L5.42488 15.303L5.42117 15.003ZM2.49717 12.079L2.79715 12.0825L2.79715 12.0824L2.49717 12.079ZM2.50717 11.189L2.80715 11.1924L2.80859 11.0642L2.71693 10.9745L2.50717 11.189ZM1.87117 10.567L2.08093 10.3525L2.08084 10.3524L1.87117 10.567ZM1.22739 9.62134L1.50389 9.50494L1.22739 9.62134ZM1.22739 7.37864L1.50389 7.49504L1.22739 7.37864ZM1.87117 6.43299L1.66158 6.21834L1.6615 6.21842L1.87117 6.43299ZM2.50817 5.81099L2.71776 6.02563L2.80974 5.93582L2.80815 5.80728L2.50817 5.81099ZM2.49717 4.92099L2.19719 4.92454L2.19719 4.9247L2.49717 4.92099ZM5.42117 1.99699L5.41762 2.29697L5.4178 2.29697L5.42117 1.99699ZM6.31117 2.00699L6.3078 2.30697L6.43601 2.30841L6.52565 2.21675L6.31117 2.00699ZM6.93317 1.37099L7.14765 1.58075L7.14774 1.58066L6.93317 1.37099ZM7.87882 0.727212L7.99522 1.00371L7.87882 0.727212ZM9.00017 0.500793V0.800793V0.500793ZM10.1215 0.727212L10.0051 1.00371L10.1215 0.727212ZM7.64817 2.06899L7.43357 1.85936L7.43333 1.85961L7.64817 2.06899ZM6.72817 3.01299L6.72454 3.31297L6.85321 3.31453L6.94302 3.22237L6.72817 3.01299ZM5.40817 2.99699L5.41181 2.69701L5.41153 2.69701L5.40817 2.99699ZM3.49717 4.90899L3.19719 4.9125L3.19719 4.91263L3.49717 4.90899ZM3.51317 6.22699L3.72267 6.44172L3.81471 6.35192L3.81315 6.22335L3.51317 6.22699ZM2.56917 7.14799L2.35967 6.93326L2.35954 6.93338L2.56917 7.14799ZM2.56917 9.85199L2.35954 10.0666L2.35979 10.0668L2.56917 9.85199ZM3.51317 10.772L3.81315 10.7756L3.81471 10.647L3.72256 10.5571L3.51317 10.772ZM3.49717 12.092L3.19719 12.0884L3.19719 12.0886L3.49717 12.092ZM5.40917 14.003L5.41268 14.303L5.41281 14.303L5.40917 14.003ZM6.72717 13.987L6.9419 13.7775L6.85211 13.6855L6.72353 13.687L6.72717 13.987ZM7.64817 14.931L7.43344 15.1405L7.43357 15.1406L7.64817 14.931ZM10.3522 14.931L10.5668 15.1406L10.567 15.1404L10.3522 14.931ZM11.2722 13.987L11.2758 13.687L11.1471 13.6855L11.0573 13.7776L11.2722 13.987ZM12.5922 14.003L12.5885 14.303L12.5888 14.303L12.5922 14.003ZM14.5032 12.091L14.8032 12.0875L14.8032 12.0873L14.5032 12.091ZM14.4872 10.773L14.2777 10.5583L14.1856 10.6481L14.1872 10.7766L14.4872 10.773ZM15.4312 9.85199L15.6407 10.0667L15.6408 10.0666L15.4312 9.85199ZM15.4312 7.14799L15.6408 6.93338L15.6406 6.93314L15.4312 7.14799ZM14.4872 6.22799L14.1872 6.22435L14.1856 6.35302L14.2778 6.44283L14.4872 6.22799ZM14.5032 4.90799L14.8032 4.91162L14.8032 4.91134L14.5032 4.90799ZM12.5912 2.99699L12.5877 2.69701L12.5875 2.69701L12.5912 2.99699ZM8.30117 11.5C8.30117 11.3143 8.37492 11.1363 8.5062 11.005L8.08193 10.5807C7.83814 10.8245 7.70117 11.1552 7.70117 11.5H8.30117ZM8.5062 11.005C8.63747 10.8737 8.81552 10.8 9.00117 10.8V10.2C8.65639 10.2 8.32573 10.337 8.08193 10.5807L8.5062 11.005ZM9.00117 10.8C9.18682 10.8 9.36487 10.8737 9.49615 11.005L9.92041 10.5807C9.67661 10.337 9.34595 10.2 9.00117 10.2V10.8ZM9.49615 11.005C9.62742 11.1363 9.70117 11.3143 9.70117 11.5H10.3012C10.3012 11.1552 10.1642 10.8245 9.92041 10.5807L9.49615 11.005ZM9.70117 11.5C9.70117 11.6856 9.62742 11.8637 9.49615 11.995L9.92041 12.4192C10.1642 12.1754 10.3012 11.8448 10.3012 11.5H9.70117ZM9.49615 11.995C9.36487 12.1262 9.18682 12.2 9.00117 12.2V12.8C9.34595 12.8 9.67661 12.663 9.92041 12.4192L9.49615 11.995ZM9.00117 12.2C8.81552 12.2 8.63747 12.1262 8.5062 11.995L8.08193 12.4192C8.32573 12.663 8.65639 12.8 9.00117 12.8V12.2ZM8.5062 11.995C8.37492 11.8637 8.30117 11.6856 8.30117 11.5H7.70117C7.70117 11.8448 7.83814 12.1754 8.08193 12.4192L8.5062 11.995ZM8.39851 5.4635C8.38961 5.37916 8.39854 5.29389 8.42472 5.21323L7.85402 5.02801C7.80188 5.18867 7.7841 5.3585 7.80183 5.52648L8.39851 5.4635ZM8.42472 5.21323C8.4509 5.13256 8.49375 5.0583 8.55048 4.99527L8.1045 4.59389C7.99151 4.71944 7.90617 4.86734 7.85402 5.02801L8.42472 5.21323ZM8.55048 4.99527C8.60721 4.93223 8.67656 4.88182 8.75403 4.84732L8.50993 4.29922C8.35563 4.36794 8.2175 4.46833 8.1045 4.59389L8.55048 4.99527ZM8.75403 4.84732C8.8315 4.81282 8.91536 4.79499 9.00017 4.79499V4.19499C8.83126 4.19499 8.66423 4.2305 8.50993 4.29922L8.75403 4.84732ZM9.00017 4.79499C9.08498 4.79499 9.16884 4.81282 9.24631 4.84732L9.49041 4.29922C9.33611 4.2305 9.16908 4.19499 9.00017 4.19499V4.79499ZM9.24631 4.84732C9.32378 4.88182 9.39313 4.93223 9.44986 4.99527L9.89584 4.59389C9.78284 4.46833 9.64471 4.36794 9.49041 4.29922L9.24631 4.84732ZM9.44986 4.99527C9.5066 5.0583 9.54944 5.13256 9.57562 5.21323L10.1463 5.02801C10.0942 4.86734 10.0088 4.71944 9.89584 4.59389L9.44986 4.99527ZM9.57562 5.21323C9.6018 5.29389 9.61073 5.37916 9.60183 5.4635L10.1985 5.52648C10.2162 5.3585 10.1985 5.18867 10.1463 5.02801L9.57562 5.21323ZM9.60165 5.4652L9.25165 8.9722L9.84869 9.03178L10.1987 5.52478L9.60165 5.4652ZM9.2518 8.97078C9.24529 9.03299 9.21598 9.09058 9.16951 9.13244L9.5711 9.57822C9.72777 9.43708 9.82661 9.24292 9.84854 9.03319L9.2518 8.97078ZM9.16951 9.13244C9.12304 9.1743 9.06272 9.19746 9.00017 9.19746V9.79746C9.21104 9.79746 9.41443 9.71936 9.5711 9.57822L9.16951 9.13244ZM9.00017 9.19746C8.93763 9.19746 8.8773 9.1743 8.83083 9.13244L8.42924 9.57822C8.58591 9.71936 8.7893 9.79746 9.00017 9.79746V9.19746ZM8.83083 9.13244C8.78437 9.09058 8.75505 9.03299 8.74854 8.97078L8.1518 9.03319C8.17373 9.24292 8.27257 9.43708 8.42924 9.57822L8.83083 9.13244ZM8.74869 8.9722L8.39869 5.4652L7.80165 5.52478L8.15165 9.03178L8.74869 8.9722ZM11.4879 2.80349L10.5669 1.85949L10.1374 2.27849L11.0584 3.22249L11.4879 2.80349ZM10.8525 1.58058L11.4745 2.21758L11.9038 1.7984L11.2818 1.1614L10.8525 1.58058ZM11.6929 2.30797L12.5829 2.29697L12.5755 1.69701L11.6855 1.70801L11.6929 2.30797ZM12.5827 2.29697C12.928 2.29288 13.2706 2.35787 13.5903 2.48812L13.8167 1.93244C13.4228 1.77202 13.0009 1.69198 12.5756 1.69701L12.5827 2.29697ZM13.5903 2.48812C13.9101 2.61836 14.2006 2.81123 14.4448 3.05538L14.869 2.63112C14.5683 2.3304 14.2105 2.09285 13.8167 1.93244L13.5903 2.48812ZM14.4448 3.05538C14.6889 3.29953 14.8818 3.59004 15.012 3.90981L15.5677 3.68349C15.4073 3.28963 15.1698 2.93183 14.869 2.63112L14.4448 3.05538ZM15.012 3.90981C15.1423 4.22959 15.2073 4.57218 15.2032 4.91744L15.8032 4.92454C15.8082 4.4993 15.7281 4.07734 15.5677 3.68349L15.012 3.90981ZM15.2032 4.91762L15.1932 5.80762L15.7932 5.81436L15.8032 4.92436L15.2032 4.91762ZM15.2834 6.02547L15.9194 6.64747L16.3389 6.21851L15.7029 5.59651L15.2834 6.02547ZM15.9195 6.64756C16.1664 6.88878 16.3625 7.17692 16.4965 7.49504L17.0494 7.26223C16.8845 6.87042 16.6429 6.51553 16.3388 6.21842L15.9195 6.64756ZM16.4965 7.49504C16.6304 7.81316 16.6994 8.15483 16.6994 8.49999H17.2994C17.2994 8.07487 17.2144 7.65404 17.0494 7.26223L16.4965 7.49504ZM16.6994 8.49999C16.6994 8.84515 16.6304 9.18682 16.4965 9.50494L17.0494 9.73775C17.2144 9.34593 17.2994 8.92511 17.2994 8.49999H16.6994ZM16.4965 9.50494C16.3625 9.82305 16.1664 10.1112 15.9195 10.3524L16.3388 10.7816C16.6429 10.4844 16.8845 10.1296 17.0494 9.73775L16.4965 9.50494ZM15.9196 10.3523L15.2826 10.9743L15.7018 11.4036L16.3388 10.7816L15.9196 10.3523ZM15.1922 11.1927L15.2032 12.0827L15.8031 12.0753L15.7921 11.1853L15.1922 11.1927ZM15.2032 12.0825C15.2073 12.4278 15.1423 12.7704 15.012 13.0902L15.5677 13.3165C15.7281 12.9226 15.8082 12.5007 15.8032 12.0754L15.2032 12.0825ZM15.012 13.0902C14.8818 13.4099 14.6889 13.7004 14.4448 13.9446L14.869 14.3689C15.1698 14.0681 15.4073 13.7103 15.5677 13.3165L15.012 13.0902ZM14.4448 13.9446C14.2006 14.1887 13.9101 14.3816 13.5903 14.5119L13.8167 15.0675C14.2105 14.9071 14.5683 14.6696 14.869 14.3689L14.4448 13.9446ZM13.5903 14.5119C13.2706 14.6421 12.928 14.7071 12.5827 14.703L12.5756 15.303C13.0009 15.308 13.4228 15.228 13.8167 15.0675L13.5903 14.5119ZM12.5825 14.703L11.6925 14.693L11.6858 15.293L12.5758 15.303L12.5825 14.703ZM11.4747 14.7832L10.8527 15.4192L11.2817 15.8387L11.9037 15.2027L11.4747 14.7832ZM10.8526 15.4193C10.6114 15.6662 10.3232 15.8623 10.0051 15.9963L10.2379 16.5493C10.6297 16.3843 10.9846 16.1427 11.2817 15.8387L10.8526 15.4193ZM10.0051 15.9963C9.68701 16.1302 9.34533 16.1992 9.00017 16.1992V16.7992C9.42529 16.7992 9.84612 16.7142 10.2379 16.5493L10.0051 15.9963ZM9.00017 16.1992C8.65501 16.1992 8.31334 16.1302 7.99522 15.9963L7.76242 16.5493C8.15423 16.7142 8.57506 16.7992 9.00017 16.7992V16.1992ZM7.99522 15.9963C7.67711 15.8623 7.38897 15.6662 7.14774 15.4193L6.7186 15.8387C7.01572 16.1427 7.3706 16.3843 7.76242 16.5493L7.99522 15.9963ZM7.14782 15.4194L6.52582 14.7824L6.09653 15.2016L6.71853 15.8386L7.14782 15.4194ZM6.30746 14.692L5.41746 14.703L5.42488 15.303L6.31488 15.292L6.30746 14.692ZM5.41762 14.703C5.07236 14.7071 4.72977 14.6421 4.41 14.5119L4.18367 15.0675C4.57753 15.228 4.99948 15.308 5.42472 15.303L5.41762 14.703ZM4.41 14.5119C4.09022 14.3816 3.79971 14.1887 3.55556 13.9446L3.1313 14.3689C3.43201 14.6696 3.78982 14.9071 4.18367 15.0675L4.41 14.5119ZM3.55556 13.9446C3.31141 13.7004 3.11854 13.4099 2.9883 13.0902L2.43262 13.3165C2.59304 13.7103 2.83059 14.0681 3.1313 14.3689L3.55556 13.9446ZM2.9883 13.0902C2.85805 12.7704 2.79306 12.4278 2.79715 12.0825L2.19719 12.0754C2.19216 12.5007 2.27221 12.9226 2.43262 13.3165L2.9883 13.0902ZM2.79715 12.0824L2.80715 11.1924L2.20719 11.1856L2.19719 12.0756L2.79715 12.0824ZM2.71693 10.9745L2.08093 10.3525L1.66141 10.7815L2.29741 11.4035L2.71693 10.9745ZM2.08084 10.3524C1.83398 10.1112 1.63782 9.82305 1.50389 9.50494L0.950898 9.73775C1.11585 10.1296 1.35745 10.4844 1.6615 10.7816L2.08084 10.3524ZM1.50389 9.50494C1.36997 9.18682 1.30098 8.84515 1.30098 8.49999H0.700977C0.700977 8.92511 0.785948 9.34593 0.950898 9.73775L1.50389 9.50494ZM1.30098 8.49999C1.30098 8.15483 1.36997 7.81316 1.50389 7.49504L0.950898 7.26223C0.785948 7.65404 0.700977 8.07487 0.700977 8.49999H1.30098ZM1.50389 7.49504C1.63782 7.17692 1.83397 6.88878 2.08084 6.64756L1.6615 6.21842C1.35745 6.51553 1.11585 6.87042 0.950898 7.26223L1.50389 7.49504ZM2.08076 6.64763L2.71776 6.02563L2.29858 5.59634L1.66158 6.21834L2.08076 6.64763ZM2.80815 5.80728L2.79715 4.91728L2.19719 4.9247L2.20819 5.8147L2.80815 5.80728ZM2.79715 4.91744C2.79306 4.57218 2.85805 4.22959 2.9883 3.90981L2.43262 3.68349C2.27221 4.07734 2.19216 4.4993 2.19719 4.92454L2.79715 4.91744ZM2.9883 3.90981C3.11854 3.59004 3.31141 3.29953 3.55556 3.05538L3.1313 2.63112C2.83059 2.93183 2.59304 3.28963 2.43262 3.68349L2.9883 3.90981ZM3.55556 3.05538C3.79971 2.81123 4.09022 2.61836 4.41 2.48812L4.18367 1.93244C3.78982 2.09285 3.43201 2.3304 3.1313 2.63112L3.55556 3.05538ZM4.41 2.48812C4.72977 2.35787 5.07236 2.29288 5.41762 2.29697L5.42472 1.69701C4.99948 1.69198 4.57753 1.77202 4.18367 1.93244L4.41 2.48812ZM5.4178 2.29697L6.3078 2.30697L6.31454 1.70701L5.42454 1.69701L5.4178 2.29697ZM6.52565 2.21675L7.14765 1.58075L6.71869 1.16123L6.09669 1.79723L6.52565 2.21675ZM7.14774 1.58066C7.38897 1.33379 7.67711 1.13763 7.99522 1.00371L7.76242 0.450715C7.3706 0.615665 7.01572 0.857266 6.7186 1.16132L7.14774 1.58066ZM7.99522 1.00371C8.31334 0.869783 8.65501 0.800793 9.00017 0.800793V0.200793C8.57506 0.200793 8.15423 0.285765 7.76242 0.450715L7.99522 1.00371ZM9.00017 0.800793C9.34533 0.800793 9.68701 0.869783 10.0051 1.00371L10.2379 0.450715C9.84612 0.285765 9.42529 0.200793 9.00017 0.200793V0.800793ZM10.0051 1.00371C10.3232 1.13763 10.6114 1.33379 10.8526 1.58066L11.2817 1.16132C10.9846 0.857266 10.6297 0.615665 10.2379 0.450715L10.0051 1.00371ZM10.5668 1.85936C10.3628 1.65054 10.1191 1.48461 9.85009 1.37132L9.61724 1.92429C9.81256 2.00654 9.98947 2.12701 10.1376 2.27862L10.5668 1.85936ZM9.85009 1.37132C9.58105 1.25803 9.29209 1.19967 9.00017 1.19967V1.79967C9.21211 1.79967 9.42191 1.84204 9.61724 1.92429L9.85009 1.37132ZM9.00017 1.19967C8.70826 1.19967 8.41929 1.25803 8.15025 1.37132L8.38311 1.92429C8.57843 1.84204 8.78823 1.79967 9.00017 1.79967V1.19967ZM8.15025 1.37132C7.88122 1.48461 7.63755 1.65054 7.43357 1.85936L7.86277 2.27862C8.01087 2.12701 8.18778 2.00654 8.38311 1.92429L8.15025 1.37132ZM7.43333 1.85961L6.51333 2.80361L6.94302 3.22237L7.86302 2.27837L7.43333 1.85961ZM6.73181 2.71301L5.41181 2.69701L5.40454 3.29697L6.72454 3.31297L6.73181 2.71301ZM5.41153 2.69701C5.11973 2.69375 4.83023 2.74883 4.56002 2.85903L4.7866 3.4146C4.98278 3.3346 5.19297 3.2946 5.40482 3.29697L5.41153 2.69701ZM4.56002 2.85903C4.28982 2.96923 4.04436 3.13232 3.83807 3.33871L4.26245 3.76287C4.41222 3.61302 4.59043 3.49461 4.7866 3.4146L4.56002 2.85903ZM3.83807 3.33871C3.63178 3.54511 3.46883 3.79065 3.35877 4.06091L3.91446 4.2872C3.99436 4.09098 4.11268 3.91271 4.26245 3.76287L3.83807 3.33871ZM3.35877 4.06091C3.24871 4.33118 3.19378 4.62071 3.19719 4.9125L3.79715 4.90548C3.79467 4.69363 3.83456 4.48342 3.91446 4.2872L3.35877 4.06091ZM3.19719 4.91263L3.21319 6.23063L3.81315 6.22335L3.79715 4.90535L3.19719 4.91263ZM3.30367 6.01226L2.35967 6.93326L2.77867 7.36272L3.72267 6.44172L3.30367 6.01226ZM2.35954 6.93338C2.15072 7.13737 1.98479 7.38104 1.8715 7.65007L2.42447 7.88293C2.50672 7.6876 2.6272 7.51069 2.7788 7.36259L2.35954 6.93338ZM1.8715 7.65007C1.75821 7.91911 1.69985 8.20807 1.69985 8.49999H2.29985C2.29985 8.28805 2.34222 8.07825 2.42447 7.88293L1.8715 7.65007ZM1.69985 8.49999C1.69985 8.7919 1.75821 9.08087 1.8715 9.34991L2.42447 9.11705C2.34222 8.92173 2.29985 8.71193 2.29985 8.49999H1.69985ZM1.8715 9.34991C1.98479 9.61894 2.15072 9.86261 2.35954 10.0666L2.7788 9.63739C2.6272 9.48929 2.50672 9.31238 2.42447 9.11705L1.8715 9.34991ZM2.35979 10.0668L3.30379 10.9868L3.72256 10.5571L2.77856 9.63714L2.35979 10.0668ZM3.21319 10.7684L3.19719 12.0884L3.79715 12.0956L3.81315 10.7756L3.21319 10.7684ZM3.19719 12.0886C3.19393 12.3804 3.24901 12.6699 3.35921 12.9401L3.91479 12.7136C3.83478 12.5174 3.79478 12.3072 3.79715 12.0953L3.19719 12.0886ZM3.35921 12.9401C3.46941 13.2103 3.6325 13.4558 3.83889 13.6621L4.26305 13.2377C4.1132 13.0879 3.99479 12.9097 3.91479 12.7136L3.35921 12.9401ZM3.83889 13.6621C4.04529 13.8684 4.29083 14.0313 4.5611 14.1414L4.78739 13.5857C4.59117 13.5058 4.4129 13.3875 4.26305 13.2377L3.83889 13.6621ZM4.5611 14.1414C4.83136 14.2514 5.12089 14.3064 5.41268 14.303L5.40566 13.703C5.19381 13.7055 4.9836 13.6656 4.78739 13.5857L4.5611 14.1414ZM5.41281 14.303L6.73081 14.287L6.72353 13.687L5.40553 13.703L5.41281 14.303ZM6.51244 14.1965L7.43344 15.1405L7.8629 14.7215L6.9419 13.7775L6.51244 14.1965ZM7.43357 15.1406C7.63755 15.3494 7.88122 15.5154 8.15025 15.6287L8.38311 15.0757C8.18778 14.9934 8.01087 14.873 7.86277 14.7214L7.43357 15.1406ZM8.15025 15.6287C8.41929 15.7419 8.70826 15.8003 9.00017 15.8003V15.2003C8.78823 15.2003 8.57843 15.1579 8.38311 15.0757L8.15025 15.6287ZM9.00017 15.8003C9.29209 15.8003 9.58105 15.7419 9.85009 15.6287L9.61724 15.0757C9.42191 15.1579 9.21211 15.2003 9.00017 15.2003V15.8003ZM9.85009 15.6287C10.1191 15.5154 10.3628 15.3494 10.5668 15.1406L10.1376 14.7214C9.98947 14.873 9.81256 14.9934 9.61724 15.0757L9.85009 15.6287ZM10.567 15.1404L11.487 14.1964L11.0573 13.7776L10.1373 14.7216L10.567 15.1404ZM11.2685 14.287L12.5885 14.303L12.5958 13.703L11.2758 13.687L11.2685 14.287ZM12.5888 14.303C12.8806 14.3062 13.1701 14.2511 13.4403 14.1409L13.2137 13.5854C13.0176 13.6654 12.8074 13.7054 12.5955 13.703L12.5888 14.303ZM13.4403 14.1409C13.7105 14.0307 13.956 13.8677 14.1623 13.6613L13.7379 13.2371C13.5881 13.387 13.4099 13.5054 13.2137 13.5854L13.4403 14.1409ZM14.1623 13.6613C14.3686 13.4549 14.5315 13.2093 14.6416 12.9391L14.0859 12.7128C14.006 12.909 13.8877 13.0873 13.7379 13.2371L14.1623 13.6613ZM14.6416 12.9391C14.7516 12.6688 14.8066 12.3793 14.8032 12.0875L14.2032 12.0945C14.2057 12.3063 14.1658 12.5166 14.0859 12.7128L14.6416 12.9391ZM14.8032 12.0873L14.7872 10.7693L14.1872 10.7766L14.2032 12.0946L14.8032 12.0873ZM14.6967 10.9877L15.6407 10.0667L15.2217 9.63726L14.2777 10.5583L14.6967 10.9877ZM15.6408 10.0666C15.8496 9.86261 16.0156 9.61894 16.1288 9.34991L15.5759 9.11705C15.4936 9.31238 15.3731 9.48929 15.2215 9.63739L15.6408 10.0666ZM16.1288 9.34991C16.2421 9.08087 16.3005 8.7919 16.3005 8.49999H15.7005C15.7005 8.71193 15.6581 8.92173 15.5759 9.11705L16.1288 9.34991ZM16.3005 8.49999C16.3005 8.20807 16.2421 7.91911 16.1288 7.65007L15.5759 7.88293C15.6581 8.07825 15.7005 8.28805 15.7005 8.49999H16.3005ZM16.1288 7.65007C16.0156 7.38104 15.8496 7.13737 15.6408 6.93338L15.2215 7.36259C15.3731 7.51069 15.4936 7.6876 15.5759 7.88293L16.1288 7.65007ZM15.6406 6.93314L14.6966 6.01314L14.2778 6.44283L15.2218 7.36283L15.6406 6.93314ZM14.7872 6.23162L14.8032 4.91162L14.2032 4.90435L14.1872 6.22435L14.7872 6.23162ZM14.8032 4.91134C14.8064 4.61955 14.7513 4.33004 14.6411 4.05984L14.0856 4.28642C14.1656 4.4826 14.2056 4.69279 14.2032 4.90463L14.8032 4.91134ZM14.6411 4.05984C14.5309 3.78964 14.3678 3.54418 14.1614 3.33789L13.7373 3.76227C13.8871 3.91204 14.0056 4.09024 14.0856 4.28642L14.6411 4.05984ZM14.1614 3.33789C13.9551 3.1316 13.7095 2.96864 13.4392 2.85859L13.213 3.41428C13.4092 3.49418 13.5874 3.61249 13.7373 3.76227L14.1614 3.33789ZM13.4392 2.85859C13.169 2.74853 12.8795 2.69359 12.5877 2.69701L12.5947 3.29697C12.8065 3.29449 13.0167 3.33437 13.213 3.41428L13.4392 2.85859ZM12.5875 2.69701L11.2695 2.71301L11.2768 3.31297L12.5948 3.29697L12.5875 2.69701Z" fill="#11578F" mask="url(#path-1-outside-1_1037_7229)"/>
</svg>
