<svg width="27" height="27" viewBox="0 0 27 27" fill="none" xmlns="http://www.w3.org/2000/svg">
<g clip-path="url(#clip0_580_2217)">
<path d="M16.9881 1.46797C16.5338 1.00313 15.9913 0.633768 15.3923 0.381593C14.7933 0.129417 14.1499 -0.000488281 13.5 -0.000488281C12.8501 -0.000488281 12.2067 0.129417 11.6077 0.381593C11.0087 0.633768 10.4662 1.00313 10.0119 1.46797L8.96231 2.54459L7.46044 2.52603C6.81033 2.51833 6.16524 2.64071 5.56312 2.88595C4.96099 3.1312 4.41398 3.49436 3.95425 3.95409C3.49452 4.41382 3.13136 4.96083 2.88611 5.56296C2.64087 6.16508 2.51849 6.81017 2.52619 7.46028L2.54306 8.96215L1.46981 10.0118C1.00497 10.466 0.635615 11.0086 0.383439 11.6076C0.131263 12.2066 0.00135803 12.8499 0.00135803 13.4998C0.00135803 14.1498 0.131263 14.7931 0.383439 15.3921C0.635615 15.9911 1.00497 16.5337 1.46981 16.9879L2.54475 18.0375L2.52619 19.5394C2.51849 20.1895 2.64087 20.8346 2.88611 21.4367C3.13136 22.0389 3.49452 22.5859 3.95425 23.0456C4.41398 23.5053 4.96099 23.8685 5.56312 24.1137C6.16524 24.359 6.81033 24.4813 7.46044 24.4737L8.96231 24.4568L10.0119 25.53C10.4662 25.9949 11.0087 26.3642 11.6077 26.6164C12.2067 26.8686 12.8501 26.9985 13.5 26.9985C14.1499 26.9985 14.7933 26.8686 15.3923 26.6164C15.9913 26.3642 16.5338 25.9949 16.9881 25.53L18.0377 24.4551L19.5396 24.4737C20.1897 24.4813 20.8348 24.359 21.4369 24.1137C22.039 23.8685 22.586 23.5053 23.0457 23.0456C23.5055 22.5859 23.8686 22.0389 24.1139 21.4367C24.3591 20.8346 24.4815 20.1895 24.4738 19.5394L24.4569 18.0375L25.5302 16.9879C25.995 16.5337 26.3644 15.9911 26.6166 15.3921C26.8687 14.7931 26.9986 14.1498 26.9986 13.4998C26.9986 12.8499 26.8687 12.2066 26.6166 11.6076C26.3644 11.0086 25.995 10.466 25.5302 10.0118L24.4552 8.96215L24.4738 7.46028C24.4815 6.81017 24.3591 6.16508 24.1139 5.56296C23.8686 4.96083 23.5055 4.41382 23.0457 3.95409C22.586 3.49436 22.039 3.1312 21.4369 2.88595C20.8348 2.64071 20.1897 2.51833 19.5396 2.52603L18.0377 2.5429L16.9881 1.46965V1.46797ZM17.4724 11.566L12.4099 16.6285C12.3315 16.707 12.2384 16.7694 12.1359 16.8119C12.0334 16.8545 11.9235 16.8764 11.8125 16.8764C11.7015 16.8764 11.5916 16.8545 11.4891 16.8119C11.3866 16.7694 11.2935 16.707 11.2151 16.6285L8.68387 14.0972C8.60543 14.0188 8.5432 13.9256 8.50074 13.8231C8.45829 13.7206 8.43643 13.6108 8.43643 13.4998C8.43643 13.3889 8.45829 13.279 8.50074 13.1765C8.5432 13.074 8.60543 12.9809 8.68387 12.9025C8.76232 12.824 8.85545 12.7618 8.95795 12.7193C9.06045 12.6769 9.17031 12.655 9.28125 12.655C9.39219 12.655 9.50205 12.6769 9.60455 12.7193C9.70704 12.7618 9.80018 12.824 9.87862 12.9025L11.8125 14.838L16.2776 10.3712C16.4361 10.2128 16.6509 10.1238 16.875 10.1238C17.0991 10.1238 17.3139 10.2128 17.4724 10.3712C17.6308 10.5296 17.7198 10.7445 17.7198 10.9686C17.7198 11.1927 17.6308 11.4075 17.4724 11.566Z" fill="#6EC1ED"/>
</g>
<defs>
<clipPath id="clip0_580_2217">
<rect width="27" height="27" fill="white"/>
</clipPath>
</defs>
</svg>
