<svg width="17" height="18" viewBox="0 0 17 18" fill="none" xmlns="http://www.w3.org/2000/svg">
<g clip-path="url(#clip0_89_5915)">
<path d="M3.88288 1.91107C3.82015 1.83038 3.74098 1.76397 3.65062 1.71623C3.56025 1.6685 3.46076 1.64054 3.35876 1.63421C3.25676 1.62787 3.15458 1.64332 3.05901 1.67951C2.96344 1.71571 2.87666 1.77182 2.80444 1.84413L1.70581 2.94382C1.19263 3.45807 1.0035 4.18588 1.22769 4.82444C2.15816 7.46751 3.67175 9.86717 5.65619 11.8454C7.63448 13.8299 10.0341 15.3434 12.6772 16.2739C13.3158 16.4981 14.0436 16.309 14.5578 15.7958L15.6564 14.6972C15.7287 14.625 15.7849 14.5382 15.8211 14.4426C15.8573 14.347 15.8727 14.2449 15.8664 14.1429C15.86 14.0409 15.8321 13.9414 15.7843 13.851C15.7366 13.7607 15.6702 13.6815 15.5895 13.6188L13.1383 11.7126C13.0521 11.6458 12.9519 11.5994 12.8451 11.5769C12.7383 11.5545 12.6279 11.5565 12.5221 11.583L10.1952 12.1642C9.8846 12.2418 9.5592 12.2377 9.25067 12.1522C8.94215 12.0668 8.66101 11.9029 8.43463 11.6765L5.82513 9.06594C5.59857 8.83967 5.43447 8.55858 5.34882 8.25005C5.26317 7.94152 5.25888 7.61606 5.33638 7.30538L5.91863 4.97851C5.94509 4.87268 5.94717 4.76222 5.92472 4.65547C5.90226 4.54871 5.85586 4.44846 5.789 4.36226L3.88288 1.91107ZM2.00225 1.04301C2.18818 0.857016 2.41156 0.712708 2.65754 0.619666C2.90352 0.526623 3.16648 0.486976 3.42896 0.503356C3.69143 0.519735 3.94743 0.591768 4.17993 0.71467C4.41244 0.837571 4.61613 1.00853 4.7775 1.21619L6.68363 3.66632C7.03319 4.11576 7.15644 4.70119 7.01831 5.25369L6.43713 7.58057C6.40708 7.70109 6.4087 7.82733 6.44184 7.94704C6.47498 8.06674 6.5385 8.17585 6.62625 8.26376L9.23681 10.8743C9.32483 10.9622 9.43411 11.0259 9.55402 11.059C9.67394 11.0922 9.80039 11.0937 9.92106 11.0634L12.2469 10.4823C12.5195 10.4141 12.8041 10.4088 13.0791 10.4668C13.3541 10.5248 13.6123 10.6445 13.8343 10.8169L16.2844 12.7231C17.1652 13.4084 17.2459 14.7099 16.4576 15.4973L15.3589 16.5959C14.5727 17.3821 13.3976 17.7274 12.3021 17.3418C9.49838 16.3553 6.95273 14.7501 4.854 12.6455C2.74949 10.5471 1.1444 8.00181 0.15775 5.19844C-0.226875 4.10407 0.118438 2.92788 0.904688 2.14163L2.00331 1.04301H2.00225Z" fill="#49A7D9"/>
</g>
<defs>
<clipPath id="clip0_89_5915">
<rect width="17" height="17" fill="white" transform="translate(0 0.5)"/>
</clipPath>
</defs>
</svg>
