<svg width="21" height="20" viewBox="0 0 21 20" fill="none" xmlns="http://www.w3.org/2000/svg">
<path d="M18.68 18.753L15.109 15.353C13.7782 16.4376 12.1486 17.1359 10.4137 17.365C8.67871 17.5942 6.91113 17.3446 5.32064 16.6458C3.73015 15.947 2.38349 14.8284 1.44042 13.4227C0.497346 12.0169 -0.00255739 10.3831 9.83834e-06 8.71491C0.00117321 7.33291 0.347148 5.97096 1.00942 4.74128C1.6717 3.51161 2.63131 2.44942 3.80918 1.64225C4.98706 0.835073 6.34947 0.306026 7.78415 0.098703C9.21883 -0.10862 10.6847 0.0117148 12.061 0.449792C13.4372 0.887869 14.6845 1.63115 15.7 2.61837C16.7155 3.6056 17.4701 4.80851 17.9016 6.12798C18.3332 7.44745 18.4293 8.8457 18.1822 10.2075C17.935 11.5693 17.3516 12.8557 16.48 13.9606L20.094 17.4035C20.2351 17.5382 20.3311 17.7097 20.37 17.8963C20.4088 18.083 20.3887 18.2764 20.3122 18.4522C20.2357 18.6279 20.1062 18.7782 19.9401 18.8839C19.7741 18.9897 19.5788 19.0462 19.379 19.0463C19.2478 19.0448 19.1182 19.018 18.9981 18.9676C18.878 18.9172 18.7698 18.8442 18.68 18.753ZM4.10001 3.89587C2.9285 5.01247 2.19983 6.48144 2.03818 8.05241C1.87652 9.62338 2.2919 11.1991 3.21351 12.5111C4.13512 13.8231 5.50592 14.79 7.09229 15.2472C8.67867 15.7044 10.3824 15.6236 11.9132 15.0184C13.444 14.4132 14.707 13.3212 15.4871 11.9285C16.2672 10.5357 16.5159 8.92848 16.1911 7.3806C15.8662 5.83273 14.9878 4.44004 13.7055 3.43991C12.4232 2.43978 10.8164 1.8941 9.15901 1.89587C7.26121 1.89862 5.44197 2.61783 4.10001 3.89587Z" fill="#92929D"/>
</svg>
