<svg width="42" height="42" viewBox="0 0 42 42" fill="none" xmlns="http://www.w3.org/2000/svg">
<g filter="url(#filter0_d_1283_3471)">
<rect x="10" y="10" width="22" height="22" rx="11" fill="#6EC1ED"/>
</g>
<path d="M19.125 19.8125C19.0255 19.8125 18.9302 19.8487 18.8598 19.9132C18.7895 19.9776 18.75 20.0651 18.75 20.1562C18.75 20.2474 18.7895 20.3349 18.8598 20.3993C18.9302 20.4638 19.0255 20.5 19.125 20.5H22.875C22.9745 20.5 23.0698 20.4638 23.1402 20.3993C23.2105 20.3349 23.25 20.2474 23.25 20.1562C23.25 20.0651 23.2105 19.9776 23.1402 19.9132C23.0698 19.8487 22.9745 19.8125 22.875 19.8125H19.125ZM18.75 21.5312C18.75 21.4401 18.7895 21.3526 18.8598 21.2882C18.9302 21.2237 19.0255 21.1875 19.125 21.1875H22.875C22.9745 21.1875 23.0698 21.2237 23.1402 21.2882C23.2105 21.3526 23.25 21.4401 23.25 21.5312C23.25 21.6224 23.2105 21.7099 23.1402 21.7743C23.0698 21.8388 22.9745 21.875 22.875 21.875H19.125C19.0255 21.875 18.9302 21.8388 18.8598 21.7743C18.7895 21.7099 18.75 21.6224 18.75 21.5312ZM18.75 22.9062C18.75 22.8151 18.7895 22.7276 18.8598 22.6632C18.9302 22.5987 19.0255 22.5625 19.125 22.5625H20.625C20.7245 22.5625 20.8198 22.5987 20.8902 22.6632C20.9605 22.7276 21 22.8151 21 22.9062C21 22.9974 20.9605 23.0849 20.8902 23.1493C20.8198 23.2138 20.7245 23.25 20.625 23.25H19.125C19.0255 23.25 18.9302 23.2138 18.8598 23.1493C18.7895 23.0849 18.75 22.9974 18.75 22.9062Z" fill="white"/>
<path d="M22.125 15H18C17.6022 15 17.2206 15.1449 16.9393 15.4027C16.658 15.6606 16.5 16.0103 16.5 16.375V24.625C16.5 24.9897 16.658 25.3394 16.9393 25.5973C17.2206 25.8551 17.6022 26 18 26H24C24.3978 26 24.7794 25.8551 25.0607 25.5973C25.342 25.3394 25.5 24.9897 25.5 24.625V18.0938L22.125 15ZM22.125 15.6875V17.0625C22.125 17.336 22.2435 17.5983 22.4545 17.7917C22.6655 17.9851 22.9516 18.0938 23.25 18.0938H24.75V24.625C24.75 24.8073 24.671 24.9822 24.5303 25.1111C24.3897 25.2401 24.1989 25.3125 24 25.3125H18C17.8011 25.3125 17.6103 25.2401 17.4697 25.1111C17.329 24.9822 17.25 24.8073 17.25 24.625V16.375C17.25 16.1927 17.329 16.0178 17.4697 15.8889C17.6103 15.7599 17.8011 15.6875 18 15.6875H22.125Z" fill="white"/>
<defs>
<filter id="filter0_d_1283_3471" x="0" y="0" width="42" height="42" filterUnits="userSpaceOnUse" color-interpolation-filters="sRGB">
<feFlood flood-opacity="0" result="BackgroundImageFix"/>
<feColorMatrix in="SourceAlpha" type="matrix" values="0 0 0 0 0 0 0 0 0 0 0 0 0 0 0 0 0 0 127 0" result="hardAlpha"/>
<feOffset/>
<feGaussianBlur stdDeviation="5"/>
<feComposite in2="hardAlpha" operator="out"/>
<feColorMatrix type="matrix" values="0 0 0 0 1 0 0 0 0 1 0 0 0 0 1 0 0 0 0.25 0"/>
<feBlend mode="normal" in2="BackgroundImageFix" result="effect1_dropShadow_1283_3471"/>
<feBlend mode="normal" in="SourceGraphic" in2="effect1_dropShadow_1283_3471" result="shape"/>
</filter>
</defs>
</svg>
