<svg width="50" height="50" viewBox="0 0 50 50" fill="none" xmlns="http://www.w3.org/2000/svg">
<path d="M25 50C38.8071 50 50 38.8071 50 25C50 11.1929 38.8071 0 25 0C11.1929 0 0 11.1929 0 25C0 38.8071 11.1929 50 25 50Z" fill="#5DD1B1"/>
<g clip-path="url(#clip0_1238_3471)">
<path d="M33.25 15.375C33.6147 15.375 33.9644 15.5199 34.2223 15.7777C34.4801 16.0356 34.625 16.3853 34.625 16.75V27.75C34.625 28.1147 34.4801 28.4644 34.2223 28.7223C33.9644 28.9801 33.6147 29.125 33.25 29.125H29.8125C29.3856 29.125 28.9645 29.2244 28.5827 29.4153C28.2008 29.6062 27.8687 29.8835 27.6125 30.225L25 33.7079L22.3875 30.225C22.1313 29.8835 21.7992 29.6062 21.4173 29.4153C21.0355 29.2244 20.6144 29.125 20.1875 29.125H16.75C16.3853 29.125 16.0356 28.9801 15.7777 28.7223C15.5199 28.4644 15.375 28.1147 15.375 27.75V16.75C15.375 16.3853 15.5199 16.0356 15.7777 15.7777C16.0356 15.5199 16.3853 15.375 16.75 15.375H33.25ZM16.75 14C16.0207 14 15.3212 14.2897 14.8055 14.8055C14.2897 15.3212 14 16.0207 14 16.75V27.75C14 28.4793 14.2897 29.1788 14.8055 29.6945C15.3212 30.2103 16.0207 30.5 16.75 30.5H20.1875C20.401 30.5 20.6115 30.5497 20.8024 30.6452C20.9933 30.7406 21.1594 30.8792 21.2875 31.05L23.9 34.5329C24.0281 34.7036 24.1942 34.8422 24.3851 34.9377C24.576 35.0332 24.7865 35.0829 25 35.0829C25.2135 35.0829 25.424 35.0332 25.6149 34.9377C25.8058 34.8422 25.9719 34.7036 26.1 34.5329L28.7125 31.05C28.8406 30.8792 29.0067 30.7406 29.1976 30.6452C29.3885 30.5497 29.599 30.5 29.8125 30.5H33.25C33.9793 30.5 34.6788 30.2103 35.1945 29.6945C35.7103 29.1788 36 28.4793 36 27.75V16.75C36 16.0207 35.7103 15.3212 35.1945 14.8055C34.6788 14.2897 33.9793 14 33.25 14H16.75Z" fill="white"/>
<path d="M23.7157 20.545C23.4479 20.1279 23.0519 19.809 22.5873 19.6362C22.1227 19.4634 21.6145 19.4461 21.1393 19.5869C20.664 19.7276 20.2472 20.0189 19.9516 20.4168C19.656 20.8147 19.4975 21.2978 19.5 21.7935C19.5002 22.204 19.6107 22.6069 19.8199 22.9601C20.029 23.3133 20.3292 23.6038 20.689 23.8014C21.0489 23.9989 21.4551 24.0962 21.8654 24.0831C22.2757 24.07 22.6749 23.9469 23.0214 23.7267C22.8412 24.2616 22.5057 24.8322 21.953 25.4042C21.8472 25.5137 21.7893 25.6606 21.7919 25.8127C21.7944 25.9649 21.8573 26.1097 21.9668 26.2155C22.0762 26.3213 22.2231 26.3792 22.3752 26.3766C22.5274 26.3741 22.6722 26.3112 22.778 26.2017C24.8212 24.0842 24.5559 21.7825 23.7157 20.5477V20.545ZM29.2157 20.545C28.9479 20.1279 28.5519 19.809 28.0873 19.6362C27.6227 19.4634 27.1145 19.4461 26.6393 19.5869C26.164 19.7276 25.7472 20.0189 25.4516 20.4168C25.156 20.8147 24.9975 21.2978 25 21.7935C25.0002 22.204 25.1107 22.6069 25.3199 22.9601C25.529 23.3133 25.8292 23.6038 26.189 23.8014C26.5489 23.9989 26.9551 24.0962 27.3654 24.0831C27.7757 24.07 28.1749 23.9469 28.5214 23.7267C28.3412 24.2616 28.0058 24.8322 27.453 25.4042C27.3472 25.5137 27.2893 25.6606 27.2919 25.8127C27.2944 25.9649 27.3573 26.1097 27.4667 26.2155C27.5762 26.3213 27.7231 26.3792 27.8752 26.3766C28.0274 26.3741 28.1722 26.3112 28.278 26.2017C30.3212 24.0842 30.0559 21.7825 29.2157 20.5477V20.545Z" fill="white"/>
</g>
<defs>
<clipPath id="clip0_1238_3471">
<rect width="22" height="22" fill="white" transform="translate(14 14)"/>
</clipPath>
</defs>
</svg>
